{
.appVersion = "1017";
classes = (
{
code = " A Cacute I Nacute O Oacute Sacute Scedilla Tcedilla Zacute a cacute i nacute o oacute sacute scedilla tcedilla zacute one two three ";
name = aalt1;
},
{

glyphs = (
{
glyphname = .notdef;
lastChange = "2016-11-01 20:47:46 +0000";
layers = (
{
layerId = "FC508690-ADF2-4DBF-B34D-60B2640A846D";
paths = (
{
closed = 1;
nodes = (
"180 701 CURVE",
"78 701 LINE SMOOTH",
"67 701 OFFCURVE",
"57 702 OFFCURVE",
"57 670 CURVE SMOOTH",
"57 645 OFFCURVE",
"55 475 OFFCURVE",
"55 411 CURVE SMOOTH",
"55 350 OFFCURVE",
"57 106 OFFCURVE",
"57 65 CURVE SMOOTH",
"57 22 OFFCURVE",
"52 -1 OFFCURVE",
"80 2 CURVE",
"98 1 OFFCURVE",
"124 1 OFFCURVE",
"158 1 CURVE",
"237 3 OFFCURVE",
"316 4 OFFCURVE",
"395 4 CURVE SMOOTH",
"406 4 OFFCURVE",
"426 5 OFFCURVE",
"431 6 CURVE SMOOTH",
"435 7 OFFCURVE",
"441 5 OFFCURVE",
"441 13 CURVE SMOOTH",
"441 14 OFFCURVE",
"441 16 OFFCURVE",
"440 19 CURVE SMOOTH",
"439 26 OFFCURVE",
"438 36 OFFCURVE",
"438 48 CURVE SMOOTH",
"438 62 OFFCURVE",
"439 78 OFFCURVE",
"439 88 CURVE SMOOTH",
"439 106 OFFCURVE",
"445 255 OFFCURVE",
"445 300 CURVE SMOOTH",
"445 344 OFFCURVE",
"448 558 OFFCURVE",
"452 603 CURVE SMOOTH",
"456 648 OFFCURVE",
"460 671 OFFCURVE",
"461 682 CURVE",
"462 685 OFFCURVE",
"463 688 OFFCURVE",
"463 690 CURVE SMOOTH",
"463 695 OFFCURVE",
"460 698 OFFCURVE",
"453 700 CURVE SMOOTH",
"445 702 OFFCURVE",
"433 703 OFFCURVE",
"414 703 CURVE SMOOTH",
"376 703 OFFCURVE",
"348 699 OFFCURVE",
"282 699 CURVE SMOOTH",
"270 699 OFFCURVE",
"231 702 OFFCURVE"
);
},
{
closed = 1;
nodes = (
"177 652 CURVE",
"238 651 OFFCURVE",
"272 650 OFFCURVE",
"280 649 CURVE SMOOTH",
"288 649 OFFCURVE",
"298 648 OFFCURVE",
"309 647 CURVE SMOOTH",
"314 646 OFFCURVE",
"320 646 OFFCURVE",
"327 646 CURVE SMOOTH",
"340 646 OFFCURVE",
"354 647 OFFCURVE",
"367 648 CURVE",
"361 636 LINE",
"353 612 OFFCURVE",
"327 544 OFFCURVE",
"305 512 CURVE",
"298 496 OFFCURVE",
"276 450 OFFCURVE",
"252 400 CURVE",
"228 450 OFFCURVE",
"206 496 OFFCURVE",
"199 512 CURVE",
"177 544 OFFCURVE",
"151 612 OFFCURVE",
"143 636 CURVE",
"136 651 LINE",
"142 652 OFFCURVE",
"151 653 OFFCURVE",
"161 653 CURVE SMOOTH",
"166 653 OFFCURVE",
"171 653 OFFCURVE"
);
},
{
closed = 1;
nodes = (
"394 421 CURVE",
"392 391 LINE SMOOTH",
"391 374 OFFCURVE",
"391 356 OFFCURVE",
"391 341 CURVE SMOOTH",
"391 326 OFFCURVE",
"390 308 OFFCURVE",
"389 293 CURVE SMOOTH",
"388 284 OFFCURVE",
"388 276 OFFCURVE",
"388 267 CURVE SMOOTH",
"388 227 OFFCURVE",
"387 181 OFFCURVE",
"388 160 CURVE",
"388 114 LINE",
"365 161 OFFCURVE",
"333 228 OFFCURVE",
"315 270 CURVE",
"280 342 LINE",
"301 389 OFFCURVE",
"323 439 OFFCURVE",
"334 461 CURVE",
"347 494 OFFCURVE",
"377 553 OFFCURVE",
"395 588 CURVE",
"393 476 LINE SMOOTH",
"393 459 OFFCURVE",
"394 438 OFFCURVE"
);
},
{
closed = 1;
nodes = (
"110 378 CURVE",
"113 453 LINE",
"117 552 LINE",
"118 572 LINE",
"135 537 OFFCURVE",
"159 489 OFFCURVE",
"170 461 CURVE",
"181 439 OFFCURVE",
"203 389 OFFCURVE",
"224 342 CURVE",
"189 270 LINE",
"169 223 OFFCURVE",
"131 146 OFFCURVE",
"109 99 CURVE",
"108 113 OFFCURVE",
"108 129 OFFCURVE",
"108 148 CURVE SMOOTH",
"108 184 OFFCURVE",
"109 229 OFFCURVE",
"109 252 CURVE SMOOTH",
"109 275 OFFCURVE",
"110 297 OFFCURVE",
"111 313 CURVE SMOOTH",
"112 322 OFFCURVE",
"111 344 OFFCURVE"
);
},
{
closed = 1;
nodes = (
"243 68 CURVE SMOOTH",
"234 67 OFFCURVE",
"202 67 OFFCURVE",
"178 67 CURVE SMOOTH",
"151 68 LINE",
"170 115 OFFCURVE",
"223 220 OFFCURVE",
"236 247 CURVE SMOOTH",
"239 254 OFFCURVE",
"245 265 OFFCURVE",
"252 280 CURVE",
"259 265 OFFCURVE",
"265 254 OFFCURVE",
"268 247 CURVE SMOOTH",
"281 221 OFFCURVE",
"332 118 OFFCURVE",
"352 71 CURVE",
"345 71 LINE SMOOTH",
"333 71 OFFCURVE",
"262 71 OFFCURVE"
);
}
);
width = 500;
}
);
},
{
glyphname = period;
lastChange = "2016-11-09 20:28:53 +0000";
layers = (
{
layerId = "FC508690-ADF2-4DBF-B34D-60B2640A846D";
paths = (
{
closed = 1;
nodes = (
"118 136 CURVE SMOOTH",
"85 136 OFFCURVE",
"46 127 OFFCURVE",
"46 68 CURVE SMOOTH",
"46 13 OFFCURVE",
"82 -12 OFFCURVE",
"118 -12 CURVE SMOOTH",
"155 -12 OFFCURVE",
"194 14 OFFCURVE",
"194 47 CURVE SMOOTH",
"194 79 OFFCURVE",
"188 136 OFFCURVE"
);
}
);
width = 235;
}
);
leftKerningGroup = period;
unicode = 002E;
},
{
glyphname = comma;
lastChange = "2016-11-08 16:47:18 +0000";
layers = (
{
layerId = "FC508690-ADF2-4DBF-B34D-60B2640A846D";
paths = (
{
closed = 1;
nodes = (
"156 130 CURVE",
"105 130 LINE SMOOTH",
"92 130 OFFCURVE",
"80 123 OFFCURVE",
"77 111 CURVE",
"64 73 LINE",
"47 12 LINE",
"23 -76 LINE",
"23 -87 OFFCURVE",
"19 -96 OFFCURVE",
"35 -96 CURVE",
"45 -98 OFFCURVE",
"57 -98 OFFCURVE",
"68 -98 CURVE SMOOTH",
"79 -98 OFFCURVE",
"90 -98 OFFCURVE",
"96 -96 CURVE",
"103 -92 OFFCURVE",
"108 -76 OFFCURVE",
"111 -71 CURVE",
"111 -65 OFFCURVE",
"129 4 OFFCURVE",
"137 25 CURVE",
"144 50 OFFCURVE",
"153 69 OFFCURVE",
"156 82 CURVE",
"160 93 OFFCURVE",
"162 101 OFFCURVE",
"165 114 CURVE",
"167 118 OFFCURVE",
"168 121 OFFCURVE",
"168 123 CURVE SMOOTH",
"168 128 OFFCURVE",
"162 130 OFFCURVE"
);
}
);
width = 183;
}
);
leftKerningGroup = period;
unicode = 002C;
},
{
glyphname = colon;
lastChange = "2016-11-08 16:47:51 +0000";
layers = (
{
layerId = "FC508690-ADF2-4DBF-B34D-60B2640A846D";
paths = (
{
closed = 1;
nodes = (
"122 313 CURVE SMOOTH",
"175 313 OFFCURVE",
"195 360 OFFCURVE",
"195 399 CURVE SMOOTH",
"195 443 OFFCURVE",
"159 475 OFFCURVE",
"119 475 CURVE SMOOTH",
"71 475 OFFCURVE",
"40 435 OFFCURVE",
"40 399 CURVE SMOOTH",
"40 364 OFFCURVE",
"70 313 OFFCURVE"
);
},
{
closed = 1;
nodes = (
"122 147 CURVE SMOOTH",
"90 147 OFFCURVE",
"48 133 OFFCURVE",
"48 72 CURVE SMOOTH",
"48 12 OFFCURVE",
"87 -15 OFFCURVE",
"127 -15 CURVE SMOOTH",
"166 -15 OFFCURVE",
"206 12 OFFCURVE",
"206 48 CURVE SMOOTH",
"206 83 OFFCURVE",
"202 147 OFFCURVE"
);
}
);
width = 244;
}
);
leftKerningGroup = colon;
rightKerningGroup = colon;
unicode = 003A;
},
{
glyphname = semicolon;
lastChange = "2016-11-08 16:47:29 +0000";
layers = (
{
layerId = "FC508690-ADF2-4DBF-B34D-60B2640A846D";
paths = (
{
closed = 1;
nodes = (
"153 433 CURVE SMOOTH",
"109 433 OFFCURVE",
"80 398 OFFCURVE",
"80 363 CURVE SMOOTH",
"80 331 OFFCURVE",
"109 283 OFFCURVE",
"157 283 CURVE SMOOTH",
"204 283 OFFCURVE",
"222 327 OFFCURVE",
"222 363 CURVE SMOOTH",
"222 404 OFFCURVE",
"190 433 OFFCURVE"
);
},
{
closed = 1;
nodes = (
"161 144 CURVE",
"109 144 LINE SMOOTH",
"94 144 OFFCURVE",
"80 137 OFFCURVE",
"76 122 CURVE SMOOTH",
"44 9 LINE",
"18 -72 LINE",
"18 -83 OFFCURVE",
"25 -111 OFFCURVE",
"40 -111 CURVE",
"53 -113 OFFCURVE",
"64 -114 OFFCURVE",
"73 -114 CURVE SMOOTH",
"82 -114 OFFCURVE",
"90 -113 OFFCURVE",
"95 -111 CURVE SMOOTH",
"106 -108 OFFCURVE",
"113 -93 OFFCURVE",
"116 -86 CURVE",
"116 -79 OFFCURVE",
"137 -2 OFFCURVE",
"145 24 CURVE SMOOTH",
"153 51 OFFCURVE",
"161 60 OFFCURVE",
"164 75 CURVE",
"168 86 OFFCURVE",
"171 104 OFFCURVE",
"175 119 CURVE",
"177 123 OFFCURVE",
"178 126 OFFCURVE",
"178 129 CURVE SMOOTH",
"178 138 OFFCURVE",
"169 144 OFFCURVE"
);
}
);
width = 231;
}
);
leftKerningGroup = colon;
unicode = 003B;
},
{
glyphname = ellipsis;
lastChange = "2016-11-08 16:47:35 +0000";
layers = (
{
layerId = "FC508690-ADF2-4DBF-B34D-60B2640A846D";
paths = (
{
closed = 1;
nodes = (
"118 136 CURVE SMOOTH",
"85 136 OFFCURVE",
"46 127 OFFCURVE",
"46 68 CURVE SMOOTH",
"46 13 OFFCURVE",
"82 -12 OFFCURVE",
"118 -12 CURVE SMOOTH",
"155 -12 OFFCURVE",
"194 14 OFFCURVE",
"194 47 CURVE SMOOTH",
"194 79 OFFCURVE",
"188 136 OFFCURVE"
);
},
{
closed = 1;
nodes = (
"353 136 CURVE SMOOTH",
"320 136 OFFCURVE",
"281 127 OFFCURVE",
"281 68 CURVE SMOOTH",
"281 13 OFFCURVE",
"317 -12 OFFCURVE",
"353 -12 CURVE SMOOTH",
"390 -12 OFFCURVE",
"429 14 OFFCURVE",
"429 47 CURVE SMOOTH",
"429 79 OFFCURVE",
"423 136 OFFCURVE"
);
},
{
closed = 1;
nodes = (
"588 136 CURVE SMOOTH",
"555 136 OFFCURVE",
"516 127 OFFCURVE",
"516 68 CURVE SMOOTH",
"516 13 OFFCURVE",
"552 -12 OFFCURVE",
"588 -12 CURVE SMOOTH",
"625 -12 OFFCURVE",
"664 14 OFFCURVE",
"664 47 CURVE SMOOTH",
"664 79 OFFCURVE",
"658 136 OFFCURVE"
);
}
);
width = 705;
}
);
leftKerningGroup = period;
unicode = 2026;
},
{
glyphname = exclamdown;
lastChange = "2016-11-01 20:47:46 +0000";
layers = (
{
layerId = "FC508690-ADF2-4DBF-B34D-60B2640A846D";
paths = (
{
closed = 1;
nodes = (
"104 588 CURVE SMOOTH",
"128 588 OFFCURVE",
"163 595 OFFCURVE",
"171 637 CURVE SMOOTH",
"172 642 OFFCURVE",
"172 646 OFFCURVE",
"172 651 CURVE SMOOTH",
"172 691 OFFCURVE",
"143 726 OFFCURVE",
"110 726 CURVE SMOOTH",
"71 726 OFFCURVE",
"40 685 OFFCURVE",
"40 665 CURVE",
"39 662 OFFCURVE",
"39 659 OFFCURVE",
"39 655 CURVE SMOOTH",
"39 629 OFFCURVE",
"56 588 OFFCURVE"
);
},
{
closed = 1;
nodes = (
"152 343 CURVE",
"152 422 LINE",
"153 443 OFFCURVE",
"154 464 OFFCURVE",
"154 481 CURVE SMOOTH",
"154 492 OFFCURVE",
"153 501 OFFCURVE",
"152 507 CURVE SMOOTH",
"151 523 OFFCURVE",
"150 538 OFFCURVE",
"135 538 CURVE SMOOTH",
"128 538 OFFCURVE",
"120 537 OFFCURVE",
"112 537 CURVE SMOOTH",
"105 537 OFFCURVE",
"98 538 OFFCURVE",
"90 538 CURVE SMOOTH",
"75 539 OFFCURVE",
"67 538 OFFCURVE",
"67 522 CURVE SMOOTH",
"67 521 OFFCURVE",
"67 520 OFFCURVE",
"67 519 CURVE SMOOTH",
"67 509 OFFCURVE",
"68 486 OFFCURVE",
"68 463 CURVE SMOOTH",
"68 452 OFFCURVE",
"68 441 OFFCURVE",
"67 432 CURVE",
"67 422 OFFCURVE",
"67 415 OFFCURVE",
"66 411 CURVE SMOOTH",
"65 407 OFFCURVE",
"66 392 OFFCURVE",
"67 367 CURVE SMOOTH",
"67 357 OFFCURVE",
"68 345 OFFCURVE",
"68 332 CURVE SMOOTH",
"68 314 OFFCURVE",
"67 294 OFFCURVE",
"66 271 CURVE",
"59 188 OFFCURVE",
"56 132 OFFCURVE",
"56 103 CURVE",
"57 89 OFFCURVE",
"57 76 OFFCURVE",
"57 65 CURVE SMOOTH",
"57 54 OFFCURVE",
"57 46 OFFCURVE",
"56 39 CURVE SMOOTH",
"55 30 OFFCURVE",
"53 23 OFFCURVE",
"53 17 CURVE SMOOTH",
"53 8 OFFCURVE",
"58 3 OFFCURVE",
"75 1 CURVE",
"99 1 OFFCURVE",
"121 1 OFFCURVE",
"141 0 CURVE SMOOTH",
"148 0 OFFCURVE",
"162 -1 OFFCURVE",
"162 11 CURVE SMOOTH",
"162 11 OFFCURVE",
"162 12 OFFCURVE",
"162 12 CURVE",
"161 19 OFFCURVE",
"161 28 OFFCURVE",
"161 38 CURVE SMOOTH",
"162 58 OFFCURVE",
"160 102 OFFCURVE",
"157 171 CURVE SMOOTH",
"154 240 OFFCURVE",
"153 297 OFFCURVE"
);
}
);
width = 218;
}
);
unicode = 00A1;
},
{
glyphname = exclam;
lastChange = "2016-11-01 20:47:46 +0000";
layers = (
{
layerId = "FC508690-ADF2-4DBF-B34D-60B2640A846D";
paths = (
{
closed = 1;
nodes = (
"47 673 CURVE",
"47 651 LINE SMOOTH",
"47 647 OFFCURVE",
"50 610 OFFCURVE",
"57 541 CURVE SMOOTH",
"64 472 OFFCURVE",
"68 414 OFFCURVE",
"69 367 CURVE SMOOTH",
"71 289 LINE SMOOTH",
"71 275 OFFCURVE",
"71 261 OFFCURVE",
"71 249 CURVE SMOOTH",
"71 230 OFFCURVE",
"71 214 OFFCURVE",
"73 204 CURVE",
"74 187 OFFCURVE",
"74 172 OFFCURVE",
"97 173 CURVE",
"148 173 LINE",
"163 172 OFFCURVE",
"179 173 OFFCURVE",
"178 192 CURVE SMOOTH",
"178 207 OFFCURVE",
"176 251 OFFCURVE",
"176 279 CURVE SMOOTH",
"176 289 OFFCURVE",
"176 296 OFFCURVE",
"177 300 CURVE SMOOTH",
"178 304 OFFCURVE",
"177 318 OFFCURVE",
"175 343 CURVE",
"175 356 OFFCURVE",
"174 370 OFFCURVE",
"174 386 CURVE SMOOTH",
"174 403 OFFCURVE",
"175 421 OFFCURVE",
"175 440 CURVE",
"180 523 OFFCURVE",
"183 579 OFFCURVE",
"184 609 CURVE SMOOTH",
"185 640 OFFCURVE",
"187 661 OFFCURVE",
"188 672 CURVE SMOOTH",
"189 681 OFFCURVE",
"191 688 OFFCURVE",
"191 694 CURVE SMOOTH",
"191 703 OFFCURVE",
"186 708 OFFCURVE",
"169 710 CURVE",
"124 713 OFFCURVE",
"92 710 OFFCURVE",
"75 711 CURVE",
"72 712 OFFCURVE",
"69 712 OFFCURVE",
"67 712 CURVE SMOOTH",
"56 712 OFFCURVE",
"47 705 OFFCURVE"
);
},
{
closed = 1;
nodes = (
"125 123 CURVE SMOOTH",
"101 123 OFFCURVE",
"66 116 OFFCURVE",
"58 74 CURVE SMOOTH",
"57 69 OFFCURVE",
"57 65 OFFCURVE",
"57 60 CURVE SMOOTH",
"57 20 OFFCURVE",
"86 -15 OFFCURVE",
"119 -15 CURVE SMOOTH",
"158 -15 OFFCURVE",
"189 26 OFFCURVE",
"189 46 CURVE",
"190 49 OFFCURVE",
"190 52 OFFCURVE",
"190 56 CURVE SMOOTH",
"190 82 OFFCURVE",
"173 123 OFFCURVE"
);
}
);
width = 242;
}
);
unicode = 0021;
},
{
glyphname = questiondown;
lastChange = "2016-11-01 20:47:46 +0000";
layers = (
{
layerId = "FC508690-ADF2-4DBF-B34D-60B2640A846D";
paths = (
{
closed = 1;
nodes = (
"193 585 CURVE SMOOTH",
"217 585 OFFCURVE",
"252 592 OFFCURVE",
"260 634 CURVE SMOOTH",
"261 639 OFFCURVE",
"261 643 OFFCURVE",
"261 648 CURVE SMOOTH",
"261 688 OFFCURVE",
"232 723 OFFCURVE",
"199 723 CURVE SMOOTH",
"160 723 OFFCURVE",
"129 682 OFFCURVE",
"129 662 CURVE",
"128 659 OFFCURVE",
"128 656 OFFCURVE",
"128 652 CURVE SMOOTH",
"128 626 OFFCURVE",
"145 585 OFFCURVE"
);
},
{
closed = 1;
nodes = (
"151 -15 CURVE SMOOTH",
"155 -15 OFFCURVE",
"193 -14 OFFCURVE",
"217 -7 CURVE",
"241 -2 OFFCURVE",
"261 9 OFFCURVE",
"288 26 CURVE SMOOTH",
"305 37 OFFCURVE",
"327 56 OFFCURVE",
"346 77 CURVE",
"357 82 OFFCURVE",
"335 107 OFFCURVE",
"332 110 CURVE SMOOTH",
"321 120 OFFCURVE",
"309 131 OFFCURVE",
"298 131 CURVE SMOOTH",
"295 131 OFFCURVE",
"291 130 OFFCURVE",
"288 127 CURVE SMOOTH",
"256 96 OFFCURVE",
"237 81 OFFCURVE",
"220 73 CURVE",
"205 68 OFFCURVE",
"191 65 OFFCURVE",
"177 65 CURVE SMOOTH",
"157 65 OFFCURVE",
"138 72 OFFCURVE",
"119 92 CURVE",
"107 115 OFFCURVE",
"100 137 OFFCURVE",
"100 159 CURVE SMOOTH",
"100 185 OFFCURVE",
"109 211 OFFCURVE",
"126 237 CURVE",
"144 276 OFFCURVE",
"230 359 OFFCURVE",
"230 415 CURVE SMOOTH",
"230 444 OFFCURVE",
"233 471 OFFCURVE",
"233 493 CURVE SMOOTH",
"233 503 OFFCURVE",
"232 513 OFFCURVE",
"230 521 CURVE",
"230 528 OFFCURVE",
"222 537 OFFCURVE",
"209 541 CURVE SMOOTH",
"202 543 OFFCURVE",
"197 544 OFFCURVE",
"193 544 CURVE SMOOTH",
"188 544 OFFCURVE",
"184 543 OFFCURVE",
"175 541 CURVE",
"168 538 OFFCURVE",
"159 528 OFFCURVE",
"156 517 CURVE",
"151 508 OFFCURVE",
"149 491 OFFCURVE",
"149 466 CURVE SMOOTH",
"149 425 OFFCURVE",
"137 385 OFFCURVE",
"109 358 CURVE SMOOTH",
"80 329 OFFCURVE",
"20 257 OFFCURVE",
"20 182 CURVE SMOOTH",
"20 59 OFFCURVE",
"84 -15 OFFCURVE"
);
}
);
width = 366;
}
);
unicode = 00BF;
},
{
glyphname = question;
lastChange = "2016-11-01 20:47:46 +0000";
layers = (
{
layerId = "FC508690-ADF2-4DBF-B34D-60B2640A846D";
paths = (
{
closed = 1;
nodes = (
"247 723 CURVE SMOOTH",
"160 723 OFFCURVE",
"134 717 OFFCURVE",
"80 682 CURVE SMOOTH",
"63 671 OFFCURVE",
"41 652 OFFCURVE",
"22 631 CURVE",
"11 626 OFFCURVE",
"33 601 OFFCURVE",
"36 598 CURVE SMOOTH",
"61 576 OFFCURVE",
"82 550 OFFCURVE",
"91 556 CURVE",
"108 571 OFFCURVE",
"131 590 OFFCURVE",
"148 598 CURVE",
"158 601 OFFCURVE",
"168 603 OFFCURVE",
"177 603 CURVE SMOOTH",
"199 603 OFFCURVE",
"218 594 OFFCURVE",
"240 576 CURVE",
"253 563 OFFCURVE",
"259 548 OFFCURVE",
"259 529 CURVE SMOOTH",
"259 512 OFFCURVE",
"254 493 OFFCURVE",
"242 471 CURVE",
"224 432 OFFCURVE",
"138 349 OFFCURVE",
"138 293 CURVE SMOOTH",
"138 264 OFFCURVE",
"135 237 OFFCURVE",
"135 215 CURVE SMOOTH",
"135 205 OFFCURVE",
"136 195 OFFCURVE",
"138 187 CURVE",
"138 180 OFFCURVE",
"152 173 OFFCURVE",
"159 170 CURVE",
"168 162 OFFCURVE",
"177 159 OFFCURVE",
"187 159 CURVE SMOOTH",
"198 159 OFFCURVE",
"209 163 OFFCURVE",
"223 167 CURVE",
"230 170 OFFCURVE",
"239 180 OFFCURVE",
"242 191 CURVE",
"247 200 OFFCURVE",
"249 217 OFFCURVE",
"249 242 CURVE SMOOTH",
"249 283 OFFCURVE",
"261 323 OFFCURVE",
"289 350 CURVE SMOOTH",
"318 379 OFFCURVE",
"378 451 OFFCURVE",
"378 526 CURVE SMOOTH",
"378 649 OFFCURVE",
"314 723 OFFCURVE"
);
},
{
closed = 1;
nodes = (
"185 123 CURVE SMOOTH",
"161 123 OFFCURVE",
"126 116 OFFCURVE",
"118 74 CURVE SMOOTH",
"117 69 OFFCURVE",
"117 65 OFFCURVE",
"117 60 CURVE SMOOTH",
"117 20 OFFCURVE",
"146 -15 OFFCURVE",
"179 -15 CURVE SMOOTH",
"218 -15 OFFCURVE",
"249 26 OFFCURVE",
"249 46 CURVE",
"250 49 OFFCURVE",
"250 52 OFFCURVE",
"250 56 CURVE SMOOTH",
"250 82 OFFCURVE",
"233 123 OFFCURVE"
);
}
);
width = 396;
}
);
unicode = 003F;
},
{
glyphname = quotedbl;
lastChange = "2016-11-09 19:03:22 +0000";
layers = (
{
layerId = "FC508690-ADF2-4DBF-B34D-60B2640A846D";
paths = (
{
closed = 1;
nodes = (
"136 750 CURVE",
"87 750 LINE SMOOTH",
"72 750 OFFCURVE",
"69 742 OFFCURVE",
"64 723 CURVE",
"64 669 LINE",
"67 665 OFFCURVE",
"68 656 OFFCURVE",
"68 642 CURVE SMOOTH",
"68 629 OFFCURVE",
"67 611 OFFCURVE",
"64 589 CURVE",
"64 477 LINE SMOOTH",
"64 458 OFFCURVE",
"69 441 OFFCURVE",
"72 441 CURVE SMOOTH",
"131 441 LINE SMOOTH",
"140 441 OFFCURVE",
"140 472 OFFCURVE",
"140 486 CURVE SMOOTH",
"140 607 LINE",
"144 638 OFFCURVE",
"144 664 OFFCURVE",
"144 683 CURVE SMOOTH",
"144 696 OFFCURVE",
"149 714 OFFCURVE",
"149 727 CURVE SMOOTH",
"149 742 OFFCURVE",
"145 750 OFFCURVE"
);
},
{
closed = 1;
nodes = (
"301 750 CURVE",
"251 750 LINE SMOOTH",
"236 750 OFFCURVE",
"229 741 OFFCURVE",
"229 723 CURVE SMOOTH",
"229 464 LINE SMOOTH",
"229 449 OFFCURVE",
"225 441 OFFCURVE",
"242 441 CURVE SMOOTH",
"297 441 LINE SMOOTH",
"305 441 OFFCURVE",
"305 469 OFFCURVE",
"305 477 CURVE SMOOTH",
"305 607 LINE SMOOTH",
"305 638 OFFCURVE",
"309 664 OFFCURVE",
"309 683 CURVE SMOOTH",
"309 696 OFFCURVE",
"309 714 OFFCURVE",
"314 727 CURVE",
"314 742 OFFCURVE",
"310 750 OFFCURVE"
);
}
);
width = 373;
}
);
leftKerningGroup = quotedbl;
rightKerningGroup = quotedbl;
unicode = 0022;
},
{
glyphname = quotesingle;
lastChange = "2016-11-08 16:48:17 +0000";
layers = (
{
layerId = "FC508690-ADF2-4DBF-B34D-60B2640A846D";
paths = (
{
closed = 1;
nodes = (
"141 746 CURVE",
"91 746 LINE SMOOTH",
"74 746 OFFCURVE",
"66 738 OFFCURVE",
"66 721 CURVE SMOOTH",
"66 483 LINE SMOOTH",
"66 470 OFFCURVE",
"66 461 OFFCURVE",
"81 458 CURVE",
"91 457 OFFCURVE",
"102 456 OFFCURVE",
"112 456 CURVE SMOOTH",
"124 456 OFFCURVE",
"134 457 OFFCURVE",
"140 459 CURVE SMOOTH",
"148 462 OFFCURVE",
"149 484 OFFCURVE",
"149 492 CURVE SMOOTH",
"150 613 LINE SMOOTH",
"150 642 OFFCURVE",
"154 667 OFFCURVE",
"154 684 CURVE SMOOTH",
"154 696 OFFCURVE",
"154 709 OFFCURVE",
"155 724 CURVE",
"155 741 OFFCURVE",
"149 746 OFFCURVE"
);
}
);
width = 205;
}
);
leftKerningGroup = quotedbl;
rightKerningGroup = quotedbl;
unicode = 0027;
},
{
glyphname = asterisk;
lastChange = "2016-11-01 20:47:46 +0000";
layers = (
{
layerId = "FC508690-ADF2-4DBF-B34D-60B2640A846D";
paths = (
{
closed = 1;
nodes = (
"255 615 CURVE",
"243 636 LINE SMOOTH",
"236 648 OFFCURVE",
"229 663 OFFCURVE",
"222 676 CURVE SMOOTH",
"210 696 OFFCURVE",
"198 724 OFFCURVE",
"190 732 CURVE",
"185 740 OFFCURVE",
"181 744 OFFCURVE",
"177 744 CURVE SMOOTH",
"175 744 OFFCURVE",
"173 743 OFFCURVE",
"170 740 CURVE",
"125 712 LINE",
"109 704 OFFCURVE",
"89 696 OFFCURVE",
"98 680 CURVE",
"102 664 OFFCURVE",
"109 651 OFFCURVE",
"121 632 CURVE",
"134 615 OFFCURVE",
"142 599 OFFCURVE",
"146 583 CURVE",
"150 577 OFFCURVE",
"154 573 OFFCURVE",
"154 571 CURVE SMOOTH",
"154 568 OFFCURVE",
"150 567 OFFCURVE",
"138 567 CURVE SMOOTH",
"61 567 LINE SMOOTH",
"45 567 OFFCURVE",
"25 571 OFFCURVE",
"25 551 CURVE SMOOTH",
"25 530 OFFCURVE",
"29 503 OFFCURVE",
"29 490 CURVE SMOOTH",
"29 474 OFFCURVE",
"29 454 OFFCURVE",
"45 454 CURVE SMOOTH",
"65 454 OFFCURVE",
"109 462 OFFCURVE",
"125 462 CURVE",
"129 461 OFFCURVE",
"133 460 OFFCURVE",
"138 460 CURVE SMOOTH",
"147 460 OFFCURVE",
"156 462 OFFCURVE",
"163 462 CURVE SMOOTH",
"184 462 OFFCURVE",
"149 424 OFFCURVE",
"134 394 CURVE",
"121 373 OFFCURVE",
"113 366 OFFCURVE",
"109 358 CURVE",
"107 351 OFFCURVE",
"104 347 OFFCURVE",
"104 342 CURVE SMOOTH",
"104 338 OFFCURVE",
"106 335 OFFCURVE",
"113 329 CURVE",
"129 321 OFFCURVE",
"157 314 OFFCURVE",
"174 305 CURVE",
"179 301 OFFCURVE",
"185 300 OFFCURVE",
"191 300 CURVE SMOOTH",
"199 300 OFFCURVE",
"206 303 OFFCURVE",
"210 310 CURVE SMOOTH",
"218 321 OFFCURVE",
"239 361 OFFCURVE",
"247 377 CURVE",
"255 390 OFFCURVE",
"255 406 OFFCURVE",
"262 406 CURVE SMOOTH",
"270 406 OFFCURVE",
"278 390 OFFCURVE",
"287 369 CURVE",
"299 354 OFFCURVE",
"311 333 OFFCURVE",
"318 317 CURVE",
"325 307 OFFCURVE",
"329 295 OFFCURVE",
"339 295 CURVE SMOOTH",
"341 295 OFFCURVE",
"344 296 OFFCURVE",
"347 297 CURVE SMOOTH",
"364 305 OFFCURVE",
"391 321 OFFCURVE",
"404 329 CURVE SMOOTH",
"410 332 OFFCURVE",
"418 338 OFFCURVE",
"418 346 CURVE SMOOTH",
"418 348 OFFCURVE",
"418 351 OFFCURVE",
"416 354 CURVE SMOOTH",
"403 370 OFFCURVE",
"372 425 OFFCURVE",
"364 438 CURVE",
"356 448 OFFCURVE",
"348 457 OFFCURVE",
"348 463 CURVE SMOOTH",
"348 467 OFFCURVE",
"351 469 OFFCURVE",
"359 471 CURVE",
"378 471 OFFCURVE",
"440 474 OFFCURVE",
"460 474 CURVE",
"465 473 OFFCURVE",
"469 473 OFFCURVE",
"472 473 CURVE SMOOTH",
"485 473 OFFCURVE",
"492 477 OFFCURVE",
"492 486 CURVE SMOOTH",
"492 551 LINE",
"493 553 OFFCURVE",
"494 556 OFFCURVE",
"494 559 CURVE SMOOTH",
"494 565 OFFCURVE",
"490 571 OFFCURVE",
"475 571 CURVE SMOOTH",
"391 571 LINE",
"364 567 OFFCURVE",
"343 571 OFFCURVE",
"355 583 CURVE",
"364 594 OFFCURVE",
"396 652 OFFCURVE",
"404 672 CURVE SMOOTH",
"408 681 OFFCURVE",
"416 691 OFFCURVE",
"416 699 CURVE SMOOTH",
"416 705 OFFCURVE",
"413 709 OFFCURVE",
"404 712 CURVE SMOOTH",
"383 720 OFFCURVE",
"359 732 OFFCURVE",
"351 740 CURVE",
"347 742 OFFCURVE",
"342 745 OFFCURVE",
"337 745 CURVE SMOOTH",
"332 745 OFFCURVE",
"327 742 OFFCURVE",
"322 732 CURVE SMOOTH",
"314 717 OFFCURVE",
"281 668 OFFCURVE",
"278 655 CURVE",
"270 639 OFFCURVE",
"266 615 OFFCURVE"
);
}
);
width = 518;
}
);
unicode = 002A;
},
{
glyphname = ampersand;
lastChange = "2016-11-01 20:47:46 +0000";
layers = (
{
layerId = "FC508690-ADF2-4DBF-B34D-60B2640A846D";
paths = (
{
closed = 1;
nodes = (
"553 83 CURVE",
"525 110 LINE",
"504 131 LINE",
"514 146 OFFCURVE",
"523 161 OFFCURVE",
"530 176 CURVE SMOOTH",
"543 201 OFFCURVE",
"556 231 OFFCURVE",
"556 254 CURVE SMOOTH",
"556 282 OFFCURVE",
"557 283 OFFCURVE",
"557 288 CURVE SMOOTH",
"557 290 OFFCURVE",
"557 293 OFFCURVE",
"556 301 CURVE SMOOTH",
"555 314 OFFCURVE",
"539 324 OFFCURVE",
"530 324 CURVE SMOOTH",
"521 324 OFFCURVE",
"517 323 OFFCURVE",
"508 320 CURVE SMOOTH",
"497 316 OFFCURVE",
"497 312 OFFCURVE",
"497 275 CURVE SMOOTH",
"497 260 OFFCURVE",
"496 242 OFFCURVE",
"490 223 CURVE SMOOTH",
"485 207 OFFCURVE",
"478 194 OFFCURVE",
"473 185 CURVE SMOOTH",
"463 170 LINE",
"415 223 LINE",
"388 250 OFFCURVE",
"359 280 OFFCURVE",
"346 289 CURVE",
"268 367 LINE",
"287 383 OFFCURVE",
"305 401 OFFCURVE",
"320 421 CURVE SMOOTH",
"347 456 OFFCURVE",
"373 503 OFFCURVE",
"373 560 CURVE SMOOTH",
"373 675 OFFCURVE",
"303 735 OFFCURVE",
"223 735 CURVE SMOOTH",
"195 735 OFFCURVE",
"66 734 OFFCURVE",
"66 577 CURVE SMOOTH",
"66 510 OFFCURVE",
"87 464 OFFCURVE",
"110 432 CURVE SMOOTH",
"123 413 OFFCURVE",
"137 398 OFFCURVE",
"154 385 CURVE",
"134 370 OFFCURVE",
"116 353 OFFCURVE",
"101 335 CURVE SMOOTH",
"74 304 OFFCURVE",
"49 262 OFFCURVE",
"49 219 CURVE SMOOTH",
"49 123 OFFCURVE",
"75 79 OFFCURVE",
"110 52 CURVE",
"137 25 OFFCURVE",
"197 0 OFFCURVE",
"268 0 CURVE SMOOTH",
"333 0 OFFCURVE",
"383 19 OFFCURVE",
"418 39 CURVE SMOOTH",
"438 51 OFFCURVE",
"455 64 OFFCURVE",
"469 79 CURVE",
"480 66 LINE SMOOTH",
"487 59 OFFCURVE",
"492 51 OFFCURVE",
"497 47 CURVE SMOOTH",
"503 41 OFFCURVE",
"513 25 OFFCURVE",
"524 25 CURVE SMOOTH",
"528 25 OFFCURVE",
"532 27 OFFCURVE",
"536 32 CURVE",
"553 41 OFFCURVE",
"550 45 OFFCURVE",
"557 49 CURVE SMOOTH",
"561 52 OFFCURVE",
"563 56 OFFCURVE",
"563 61 CURVE SMOOTH",
"563 69 OFFCURVE",
"559 78 OFFCURVE"
);
},
{
closed = 1;
nodes = (
"128 595 CURVE SMOOTH",
"128 656 OFFCURVE",
"189 682 OFFCURVE",
"224 682 CURVE SMOOTH",
"285 682 OFFCURVE",
"320 631 OFFCURVE",
"320 560 CURVE SMOOTH",
"320 490 OFFCURVE",
"233 420 OFFCURVE",
"215 420 CURVE SMOOTH",
"199 420 OFFCURVE",
"198 429 OFFCURVE",
"163 464 CURVE",
"128 507 OFFCURVE",
"128 542 OFFCURVE"
);
},
{
closed = 1;
nodes = (
"416 104 CURVE SMOOTH",
"408 94 OFFCURVE",
"400 52 OFFCURVE",
"259 52 CURVE SMOOTH",
"170 52 OFFCURVE",
"133 91 OFFCURVE",
"114 131 CURVE SMOOTH",
"103 154 OFFCURVE",
"99 180 OFFCURVE",
"101 210 CURVE",
"101 280 OFFCURVE",
"189 341 OFFCURVE",
"198 341 CURVE SMOOTH",
"216 341 OFFCURVE",
"249 297 OFFCURVE",
"268 280 CURVE",
"284 253 OFFCURVE",
"373 166 OFFCURVE",
"399 140 CURVE SMOOTH",
"413 126 OFFCURVE",
"419 119 OFFCURVE",
"419 113 CURVE SMOOTH",
"419 110 OFFCURVE",
"418 107 OFFCURVE"
);
}
);
width = 580;
}
);
unicode = 0026;
},
{
glyphname = parenleft;
lastChange = "2016-11-01 20:47:46 +0000";
layers = (
{
layerId = "FC508690-ADF2-4DBF-B34D-60B2640A846D";
paths = (
{
closed = 1;
nodes = (
"310 730 CURVE",
"228 730 LINE SMOOTH",
"218 730 OFFCURVE",
"205 738 OFFCURVE",
"193 738 CURVE SMOOTH",
"188 738 OFFCURVE",
"182 736 OFFCURVE",
"178 730 CURVE SMOOTH",
"165 710 OFFCURVE",
"32 633 OFFCURVE",
"32 416 CURVE SMOOTH",
"32 23 OFFCURVE",
"185 -28 OFFCURVE",
"205 -44 CURVE SMOOTH",
"225 -59 OFFCURVE",
"242 -58 OFFCURVE",
"262 -58 CURVE SMOOTH",
"283 -58 OFFCURVE",
"317 -50 OFFCURVE",
"334 -50 CURVE SMOOTH",
"341 -50 OFFCURVE",
"344 -48 OFFCURVE",
"344 -45 CURVE SMOOTH",
"344 -42 OFFCURVE",
"342 -38 OFFCURVE",
"337 -33 CURVE SMOOTH",
"326 -22 OFFCURVE",
"164 133 OFFCURVE",
"164 365 CURVE SMOOTH",
"164 603 OFFCURVE",
"283 687 OFFCURVE",
"307 703 CURVE SMOOTH",
"319 712 OFFCURVE",
"326 719 OFFCURVE",
"326 724 CURVE SMOOTH",
"326 728 OFFCURVE",
"321 730 OFFCURVE"
);
}
);
width = 370;
}
);
unicode = 0028;
},
{
glyphname = parenright;
lastChange = "2016-11-01 20:47:46 +0000";
layers = (
{
layerId = "FC508690-ADF2-4DBF-B34D-60B2640A846D";
paths = (
{
closed = 1;
nodes = (
"148 743 CURVE",
"64 743 LINE SMOOTH",
"52 743 OFFCURVE",
"47 741 OFFCURVE",
"47 737 CURVE SMOOTH",
"47 732 OFFCURVE",
"54 725 OFFCURVE",
"67 715 CURVE",
"92 699 OFFCURVE",
"215 610 OFFCURVE",
"215 364 CURVE SMOOTH",
"215 122 OFFCURVE",
"46 -35 OFFCURVE",
"36 -50 CURVE",
"30 -56 OFFCURVE",
"28 -60 OFFCURVE",
"28 -63 CURVE SMOOTH",
"28 -66 OFFCURVE",
"31 -68 OFFCURVE",
"39 -68 CURVE SMOOTH",
"58 -68 OFFCURVE",
"92 -75 OFFCURVE",
"113 -75 CURVE SMOOTH",
"134 -75 OFFCURVE",
"151 -76 OFFCURVE",
"172 -61 CURVE",
"194 -48 OFFCURVE",
"351 10 OFFCURVE",
"351 417 CURVE SMOOTH",
"351 641 OFFCURVE",
"214 722 OFFCURVE",
"201 743 CURVE",
"196 749 OFFCURVE",
"190 751 OFFCURVE",
"184 751 CURVE SMOOTH",
"172 751 OFFCURVE",
"159 743 OFFCURVE"
);
}
);
width = 383;
}
);
unicode = 0029;
},
{
glyphname = bracketleft;
lastChange = "2016-11-01 20:47:46 +0000";
layers = (
{
layerId = "FC508690-ADF2-4DBF-B34D-60B2640A846D";
paths = (
{
closed = 1;
nodes = (
"269 26 CURVE",
"152 26 LINE",
"154 60 LINE SMOOTH",
"155 81 OFFCURVE",
"156 109 OFFCURVE",
"156 122 CURVE SMOOTH",
"156 148 OFFCURVE",
"160 311 OFFCURVE",
"160 337 CURVE SMOOTH",
"160 367 OFFCURVE",
"172 568 OFFCURVE",
"172 609 CURVE SMOOTH",
"172 628 OFFCURVE",
"173 647 OFFCURVE",
"176 665 CURVE SMOOTH",
"178 683 LINE",
"185 684 OFFCURVE",
"191 684 OFFCURVE",
"196 684 CURVE SMOOTH",
"275 684 LINE SMOOTH",
"284 684 OFFCURVE",
"288 689 OFFCURVE",
"288 700 CURVE SMOOTH",
"288 724 LINE SMOOTH",
"288 729 OFFCURVE",
"292 747 OFFCURVE",
"278 747 CURVE",
"251 744 LINE",
"197 741 LINE SMOOTH",
"186 740 OFFCURVE",
"167 741 OFFCURVE",
"155 741 CURVE SMOOTH",
"95 741 LINE",
"79 742 OFFCURVE",
"64 742 OFFCURVE",
"65 719 CURVE SMOOTH",
"65 704 OFFCURVE",
"67 655 OFFCURVE",
"67 623 CURVE SMOOTH",
"67 611 OFFCURVE",
"67 601 OFFCURVE",
"66 596 CURVE SMOOTH",
"65 592 OFFCURVE",
"65 582 OFFCURVE",
"65 570 CURVE SMOOTH",
"65 529 OFFCURVE",
"68 458 OFFCURVE",
"68 437 CURVE SMOOTH",
"68 417 OFFCURVE",
"70 343 OFFCURVE",
"70 263 CURVE SMOOTH",
"70 233 OFFCURVE",
"70 202 OFFCURVE",
"69 172 CURVE",
"68 64 OFFCURVE",
"60 -2 OFFCURVE",
"57 -27 CURVE SMOOTH",
"56 -41 OFFCURVE",
"55 -51 OFFCURVE",
"55 -58 CURVE SMOOTH",
"55 -65 OFFCURVE",
"60 -69 OFFCURVE",
"71 -70 CURVE SMOOTH",
"82 -71 OFFCURVE",
"91 -72 OFFCURVE",
"97 -72 CURVE SMOOTH",
"99 -72 OFFCURVE",
"101 -72 OFFCURVE",
"102 -72 CURVE",
"179 -72 LINE SMOOTH",
"233 -72 OFFCURVE",
"250 -76 OFFCURVE",
"266 -76 CURVE SMOOTH",
"283 -76 OFFCURVE",
"287 -72 OFFCURVE",
"287 -57 CURVE SMOOTH",
"287 13 LINE SMOOTH",
"287 22 OFFCURVE",
"284 26 OFFCURVE",
"275 26 CURVE SMOOTH",
"273 26 OFFCURVE",
"271 26 OFFCURVE"
);
}
);
width = 313;
}
);
unicode = 005B;
},
{
glyphname = bracketright;
lastChange = "2016-11-01 20:47:46 +0000";
layers = (
{
layerId = "FC508690-ADF2-4DBF-B34D-60B2640A846D";
paths = (
{
closed = 1;
nodes = (
"45 645 CURVE",
"162 645 LINE",
"160 611 LINE SMOOTH",
"159 590 OFFCURVE",
"158 562 OFFCURVE",
"158 549 CURVE SMOOTH",
"158 523 OFFCURVE",
"154 360 OFFCURVE",
"154 334 CURVE SMOOTH",
"154 304 OFFCURVE",
"142 103 OFFCURVE",
"142 62 CURVE SMOOTH",
"142 43 OFFCURVE",
"141 24 OFFCURVE",
"138 6 CURVE SMOOTH",
"136 -12 LINE",
"129 -13 OFFCURVE",
"123 -13 OFFCURVE",
"118 -13 CURVE SMOOTH",
"39 -13 LINE SMOOTH",
"30 -13 OFFCURVE",
"26 -18 OFFCURVE",
"26 -29 CURVE SMOOTH",
"26 -53 LINE SMOOTH",
"26 -58 OFFCURVE",
"22 -76 OFFCURVE",
"36 -76 CURVE",
"63 -73 LINE",
"117 -70 LINE SMOOTH",
"128 -69 OFFCURVE",
"147 -70 OFFCURVE",
"159 -70 CURVE SMOOTH",
"219 -70 LINE",
"235 -71 OFFCURVE",
"250 -71 OFFCURVE",
"249 -48 CURVE SMOOTH",
"249 -33 OFFCURVE",
"247 16 OFFCURVE",
"247 48 CURVE SMOOTH",
"247 60 OFFCURVE",
"247 70 OFFCURVE",
"248 75 CURVE SMOOTH",
"249 79 OFFCURVE",
"249 89 OFFCURVE",
"249 101 CURVE SMOOTH",
"249 142 OFFCURVE",
"246 213 OFFCURVE",
"246 234 CURVE SMOOTH",
"246 254 OFFCURVE",
"244 328 OFFCURVE",
"244 408 CURVE SMOOTH",
"244 438 OFFCURVE",
"244 469 OFFCURVE",
"245 499 CURVE",
"246 607 OFFCURVE",
"254 673 OFFCURVE",
"257 698 CURVE SMOOTH",
"258 712 OFFCURVE",
"259 722 OFFCURVE",
"259 729 CURVE SMOOTH",
"259 736 OFFCURVE",
"254 740 OFFCURVE",
"243 741 CURVE SMOOTH",
"232 742 OFFCURVE",
"223 743 OFFCURVE",
"217 743 CURVE SMOOTH",
"215 743 OFFCURVE",
"213 743 OFFCURVE",
"212 743 CURVE",
"135 743 LINE SMOOTH",
"81 743 OFFCURVE",
"63 747 OFFCURVE",
"48 747 CURVE SMOOTH",
"31 747 OFFCURVE",
"27 743 OFFCURVE",
"27 728 CURVE SMOOTH",
"27 658 LINE SMOOTH",
"27 649 OFFCURVE",
"30 645 OFFCURVE",
"39 645 CURVE SMOOTH",
"41 645 OFFCURVE",
"43 645 OFFCURVE"
);
}
);
width = 312;
}
);
unicode = 005D;
},
{
glyphname = braceleft;
lastChange = "2016-11-01 20:47:46 +0000";
layers = (
{
layerId = "FC508690-ADF2-4DBF-B34D-60B2640A846D";
paths = (
{
closed = 1;
nodes = (
"220 713 CURVE",
"220 755 LINE SMOOTH",
"220 766 OFFCURVE",
"225 778 OFFCURVE",
"206 778 CURVE SMOOTH",
"149 778 OFFCURVE",
"42 730 OFFCURVE",
"42 637 CURVE SMOOTH",
"42 501 OFFCURVE",
"77 487 OFFCURVE",
"77 429 CURVE SMOOTH",
"77 375 OFFCURVE",
"42 357 OFFCURVE",
"30 357 CURVE SMOOTH",
"23 357 OFFCURVE",
"23 350 OFFCURVE",
"23 335 CURVE SMOOTH",
"23 318 OFFCURVE",
"20 313 OFFCURVE",
"20 305 CURVE SMOOTH",
"20 298 OFFCURVE",
"21 293 OFFCURVE",
"34 293 CURVE SMOOTH",
"45 293 OFFCURVE",
"88 274 OFFCURVE",
"88 206 CURVE SMOOTH",
"88 142 OFFCURVE",
"66 81 OFFCURVE",
"66 26 CURVE SMOOTH",
"66 -31 OFFCURVE",
"121 -103 OFFCURVE",
"174 -103 CURVE SMOOTH",
"233 -103 OFFCURVE",
"241 -98 OFFCURVE",
"246 -98 CURVE SMOOTH",
"253 -98 OFFCURVE",
"260 -92 OFFCURVE",
"260 -81 CURVE SMOOTH",
"260 -73 OFFCURVE",
"256 -51 OFFCURVE",
"256 -41 CURVE SMOOTH",
"256 -32 OFFCURVE",
"255 -28 OFFCURVE",
"246 -28 CURVE SMOOTH",
"232 -28 OFFCURVE",
"152 -34 OFFCURVE",
"152 45 CURVE SMOOTH",
"152 124 OFFCURVE",
"166 138 OFFCURVE",
"166 203 CURVE SMOOTH",
"166 248 OFFCURVE",
"150 277 OFFCURVE",
"134 296 CURVE SMOOTH",
"125 307 OFFCURVE",
"114 315 OFFCURVE",
"102 321 CURVE",
"114 330 OFFCURVE",
"125 341 OFFCURVE",
"134 354 CURVE SMOOTH",
"150 377 OFFCURVE",
"166 410 OFFCURVE",
"166 457 CURVE SMOOTH",
"166 551 OFFCURVE",
"124 547 OFFCURVE",
"124 611 CURVE SMOOTH",
"124 679 OFFCURVE",
"164 691 OFFCURVE",
"185 694 CURVE",
"206 694 OFFCURVE",
"220 694 OFFCURVE"
);
}
);
width = 274;
}
);
unicode = 007B;
},
{
glyphname = braceright;
lastChange = "2016-11-01 20:47:46 +0000";
layers = (
{
layerId = "FC508690-ADF2-4DBF-B34D-60B2640A846D";
paths = (
{
closed = 1;
nodes = (
"52 713 CURVE",
"52 673 LINE SMOOTH",
"52 656 OFFCURVE",
"65 656 OFFCURVE",
"85 656 CURVE",
"105 653 OFFCURVE",
"141 643 OFFCURVE",
"141 580 CURVE SMOOTH",
"141 519 OFFCURVE",
"101 523 OFFCURVE",
"101 437 CURVE SMOOTH",
"101 394 OFFCURVE",
"116 363 OFFCURVE",
"131 342 CURVE SMOOTH",
"140 330 OFFCURVE",
"150 320 OFFCURVE",
"161 311 CURVE",
"150 305 OFFCURVE",
"140 297 OFFCURVE",
"131 287 CURVE SMOOTH",
"116 270 OFFCURVE",
"101 242 OFFCURVE",
"101 201 CURVE SMOOTH",
"101 141 OFFCURVE",
"115 128 OFFCURVE",
"115 55 CURVE SMOOTH",
"115 -18 OFFCURVE",
"42 -12 OFFCURVE",
"28 -12 CURVE SMOOTH",
"19 -12 OFFCURVE",
"18 -16 OFFCURVE",
"18 -23 CURVE SMOOTH",
"18 -25 OFFCURVE",
"18 -26 OFFCURVE",
"18 -28 CURVE SMOOTH",
"18 -39 OFFCURVE",
"15 -55 OFFCURVE",
"15 -62 CURVE SMOOTH",
"15 -73 OFFCURVE",
"21 -78 OFFCURVE",
"28 -78 CURVE SMOOTH",
"32 -78 OFFCURVE",
"42 -81 OFFCURVE",
"95 -81 CURVE SMOOTH",
"145 -81 OFFCURVE",
"194 -15 OFFCURVE",
"194 38 CURVE SMOOTH",
"194 89 OFFCURVE",
"175 144 OFFCURVE",
"175 204 CURVE SMOOTH",
"175 268 OFFCURVE",
"213 284 OFFCURVE",
"224 284 CURVE SMOOTH",
"237 284 OFFCURVE",
"238 289 OFFCURVE",
"238 295 CURVE SMOOTH",
"238 295 OFFCURVE",
"238 296 OFFCURVE",
"238 297 CURVE SMOOTH",
"238 305 OFFCURVE",
"234 314 OFFCURVE",
"234 332 CURVE SMOOTH",
"234 340 OFFCURVE",
"233 344 OFFCURVE",
"228 344 CURVE SMOOTH",
"218 344 OFFCURVE",
"185 361 OFFCURVE",
"185 410 CURVE SMOOTH",
"185 463 OFFCURVE",
"218 478 OFFCURVE",
"218 603 CURVE SMOOTH",
"218 690 OFFCURVE",
"118 733 OFFCURVE",
"65 733 CURVE SMOOTH",
"53 733 OFFCURVE",
"52 729 OFFCURVE",
"52 723 CURVE SMOOTH",
"52 720 OFFCURVE",
"52 717 OFFCURVE"
);
}
);
width = 257;
}
);
unicode = 007D;
},
{
glyphname = guilsinglright;
lastChange = "2016-11-01 20:47:46 +0000";
layers = (
{
layerId = "FC508690-ADF2-4DBF-B34D-60B2640A846D";
paths = (
{
closed = 1;
nodes = (
"131 619 CURVE",
"84 619 LINE SMOOTH",
"73 619 OFFCURVE",
"60 618 OFFCURVE",
"55 618 CURVE SMOOTH",
"48 618 OFFCURVE",
"44 616 OFFCURVE",
"44 613 CURVE SMOOTH",
"44 609 OFFCURVE",
"48 604 OFFCURVE",
"55 596 CURVE SMOOTH",
"67 580 OFFCURVE",
"185 419 OFFCURVE",
"201 403 CURVE",
"208 394 OFFCURVE",
"218 379 OFFCURVE",
"229 359 CURVE",
"210 315 OFFCURVE",
"205 313 OFFCURVE",
"181 271 CURVE",
"150 236 OFFCURVE",
"143 219 OFFCURVE",
"123 192 CURVE SMOOTH",
"104 167 OFFCURVE",
"92 136 OFFCURVE",
"85 125 CURVE SMOOTH",
"78 114 OFFCURVE",
"74 104 OFFCURVE",
"74 96 CURVE SMOOTH",
"74 88 OFFCURVE",
"78 82 OFFCURVE",
"88 80 CURVE SMOOTH",
"111 74 OFFCURVE",
"147 75 OFFCURVE",
"172 75 CURVE SMOOTH",
"191 75 OFFCURVE",
"210 77 OFFCURVE",
"224 77 CURVE SMOOTH",
"239 77 OFFCURVE",
"253 87 OFFCURVE",
"257 112 CURVE",
"260 125 OFFCURVE",
"270 154 OFFCURVE",
"278 175 CURVE SMOOTH",
"283 186 OFFCURVE",
"299 215 OFFCURVE",
"327 263 CURVE SMOOTH",
"356 311 OFFCURVE",
"370 342 OFFCURVE",
"371 356 CURVE",
"358 373 OFFCURVE",
"345 387 OFFCURVE",
"334 398 CURVE SMOOTH",
"323 409 OFFCURVE",
"309 426 OFFCURVE",
"291 447 CURVE SMOOTH",
"273 468 OFFCURVE",
"262 482 OFFCURVE",
"259 488 CURVE SMOOTH",
"252 500 OFFCURVE",
"240 522 OFFCURVE",
"225 541 CURVE SMOOTH",
"210 561 OFFCURVE",
"211 573 OFFCURVE",
"203 581 CURVE",
"192 597 OFFCURVE",
"187 620 OFFCURVE",
"176 620 CURVE SMOOTH",
"173 620 OFFCURVE",
"158 620 OFFCURVE"
);
}
);
width = 381;
}
);
unicode = 203A;
},
{
glyphname = guilsinglleft;
lastChange = "2016-11-01 20:47:46 +0000";
layers = (
{
layerId = "FC508690-ADF2-4DBF-B34D-60B2640A846D";
paths = (
{
closed = 1;
nodes = (
"204 74 CURVE",
"238 74 LINE",
"258 75 OFFCURVE",
"271 75 OFFCURVE",
"276 75 CURVE SMOOTH",
"287 75 OFFCURVE",
"300 76 OFFCURVE",
"305 76 CURVE SMOOTH",
"313 76 OFFCURVE",
"316 78 OFFCURVE",
"316 81 CURVE SMOOTH",
"316 85 OFFCURVE",
"313 91 OFFCURVE",
"305 98 CURVE",
"293 114 OFFCURVE",
"175 275 OFFCURVE",
"159 291 CURVE",
"152 300 OFFCURVE",
"142 315 OFFCURVE",
"131 335 CURVE",
"163 377 LINE",
"199 423 LINE",
"230 458 OFFCURVE",
"237 476 OFFCURVE",
"256 501 CURVE SMOOTH",
"276 528 OFFCURVE",
"288 558 OFFCURVE",
"295 569 CURVE SMOOTH",
"302 580 OFFCURVE",
"306 590 OFFCURVE",
"306 598 CURVE SMOOTH",
"306 606 OFFCURVE",
"302 612 OFFCURVE",
"292 614 CURVE SMOOTH",
"269 620 OFFCURVE",
"233 619 OFFCURVE",
"208 619 CURVE SMOOTH",
"189 619 OFFCURVE",
"170 617 OFFCURVE",
"156 617 CURVE SMOOTH",
"141 617 OFFCURVE",
"127 607 OFFCURVE",
"123 582 CURVE",
"120 569 OFFCURVE",
"110 540 OFFCURVE",
"101 519 CURVE SMOOTH",
"97 508 OFFCURVE",
"81 479 OFFCURVE",
"52 431 CURVE SMOOTH",
"24 383 OFFCURVE",
"10 352 OFFCURVE",
"9 338 CURVE",
"22 321 OFFCURVE",
"34 306 OFFCURVE",
"45 295 CURVE SMOOTH",
"56 284 OFFCURVE",
"71 268 OFFCURVE",
"89 247 CURVE SMOOTH",
"107 226 OFFCURVE",
"118 212 OFFCURVE",
"121 206 CURVE SMOOTH",
"128 194 OFFCURVE",
"140 172 OFFCURVE",
"155 152 CURVE SMOOTH",
"170 133 OFFCURVE",
"169 121 OFFCURVE",
"177 113 CURVE",
"188 97 OFFCURVE",
"193 74 OFFCURVE"
);
}
);
width = 366;
}
);
unicode = 2039;
},
{
glyphname = guillemotleft;
lastChange = "2016-11-01 20:47:46 +0000";
layers = (
{
layerId = "FC508690-ADF2-4DBF-B34D-60B2640A846D";
paths = (
{
closed = 1;
nodes = (
"309 298 CURVE",
"353 232 LINE SMOOTH",
"367 212 OFFCURVE",
"382 190 OFFCURVE",
"399 167 CURVE SMOOTH",
"416 144 OFFCURVE",
"427 125 OFFCURVE",
"434 112 CURVE",
"449 78 OFFCURVE",
"455 77 OFFCURVE",
"505 77 CURVE SMOOTH",
"513 77 OFFCURVE",
"522 77 OFFCURVE",
"533 80 CURVE SMOOTH",
"541 82 OFFCURVE",
"545 86 OFFCURVE",
"545 93 CURVE SMOOTH",
"545 101 OFFCURVE",
"539 112 OFFCURVE",
"530 125 CURVE SMOOTH",
"522 136 OFFCURVE",
"487 196 OFFCURVE",
"434 271 CURVE",
"415 290 OFFCURVE",
"400 310 OFFCURVE",
"389 331 CURVE",
"399 360 OFFCURVE",
"412 384 OFFCURVE",
"427 403 CURVE",
"444 417 OFFCURVE",
"536 582 OFFCURVE",
"549 596 CURVE SMOOTH",
"555 603 OFFCURVE",
"558 608 OFFCURVE",
"558 612 CURVE SMOOTH",
"558 616 OFFCURVE",
"554 618 OFFCURVE",
"546 618 CURVE SMOOTH",
"541 618 OFFCURVE",
"528 619 OFFCURVE",
"517 619 CURVE SMOOTH",
"479 619 LINE",
"460 620 OFFCURVE",
"448 620 OFFCURVE",
"445 620 CURVE SMOOTH",
"434 620 OFFCURVE",
"431 597 OFFCURVE",
"423 581 CURVE",
"415 573 OFFCURVE",
"417 561 OFFCURVE",
"405 541 CURVE SMOOTH",
"394 522 OFFCURVE",
"383 500 OFFCURVE",
"378 488 CURVE SMOOTH",
"375 482 OFFCURVE",
"366 468 OFFCURVE",
"351 447 CURVE SMOOTH",
"336 426 OFFCURVE",
"324 409 OFFCURVE",
"314 398 CURVE SMOOTH",
"305 387 OFFCURVE",
"294 373 OFFCURVE",
"283 356 CURVE",
"285 342 OFFCURVE",
"294 323 OFFCURVE"
);
},
{
closed = 1;
nodes = (
"222 74 CURVE",
"256 74 LINE",
"276 75 OFFCURVE",
"289 75 OFFCURVE",
"294 75 CURVE SMOOTH",
"305 75 OFFCURVE",
"318 76 OFFCURVE",
"323 76 CURVE SMOOTH",
"331 76 OFFCURVE",
"334 78 OFFCURVE",
"334 81 CURVE SMOOTH",
"334 85 OFFCURVE",
"331 91 OFFCURVE",
"323 98 CURVE",
"311 114 OFFCURVE",
"193 275 OFFCURVE",
"177 291 CURVE",
"170 300 OFFCURVE",
"160 315 OFFCURVE",
"149 335 CURVE",
"181 377 LINE",
"217 423 LINE",
"248 458 OFFCURVE",
"255 476 OFFCURVE",
"274 501 CURVE SMOOTH",
"294 528 OFFCURVE",
"306 558 OFFCURVE",
"313 569 CURVE SMOOTH",
"320 580 OFFCURVE",
"324 590 OFFCURVE",
"324 598 CURVE SMOOTH",
"324 606 OFFCURVE",
"320 612 OFFCURVE",
"310 614 CURVE SMOOTH",
"287 620 OFFCURVE",
"251 619 OFFCURVE",
"226 619 CURVE SMOOTH",
"207 619 OFFCURVE",
"188 617 OFFCURVE",
"174 617 CURVE SMOOTH",
"159 617 OFFCURVE",
"145 607 OFFCURVE",
"141 582 CURVE",
"138 569 OFFCURVE",
"128 540 OFFCURVE",
"119 519 CURVE SMOOTH",
"115 508 OFFCURVE",
"99 479 OFFCURVE",
"70 431 CURVE SMOOTH",
"42 383 OFFCURVE",
"28 352 OFFCURVE",
"27 338 CURVE",
"40 321 OFFCURVE",
"52 306 OFFCURVE",
"63 295 CURVE SMOOTH",
"74 284 OFFCURVE",
"89 268 OFFCURVE",
"107 247 CURVE SMOOTH",
"125 226 OFFCURVE",
"136 212 OFFCURVE",
"139 206 CURVE SMOOTH",
"146 194 OFFCURVE",
"158 172 OFFCURVE",
"173 152 CURVE SMOOTH",
"188 133 OFFCURVE",
"187 121 OFFCURVE",
"195 113 CURVE",
"206 97 OFFCURVE",
"211 74 OFFCURVE"
);
}
);
width = 616;
}
);
unicode = 00AB;
},
{
glyphname = guillemotright;
lastChange = "2016-11-01 20:47:46 +0000";
layers = (
{
layerId = "FC508690-ADF2-4DBF-B34D-60B2640A846D";
paths = (
{
closed = 1;
nodes = (
"360 619 CURVE",
"323 619 LINE SMOOTH",
"312 619 OFFCURVE",
"299 618 OFFCURVE",
"294 618 CURVE SMOOTH",
"287 618 OFFCURVE",
"283 616 OFFCURVE",
"283 613 CURVE SMOOTH",
"283 609 OFFCURVE",
"287 604 OFFCURVE",
"294 596 CURVE SMOOTH",
"306 580 OFFCURVE",
"424 419 OFFCURVE",
"440 403 CURVE",
"447 394 OFFCURVE",
"457 379 OFFCURVE",
"468 359 CURVE",
"435 316 LINE SMOOTH",
"428 306 OFFCURVE",
"416 291 OFFCURVE",
"400 271 CURVE",
"369 236 OFFCURVE",
"362 219 OFFCURVE",
"342 192 CURVE SMOOTH",
"323 167 OFFCURVE",
"311 136 OFFCURVE",
"304 125 CURVE SMOOTH",
"297 114 OFFCURVE",
"293 104 OFFCURVE",
"293 96 CURVE SMOOTH",
"293 88 OFFCURVE",
"297 82 OFFCURVE",
"307 80 CURVE SMOOTH",
"330 74 OFFCURVE",
"366 75 OFFCURVE",
"391 75 CURVE SMOOTH",
"410 75 OFFCURVE",
"429 77 OFFCURVE",
"443 77 CURVE SMOOTH",
"458 77 OFFCURVE",
"472 87 OFFCURVE",
"476 112 CURVE",
"479 125 OFFCURVE",
"489 154 OFFCURVE",
"497 175 CURVE SMOOTH",
"502 186 OFFCURVE",
"518 215 OFFCURVE",
"546 263 CURVE SMOOTH",
"575 311 OFFCURVE",
"589 342 OFFCURVE",
"590 356 CURVE",
"577 373 OFFCURVE",
"564 387 OFFCURVE",
"553 398 CURVE SMOOTH",
"542 409 OFFCURVE",
"528 426 OFFCURVE",
"510 447 CURVE SMOOTH",
"492 468 OFFCURVE",
"481 482 OFFCURVE",
"478 488 CURVE SMOOTH",
"471 500 OFFCURVE",
"459 522 OFFCURVE",
"444 541 CURVE SMOOTH",
"429 561 OFFCURVE",
"430 573 OFFCURVE",
"422 581 CURVE",
"411 597 OFFCURVE",
"406 620 OFFCURVE",
"395 620 CURVE SMOOTH",
"392 620 OFFCURVE",
"380 620 OFFCURVE"
);
},
{
closed = 1;
nodes = (
"137 74 CURVE",
"172 74 LINE SMOOTH",
"183 74 OFFCURVE",
"186 97 OFFCURVE",
"194 113 CURVE",
"202 121 OFFCURVE",
"200 133 OFFCURVE",
"211 152 CURVE SMOOTH",
"223 172 OFFCURVE",
"234 194 OFFCURVE",
"239 206 CURVE SMOOTH",
"242 212 OFFCURVE",
"250 226 OFFCURVE",
"265 247 CURVE SMOOTH",
"280 268 OFFCURVE",
"293 284 OFFCURVE",
"302 295 CURVE SMOOTH",
"312 306 OFFCURVE",
"323 321 OFFCURVE",
"334 338 CURVE",
"332 352 OFFCURVE",
"323 371 OFFCURVE",
"307 395 CURVE",
"292 420 OFFCURVE",
"277 442 OFFCURVE",
"263 462 CURVE SMOOTH",
"250 482 OFFCURVE",
"235 504 OFFCURVE",
"218 527 CURVE SMOOTH",
"201 550 OFFCURVE",
"190 569 OFFCURVE",
"183 582 CURVE",
"168 616 OFFCURVE",
"162 617 OFFCURVE",
"112 617 CURVE SMOOTH",
"104 617 OFFCURVE",
"95 617 OFFCURVE",
"84 614 CURVE SMOOTH",
"76 612 OFFCURVE",
"72 608 OFFCURVE",
"72 601 CURVE SMOOTH",
"72 593 OFFCURVE",
"78 582 OFFCURVE",
"87 569 CURVE SMOOTH",
"95 558 OFFCURVE",
"130 498 OFFCURVE",
"183 423 CURVE",
"202 404 OFFCURVE",
"217 384 OFFCURVE",
"228 363 CURVE",
"218 334 OFFCURVE",
"205 310 OFFCURVE",
"190 291 CURVE",
"173 277 OFFCURVE",
"81 112 OFFCURVE",
"68 98 CURVE SMOOTH",
"62 91 OFFCURVE",
"59 86 OFFCURVE",
"59 82 CURVE SMOOTH",
"59 78 OFFCURVE",
"63 76 OFFCURVE",
"71 76 CURVE SMOOTH",
"76 76 OFFCURVE",
"89 75 OFFCURVE",
"100 75 CURVE SMOOTH",
"105 75 OFFCURVE",
"118 75 OFFCURVE"
);
}
);
width = 616;
}
);
unicode = 00BB;
},
{
glyphname = quoteleft;
lastChange = "2016-11-08 16:48:38 +0000";
layers = (
{
layerId = "FC508690-ADF2-4DBF-B34D-60B2640A846D";
paths = (
{
closed = 1;
nodes = (
"136 582 CURVE SMOOTH",
"127 585 OFFCURVE",
"120 592 OFFCURVE",
"120 616 CURVE SMOOTH",
"120 624 OFFCURVE",
"120 633 OFFCURVE",
"122 645 CURVE SMOOTH",
"129 685 OFFCURVE",
"160 701 OFFCURVE",
"163 718 CURVE",
"163 723 OFFCURVE",
"145 730 OFFCURVE",
"126 741 CURVE SMOOTH",
"122 744 OFFCURVE",
"117 746 OFFCURVE",
"113 746 CURVE SMOOTH",
"109 746 OFFCURVE",
"106 744 OFFCURVE",
"102 741 CURVE",
"79 708 OFFCURVE",
"61 675 OFFCURVE",
"48 641 CURVE",
"33 597 OFFCURVE",
"35 552 OFFCURVE",
"35 520 CURVE",
"42 461 OFFCURVE",
"77 446 OFFCURVE",
"113 446 CURVE SMOOTH",
"147 446 OFFCURVE",
"184 470 OFFCURVE",
"184 499 CURVE SMOOTH",
"184 538 OFFCURVE",
"182 568 OFFCURVE"
);
}
);
width = 212;
}
);
leftKerningGroup = quotedbl;
rightKerningGroup = quotedbl;
unicode = 2018;
},
{
glyphname = quoteright;
lastChange = "2016-11-08 16:48:38 +0000";
layers = (
{
layerId = "FC508690-ADF2-4DBF-B34D-60B2640A846D";
paths = (
{
closed = 1;
nodes = (
"73 620 CURVE SMOOTH",
"88 612 OFFCURVE",
"96 604 OFFCURVE",
"96 581 CURVE SMOOTH",
"96 573 OFFCURVE",
"95 563 OFFCURVE",
"93 551 CURVE SMOOTH",
"84 512 OFFCURVE",
"55 492 OFFCURVE",
"53 477 CURVE",
"54 474 OFFCURVE",
"76 449 OFFCURVE",
"92 449 CURVE SMOOTH",
"95 449 OFFCURVE",
"98 450 OFFCURVE",
"100 453 CURVE SMOOTH",
"123 486 OFFCURVE",
"140 520 OFFCURVE",
"153 554 CURVE",
"168 599 OFFCURVE",
"166 645 OFFCURVE",
"166 677 CURVE",
"159 737 OFFCURVE",
"124 752 OFFCURVE",
"91 752 CURVE SMOOTH",
"57 752 OFFCURVE",
"21 727 OFFCURVE",
"21 698 CURVE SMOOTH",
"21 680 OFFCURVE",
"23 666 OFFCURVE",
"28 656 CURVE SMOOTH",
"33 646 OFFCURVE",
"48 634 OFFCURVE"
);
}
);
width = 199;
}
);
leftKerningGroup = quotedbl;
rightKerningGroup = quotedbl;
unicode = 2019;
},
{
glyphname = quotedblleft;
lastChange = "2016-11-08 16:48:38 +0000";
layers = (
{
layerId = "FC508690-ADF2-4DBF-B34D-60B2640A846D";
paths = (
{
closed = 1;
nodes = (
"367 575 CURVE",
"348 578 OFFCURVE",
"336 583 OFFCURVE",
"332 590 CURVE SMOOTH",
"331 593 OFFCURVE",
"330 599 OFFCURVE",
"330 607 CURVE SMOOTH",
"330 618 OFFCURVE",
"331 632 OFFCURVE",
"334 650 CURVE",
"349 688 OFFCURVE",
"374 708 OFFCURVE",
"378 724 CURVE",
"377 726 OFFCURVE",
"355 752 OFFCURVE",
"339 752 CURVE SMOOTH",
"336 752 OFFCURVE",
"333 751 OFFCURVE",
"331 748 CURVE SMOOTH",
"308 714 OFFCURVE",
"289 680 OFFCURVE",
"273 645 CURVE",
"258 600 OFFCURVE",
"260 553 OFFCURVE",
"260 520 CURVE",
"263 463 OFFCURVE",
"289 452 OFFCURVE",
"329 445 CURVE",
"373 443 OFFCURVE",
"405 458 OFFCURVE",
"407 506 CURVE",
"407 546 OFFCURVE",
"403 564 OFFCURVE"
);
},
{
closed = 1;
nodes = (
"150 584 CURVE SMOOTH",
"141 587 OFFCURVE",
"134 595 OFFCURVE",
"134 619 CURVE SMOOTH",
"134 627 OFFCURVE",
"134 637 OFFCURVE",
"136 649 CURVE SMOOTH",
"145 688 OFFCURVE",
"174 708 OFFCURVE",
"176 724 CURVE SMOOTH",
"176 729 OFFCURVE",
"159 736 OFFCURVE",
"140 748 CURVE SMOOTH",
"136 751 OFFCURVE",
"131 753 OFFCURVE",
"128 753 CURVE SMOOTH",
"124 753 OFFCURVE",
"121 751 OFFCURVE",
"118 748 CURVE",
"95 714 OFFCURVE",
"78 680 OFFCURVE",
"65 645 CURVE",
"50 600 OFFCURVE",
"52 553 OFFCURVE",
"52 520 CURVE",
"59 460 OFFCURVE",
"94 444 OFFCURVE",
"127 444 CURVE SMOOTH",
"161 444 OFFCURVE",
"197 468 OFFCURVE",
"197 499 CURVE SMOOTH",
"197 538 OFFCURVE",
"195 570 OFFCURVE"
);
}
);
width = 453;
}
);
leftKerningGroup = quotedbl;
rightKerningGroup = quotedbl;
unicode = 201C;
},
{
glyphname = quotedblright;
lastChange = "2016-11-08 16:48:38 +0000";
layers = (
{
layerId = "FC508690-ADF2-4DBF-B34D-60B2640A846D";
paths = (
{
closed = 1;
nodes = (
"79 623 CURVE",
"101 616 OFFCURVE",
"112 610 OFFCURVE",
"113 604 CURVE SMOOTH",
"114 598 OFFCURVE",
"113 583 OFFCURVE",
"110 559 CURVE",
"101 520 OFFCURVE",
"72 500 OFFCURVE",
"70 485 CURVE",
"73 479 OFFCURVE",
"101 448 OFFCURVE",
"116 448 CURVE SMOOTH",
"120 448 OFFCURVE",
"122 450 OFFCURVE",
"124 453 CURVE SMOOTH",
"147 486 OFFCURVE",
"164 520 OFFCURVE",
"177 555 CURVE SMOOTH",
"187 585 OFFCURVE",
"190 613 OFFCURVE",
"190 643 CURVE SMOOTH",
"190 658 OFFCURVE",
"189 675 OFFCURVE",
"188 692 CURVE SMOOTH",
"184 733 OFFCURVE",
"157 753 OFFCURVE",
"125 754 CURVE",
"85 751 OFFCURVE",
"59 748 OFFCURVE",
"45 699 CURVE",
"44 655 OFFCURVE",
"50 638 OFFCURVE"
);
},
{
closed = 1;
nodes = (
"293 615 CURVE",
"302 613 OFFCURVE",
"309 605 OFFCURVE",
"309 580 CURVE SMOOTH",
"309 512 OFFCURVE",
"276 497 OFFCURVE",
"272 477 CURVE",
"268 471 OFFCURVE",
"295 447 OFFCURVE",
"316 447 CURVE SMOOTH",
"321 447 OFFCURVE",
"326 449 OFFCURVE",
"330 453 CURVE",
"353 486 OFFCURVE",
"370 521 OFFCURVE",
"381 556 CURVE",
"398 600 OFFCURVE",
"396 646 OFFCURVE",
"396 678 CURVE",
"389 738 OFFCURVE",
"354 754 OFFCURVE",
"321 754 CURVE SMOOTH",
"287 754 OFFCURVE",
"251 730 OFFCURVE",
"251 699 CURVE",
"253 693 OFFCURVE",
"253 686 OFFCURVE",
"253 679 CURVE SMOOTH",
"253 658 OFFCURVE",
"253 636 OFFCURVE"
);
}
);
width = 446;
}
);
leftKerningGroup = quotedbl;
rightKerningGroup = quotedbl;
unicode = 201D;
},
{
glyphname = quotesinglbase;
lastChange = "2016-11-01 20:47:46 +0000";
layers = (
{
layerId = "FC508690-ADF2-4DBF-B34D-60B2640A846D";
paths = (
{
closed = 1;
nodes = (
"74 -8 CURVE",
"87 -14 OFFCURVE",
"94 -21 OFFCURVE",
"94 -36 CURVE SMOOTH",
"94 -43 OFFCURVE",
"92 -53 OFFCURVE",
"88 -65 CURVE",
"78 -104 OFFCURVE",
"55 -108 OFFCURVE",
"48 -139 CURVE",
"63 -142 OFFCURVE",
"80 -167 OFFCURVE",
"95 -167 CURVE SMOOTH",
"98 -167 OFFCURVE",
"101 -166 OFFCURVE",
"104 -163 CURVE SMOOTH",
"127 -130 OFFCURVE",
"144 -96 OFFCURVE",
"157 -62 CURVE",
"172 -17 OFFCURVE",
"170 29 OFFCURVE",
"170 61 CURVE",
"163 121 OFFCURVE",
"128 136 OFFCURVE",
"95 136 CURVE SMOOTH",
"61 136 OFFCURVE",
"25 111 OFFCURVE",
"25 82 CURVE SMOOTH",
"25 64 OFFCURVE",
"27 48 OFFCURVE",
"30 34 CURVE SMOOTH",
"34 20 OFFCURVE",
"49 6 OFFCURVE"
);
}
);
width = 203;
}
);
unicode = 201A;
},
{
glyphname = quotedblbase;
lastChange = "2016-11-08 16:48:55 +0000";
layers = (
{
layerId = "FC508690-ADF2-4DBF-B34D-60B2640A846D";
paths = (
{
closed = 1;
nodes = (
"94 -8 CURVE",
"107 -14 OFFCURVE",
"114 -21 OFFCURVE",
"114 -36 CURVE SMOOTH",
"114 -43 OFFCURVE",
"112 -53 OFFCURVE",
"108 -65 CURVE",
"98 -104 OFFCURVE",
"75 -108 OFFCURVE",
"68 -139 CURVE",
"83 -142 OFFCURVE",
"100 -167 OFFCURVE",
"115 -167 CURVE SMOOTH",
"118 -167 OFFCURVE",
"121 -166 OFFCURVE",
"124 -163 CURVE SMOOTH",
"147 -130 OFFCURVE",
"164 -96 OFFCURVE",
"177 -62 CURVE",
"192 -17 OFFCURVE",
"190 29 OFFCURVE",
"190 61 CURVE",
"183 121 OFFCURVE",
"148 136 OFFCURVE",
"115 136 CURVE SMOOTH",
"81 136 OFFCURVE",
"45 111 OFFCURVE",
"45 82 CURVE SMOOTH",
"45 64 OFFCURVE",
"47 48 OFFCURVE",
"50 34 CURVE SMOOTH",
"54 20 OFFCURVE",
"69 6 OFFCURVE"
);
},
{
closed = 1;
nodes = (
"290 -8 CURVE",
"304 -14 OFFCURVE",
"316 -21 OFFCURVE",
"316 -38 CURVE SMOOTH",
"316 -45 OFFCURVE",
"314 -54 OFFCURVE",
"309 -66 CURVE",
"291 -102 OFFCURVE",
"269 -111 OFFCURVE",
"272 -134 CURVE",
"284 -151 OFFCURVE",
"290 -157 OFFCURVE",
"302 -165 CURVE SMOOTH",
"305 -167 OFFCURVE",
"308 -168 OFFCURVE",
"311 -168 CURVE SMOOTH",
"314 -168 OFFCURVE",
"317 -166 OFFCURVE",
"320 -163 CURVE SMOOTH",
"343 -135 OFFCURVE",
"363 -102 OFFCURVE",
"380 -63 CURVE",
"387 -36 OFFCURVE",
"392 -12 OFFCURVE",
"392 14 CURVE SMOOTH",
"392 35 OFFCURVE",
"389 56 OFFCURVE",
"382 81 CURVE",
"363 134 OFFCURVE",
"344 136 OFFCURVE",
"311 136 CURVE SMOOTH",
"277 136 OFFCURVE",
"241 111 OFFCURVE",
"241 82 CURVE SMOOTH",
"241 64 OFFCURVE",
"243 48 OFFCURVE",
"246 34 CURVE SMOOTH",
"250 20 OFFCURVE",
"265 6 OFFCURVE"
);
}
);
width = 441;
}
);
leftKerningGroup = period;
unicode = 201E;
},
{
glyphname = quotesingle.loclGUA;
lastChange = "2016-11-08 16:49:00 +0000";
layers = (
{
layerId = "FC508690-ADF2-4DBF-B34D-60B2640A846D";
paths = (
{
closed = 1;
nodes = (
"134 746 CURVE",
"66 746 LINE SMOOTH",
"49 746 OFFCURVE",
"40 736 OFFCURVE",
"39 716 CURVE",
"39 655 LINE",
"36 564 LINE",
"36 428 LINE",
"35 424 OFFCURVE",
"35 420 OFFCURVE",
"35 416 CURVE SMOOTH",
"35 407 OFFCURVE",
"38 400 OFFCURVE",
"47 397 CURVE",
"56 396 OFFCURVE",
"67 395 OFFCURVE",
"77 395 CURVE SMOOTH",
"90 395 OFFCURVE",
"102 396 OFFCURVE",
"109 399 CURVE SMOOTH",
"117 402 OFFCURVE",
"120 428 OFFCURVE",
"120 439 CURVE SMOOTH",
"120 448 OFFCURVE",
"131 550 OFFCURVE",
"131 585 CURVE",
"134 621 OFFCURVE",
"138 650 OFFCURVE",
"141 671 CURVE",
"141 686 OFFCURVE",
"142 702 OFFCURVE",
"146 719 CURVE",
"146 740 OFFCURVE",
"142 746 OFFCURVE"
);
}
);
width = 169;
}
);
leftKerningGroup = quotedbl;
rightKerningGroup = quotedbl;
},
{
glyphname = slash;
lastChange = "2016-11-01 20:47:46 +0000";
layers = (
{
layerId = "FC508690-ADF2-4DBF-B34D-60B2640A846D";
paths = (
{
closed = 1;
nodes = (
"322 709 CURVE SMOOTH",
"313 712 OFFCURVE",
"285 713 OFFCURVE",
"276 713 CURVE",
"265 709 OFFCURVE",
"251 685 OFFCURVE",
"243 660 CURVE",
"237 634 OFFCURVE",
"216 560 OFFCURVE",
"197 520 CURVE",
"184 483 OFFCURVE",
"119 309 OFFCURVE",
"97 244 CURVE",
"79 176 OFFCURVE",
"28 46 OFFCURVE",
"18 15 CURVE",
"5 -15 OFFCURVE",
"12 -4 OFFCURVE",
"4 -14 CURVE",
"3 -18 OFFCURVE",
"2 -21 OFFCURVE",
"2 -24 CURVE SMOOTH",
"2 -29 OFFCURVE",
"5 -32 OFFCURVE",
"18 -35 CURVE SMOOTH",
"26 -37 OFFCURVE",
"35 -39 OFFCURVE",
"45 -39 CURVE SMOOTH",
"54 -39 OFFCURVE",
"63 -37 OFFCURVE",
"68 -31 CURVE",
"79 -24 OFFCURVE",
"86 -22 OFFCURVE",
"90 1 CURVE SMOOTH",
"93 23 OFFCURVE",
"155 190 OFFCURVE",
"168 226 CURVE",
"184 261 OFFCURVE",
"232 419 OFFCURVE",
"251 470 CURVE",
"264 520 OFFCURVE",
"307 624 OFFCURVE",
"315 645 CURVE SMOOTH",
"322 661 OFFCURVE",
"327 682 OFFCURVE",
"327 695 CURVE SMOOTH",
"327 703 OFFCURVE",
"326 708 OFFCURVE"
);
}
);
width = 329;
}
);
unicode = 002F;
},
{
glyphname = backslash;
lastChange = "2016-11-01 20:47:46 +0000";
layers = (
{
layerId = "FC508690-ADF2-4DBF-B34D-60B2640A846D";
paths = (
{
closed = 1;
nodes = (
"7 725 CURVE SMOOTH",
"3 724 OFFCURVE",
"2 719 OFFCURVE",
"2 711 CURVE SMOOTH",
"2 698 OFFCURVE",
"7 677 OFFCURVE",
"14 661 CURVE SMOOTH",
"22 640 OFFCURVE",
"65 536 OFFCURVE",
"78 486 CURVE",
"97 435 OFFCURVE",
"145 277 OFFCURVE",
"161 242 CURVE",
"174 205 OFFCURVE",
"234 38 OFFCURVE",
"239 17 CURVE",
"243 -6 OFFCURVE",
"250 -8 OFFCURVE",
"261 -15 CURVE",
"267 -21 OFFCURVE",
"275 -23 OFFCURVE",
"285 -23 CURVE SMOOTH",
"294 -23 OFFCURVE",
"304 -21 OFFCURVE",
"311 -19 CURVE SMOOTH",
"324 -16 OFFCURVE",
"327 -13 OFFCURVE",
"327 -8 CURVE SMOOTH",
"327 -5 OFFCURVE",
"326 -2 OFFCURVE",
"325 2 CURVE",
"317 12 OFFCURVE",
"324 1 OFFCURVE",
"311 31 CURVE",
"301 62 OFFCURVE",
"250 192 OFFCURVE",
"232 260 CURVE",
"210 325 OFFCURVE",
"145 499 OFFCURVE",
"132 536 CURVE",
"114 575 OFFCURVE",
"89 651 OFFCURVE",
"86 676 CURVE",
"78 701 OFFCURVE",
"64 725 OFFCURVE",
"53 729 CURVE",
"44 729 OFFCURVE",
"16 728 OFFCURVE"
);
}
);
width = 328;
}
);
unicode = 005C;
},
{
glyphname = bar;
lastChange = "2016-11-01 20:47:46 +0000";
layers = (
{
layerId = "FC508690-ADF2-4DBF-B34D-60B2640A846D";
paths = (
{
closed = 1;
nodes = (
"146 -80 LINE",
"148 -35 LINE SMOOTH",
"149 -12 OFFCURVE",
"150 17 OFFCURVE",
"150 32 CURVE SMOOTH",
"150 61 OFFCURVE",
"154 235 OFFCURVE",
"154 266 CURVE SMOOTH",
"154 299 OFFCURVE",
"166 516 OFFCURVE",
"166 561 CURVE SMOOTH",
"166 604 OFFCURVE",
"175 646 OFFCURVE",
"172 666 CURVE",
"171 687 OFFCURVE",
"170 706 OFFCURVE",
"149 705 CURVE",
"90 705 LINE",
"75 706 OFFCURVE",
"60 705 OFFCURVE",
"61 681 CURVE SMOOTH",
"61 664 OFFCURVE",
"63 612 OFFCURVE",
"63 577 CURVE SMOOTH",
"63 564 OFFCURVE",
"63 553 OFFCURVE",
"62 547 CURVE SMOOTH",
"61 543 OFFCURVE",
"61 533 OFFCURVE",
"61 519 CURVE SMOOTH",
"61 475 OFFCURVE",
"64 396 OFFCURVE",
"64 374 CURVE SMOOTH",
"64 351 OFFCURVE",
"66 273 OFFCURVE",
"66 185 CURVE SMOOTH",
"66 153 OFFCURVE",
"66 119 OFFCURVE",
"65 86 CURVE",
"64 -31 OFFCURVE",
"56 -102 OFFCURVE",
"53 -130 CURVE SMOOTH",
"52 -142 OFFCURVE",
"50 -151 OFFCURVE",
"50 -158 CURVE SMOOTH",
"50 -170 OFFCURVE",
"54 -176 OFFCURVE",
"71 -178 CURVE SMOOTH",
"86 -179 OFFCURVE",
"102 -180 OFFCURVE",
"119 -179 CURVE",
"131 -181 OFFCURVE",
"146 -182 OFFCURVE",
"146 -132 CURVE SMOOTH"
);
}
);
width = 206;
}
);
unicode = 007C;
},
{
glyphname = brokenbar;
lastChange = "2016-11-01 20:47:46 +0000";
layers = (
{
layerId = "FC508690-ADF2-4DBF-B34D-60B2640A846D";
paths = (
{
closed = 1;
nodes = (
"63 694 CURVE",
"63 549 LINE SMOOTH",
"63 496 OFFCURVE",
"63 461 OFFCURVE",
"64 446 CURVE SMOOTH",
"65 431 OFFCURVE",
"66 420 OFFCURVE",
"66 411 CURVE SMOOTH",
"66 335 LINE",
"65 329 OFFCURVE",
"64 325 OFFCURVE",
"64 321 CURVE SMOOTH",
"64 313 OFFCURVE",
"67 309 OFFCURVE",
"72 309 CURVE",
"74 308 OFFCURVE",
"77 308 OFFCURVE",
"80 308 CURVE SMOOTH",
"95 308 OFFCURVE",
"117 313 OFFCURVE",
"133 313 CURVE SMOOTH",
"145 313 OFFCURVE",
"152 308 OFFCURVE",
"152 332 CURVE SMOOTH",
"152 343 OFFCURVE",
"156 370 OFFCURVE",
"156 395 CURVE SMOOTH",
"156 408 OFFCURVE",
"155 420 OFFCURVE",
"152 429 CURVE",
"152 440 OFFCURVE",
"151 457 OFFCURVE",
"150 517 CURVE SMOOTH",
"150 577 OFFCURVE",
"149 591 OFFCURVE",
"149 606 CURVE SMOOTH",
"149 631 OFFCURVE",
"145 669 OFFCURVE",
"145 678 CURVE SMOOTH",
"145 684 OFFCURVE",
"146 689 OFFCURVE",
"146 694 CURVE SMOOTH",
"146 700 OFFCURVE",
"144 704 OFFCURVE",
"137 704 CURVE SMOOTH",
"84 704 LINE SMOOTH",
"81 704 OFFCURVE",
"77 705 OFFCURVE",
"73 705 CURVE SMOOTH",
"68 705 OFFCURVE",
"63 703 OFFCURVE"
);
},
{
closed = 1;
nodes = (
"60 204 CURVE",
"60 59 LINE SMOOTH",
"60 6 OFFCURVE",
"60 -28 OFFCURVE",
"61 -43 CURVE SMOOTH",
"62 -58 OFFCURVE",
"63 -70 OFFCURVE",
"63 -79 CURVE SMOOTH",
"63 -155 LINE",
"62 -161 OFFCURVE",
"61 -165 OFFCURVE",
"61 -169 CURVE SMOOTH",
"61 -177 OFFCURVE",
"64 -181 OFFCURVE",
"69 -181 CURVE",
"76 -184 OFFCURVE",
"126 -177 OFFCURVE",
"140 -177 CURVE SMOOTH",
"152 -177 OFFCURVE",
"159 -182 OFFCURVE",
"159 -158 CURVE SMOOTH",
"159 -147 OFFCURVE",
"163 -120 OFFCURVE",
"163 -95 CURVE SMOOTH",
"163 -82 OFFCURVE",
"162 -70 OFFCURVE",
"159 -61 CURVE",
"159 -50 OFFCURVE",
"158 -33 OFFCURVE",
"157 27 CURVE SMOOTH",
"157 87 OFFCURVE",
"156 101 OFFCURVE",
"156 116 CURVE SMOOTH",
"156 141 OFFCURVE",
"152 179 OFFCURVE",
"152 188 CURVE SMOOTH",
"152 194 OFFCURVE",
"153 199 OFFCURVE",
"153 204 CURVE SMOOTH",
"153 210 OFFCURVE",
"151 214 OFFCURVE",
"144 214 CURVE SMOOTH",
"81 214 LINE SMOOTH",
"78 214 OFFCURVE",
"74 215 OFFCURVE",
"70 215 CURVE SMOOTH",
"65 215 OFFCURVE",
"60 213 OFFCURVE"
);
}
);
width = 210;
}
);
unicode = 00A6;
},
{
glyphname = hyphen;
lastChange = "2016-11-09 20:28:32 +0000";
layers = (
{
layerId = "FC508690-ADF2-4DBF-B34D-60B2640A846D";
paths = (
{
closed = 1;
nodes = (
"430 317 CURVE",
"290 317 LINE SMOOTH",
"239 317 OFFCURVE",
"207 316 OFFCURVE",
"192 315 CURVE SMOOTH",
"178 314 OFFCURVE",
"167 314 OFFCURVE",
"158 314 CURVE SMOOTH",
"86 314 LINE",
"80 315 OFFCURVE",
"75 316 OFFCURVE",
"71 316 CURVE SMOOTH",
"64 316 OFFCURVE",
"60 314 OFFCURVE",
"60 310 CURVE",
"57 303 OFFCURVE",
"64 263 OFFCURVE",
"64 251 CURVE SMOOTH",
"64 240 OFFCURVE",
"59 235 OFFCURVE",
"82 235 CURVE SMOOTH",
"93 235 OFFCURVE",
"118 233 OFFCURVE",
"142 233 CURVE SMOOTH",
"154 233 OFFCURVE",
"166 233 OFFCURVE",
"175 235 CURVE",
"186 235 OFFCURVE",
"202 236 OFFCURVE",
"259 236 CURVE SMOOTH",
"318 237 OFFCURVE",
"332 238 OFFCURVE",
"345 238 CURVE SMOOTH",
"370 238 OFFCURVE",
"405 241 OFFCURVE",
"413 241 CURVE SMOOTH",
"418 241 OFFCURVE",
"424 240 OFFCURVE",
"428 240 CURVE SMOOTH",
"435 240 OFFCURVE",
"439 242 OFFCURVE",
"439 248 CURVE SMOOTH",
"439 300 LINE SMOOTH",
"439 307 OFFCURVE",
"443 317 OFFCURVE"
);
}
);
width = 500;
}
);
leftKerningGroup = hyphen;
unicode = 002D;
},
{
glyphname = softhyphen;
lastChange = "2016-11-09 01:57:06 +0000";
layers = (
{
layerId = "FC508690-ADF2-4DBF-B34D-60B2640A846D";
paths = (
{
closed = 1;
nodes = (
"430 317 CURVE",
"290 317 LINE SMOOTH",
"239 317 OFFCURVE",
"207 316 OFFCURVE",
"192 315 CURVE SMOOTH",
"178 314 OFFCURVE",
"167 314 OFFCURVE",
"158 314 CURVE SMOOTH",
"86 314 LINE",
"80 315 OFFCURVE",
"75 316 OFFCURVE",
"71 316 CURVE SMOOTH",
"64 316 OFFCURVE",
"60 314 OFFCURVE",
"60 310 CURVE",
"57 303 OFFCURVE",
"64 263 OFFCURVE",
"64 251 CURVE SMOOTH",
"64 240 OFFCURVE",
"59 235 OFFCURVE",
"82 235 CURVE SMOOTH",
"93 235 OFFCURVE",
"118 233 OFFCURVE",
"142 233 CURVE SMOOTH",
"154 233 OFFCURVE",
"166 233 OFFCURVE",
"175 235 CURVE",
"186 235 OFFCURVE",
"202 236 OFFCURVE",
"259 236 CURVE SMOOTH",
"318 237 OFFCURVE",
"332 238 OFFCURVE",
"345 238 CURVE SMOOTH",
"370 238 OFFCURVE",
"405 241 OFFCURVE",
"413 241 CURVE SMOOTH",
"418 241 OFFCURVE",
"424 240 OFFCURVE",
"428 240 CURVE SMOOTH",
"435 240 OFFCURVE",
"439 242 OFFCURVE",
"439 248 CURVE SMOOTH",
"439 300 LINE SMOOTH",
"439 307 OFFCURVE",
"443 317 OFFCURVE"
);
}
);
width = 500;
}
);
leftKerningGroup = hyphen;
unicode = 00AD;
},
{
glyphname = underscore;
lastChange = "2016-11-09 01:57:16 +0000";
layers = (
{
layerId = "FC508690-ADF2-4DBF-B34D-60B2640A846D";
paths = (
{
closed = 1;
nodes = (
"445 -22 CURVE",
"404 -22 LINE",
"207 -23 LINE",
"97 -23 LINE SMOOTH",
"78 -23 OFFCURVE",
"68 -30 OFFCURVE",
"68 -45 CURVE SMOOTH",
"68 -74 LINE SMOOTH",
"68 -77 OFFCURVE",
"67 -82 OFFCURVE",
"67 -87 CURVE SMOOTH",
"67 -96 OFFCURVE",
"70 -105 OFFCURVE",
"89 -105 CURVE",
"148 -101 LINE",
"181 -100 OFFCURVE",
"219 -97 OFFCURVE",
"242 -97 CURVE SMOOTH",
"255 -97 OFFCURVE",
"272 -97 OFFCURVE",
"291 -97 CURVE SMOOTH",
"342 -97 OFFCURVE",
"409 -96 OFFCURVE",
"441 -95 CURVE SMOOTH",
"459 -95 OFFCURVE",
"477 -101 OFFCURVE",
"488 -101 CURVE SMOOTH",
"494 -101 OFFCURVE",
"499 -99 OFFCURVE",
"501 -94 CURVE",
"504 -78 OFFCURVE",
"503 -56 OFFCURVE",
"503 -45 CURVE SMOOTH",
"503 -34 OFFCURVE",
"500 -23 OFFCURVE",
"477 -23 CURVE",
"466 -22 OFFCURVE",
"455 -22 OFFCURVE"
);
}
);
width = 565;
}
);
leftKerningGroup = period;
unicode = 005F;
},
{
glyphname = endash;
lastChange = "2016-11-09 01:57:06 +0000";
layers = (
{
layerId = "FC508690-ADF2-4DBF-B34D-60B2640A846D";
paths = (
{
closed = 1;
nodes = (
"489 408 CURVE",
"94 408 LINE SMOOTH",
"73 408 OFFCURVE",
"68 400 OFFCURVE",
"68 384 CURVE SMOOTH",
"68 334 LINE SMOOTH",
"68 325 OFFCURVE",
"67 317 OFFCURVE",
"86 317 CURVE",
"102 320 OFFCURVE",
"184 321 OFFCURVE",
"206 321 CURVE SMOOTH",
"298 321 LINE SMOOTH",
"341 321 OFFCURVE",
"371 320 OFFCURVE",
"388 319 CURVE SMOOTH",
"439 317 LINE",
"480 317 LINE SMOOTH",
"523 317 OFFCURVE",
"531 321 OFFCURVE",
"531 334 CURVE SMOOTH",
"531 388 LINE SMOOTH",
"531 401 OFFCURVE",
"532 411 OFFCURVE"
);
}
);
width = 597;
}
);
leftKerningGroup = hyphen;
unicode = 2013;
},
{
glyphname = emdash;
lastChange = "2016-11-09 01:57:06 +0000";
layers = (
{
layerId = "FC508690-ADF2-4DBF-B34D-60B2640A846D";
paths = (
{
closed = 1;
nodes = (
"582 374 CURVE",
"93 374 LINE SMOOTH",
"72 374 OFFCURVE",
"67 366 OFFCURVE",
"67 350 CURVE SMOOTH",
"67 333 LINE SMOOTH",
"67 324 OFFCURVE",
"66 316 OFFCURVE",
"85 316 CURVE",
"101 319 OFFCURVE",
"183 320 OFFCURVE",
"205 320 CURVE SMOOTH",
"357 320 LINE SMOOTH",
"423 320 OFFCURVE",
"464 319 OFFCURVE",
"481 318 CURVE SMOOTH",
"532 316 LINE",
"573 316 LINE SMOOTH",
"616 316 OFFCURVE",
"624 320 OFFCURVE",
"624 333 CURVE SMOOTH",
"624 354 LINE SMOOTH",
"624 367 OFFCURVE",
"625 377 OFFCURVE"
);
}
);
width = 690;
}
);
leftKerningGroup = hyphen;
unicode = 2014;
},
{
glyphname = bullet;
lastChange = "2016-11-01 20:47:46 +0000";
layers = (
{
layerId = "FC508690-ADF2-4DBF-B34D-60B2640A846D";
paths = (
{
closed = 1;
nodes = (
"147 264 CURVE SMOOTH",
"193 264 OFFCURVE",
"245 276 OFFCURVE",
"245 363 CURVE",
"244 441 OFFCURVE",
"203 477 OFFCURVE",
"143 477 CURVE SMOOTH",
"93 477 OFFCURVE",
"46 445 OFFCURVE",
"45 395 CURVE SMOOTH",
"45 346 OFFCURVE",
"54 264 OFFCURVE"
);
}
);
width = 289;
}
);
unicode = 2022;
},
{
glyphname = periodcentered;
lastChange = "2016-11-01 20:47:46 +0000";
layers = (
{
layerId = "FC508690-ADF2-4DBF-B34D-60B2640A846D";
paths = (
{
closed = 1;
nodes = (
"117 426 CURVE SMOOTH",
"84 426 OFFCURVE",
"45 417 OFFCURVE",
"45 358 CURVE SMOOTH",
"45 303 OFFCURVE",
"81 278 OFFCURVE",
"117 278 CURVE SMOOTH",
"154 278 OFFCURVE",
"193 304 OFFCURVE",
"193 337 CURVE SMOOTH",
"193 369 OFFCURVE",
"187 426 OFFCURVE"
);
}
);
width = 235;
}
);
unicode = 00B7;
},
{
glyphname = asciicircum;
lastChange = "2016-11-01 20:47:46 +0000";
layers = (
{
layerId = "FC508690-ADF2-4DBF-B34D-60B2640A846D";
paths = (
{
closed = 1;
nodes = (
"302 313 CURVE",
"267 378 LINE SMOOTH",
"258 395 OFFCURVE",
"246 417 OFFCURVE",
"233 445 CURVE",
"215 473 OFFCURVE",
"208 489 OFFCURVE",
"193 489 CURVE SMOOTH",
"190 489 OFFCURVE",
"187 488 OFFCURVE",
"183 487 CURVE",
"176 487 OFFCURVE",
"170 483 OFFCURVE",
"163 476 CURVE",
"152 460 OFFCURVE",
"134 434 OFFCURVE",
"110 395 CURVE",
"79 329 OFFCURVE",
"71 329 OFFCURVE",
"60 307 CURVE SMOOTH",
"52 289 OFFCURVE",
"21 237 OFFCURVE",
"21 221 CURVE SMOOTH",
"21 178 OFFCURVE",
"37 170 OFFCURVE",
"50 170 CURVE",
"54 169 OFFCURVE",
"58 168 OFFCURVE",
"62 168 CURVE SMOOTH",
"82 168 OFFCURVE",
"103 184 OFFCURVE",
"120 212 CURVE",
"133 240 OFFCURVE",
"145 260 OFFCURVE",
"153 280 CURVE SMOOTH",
"158 291 OFFCURVE",
"172 316 OFFCURVE",
"196 355 CURVE",
"215 327 OFFCURVE",
"227 299 OFFCURVE",
"243 256 CURVE",
"249 243 OFFCURVE",
"255 232 OFFCURVE",
"261 223 CURVE SMOOTH",
"272 206 OFFCURVE",
"285 190 OFFCURVE",
"293 185 CURVE",
"305 171 OFFCURVE",
"316 163 OFFCURVE",
"323 163 CURVE SMOOTH",
"329 163 OFFCURVE",
"334 179 OFFCURVE",
"337 210 CURVE SMOOTH",
"340 250 OFFCURVE",
"311 296 OFFCURVE"
);
}
);
width = 364;
}
);
unicode = 005E;
},
{
glyphname = dagger;
lastChange = "2016-11-01 20:47:46 +0000";
layers = (
{
layerId = "FC508690-ADF2-4DBF-B34D-60B2640A846D";
paths = (
{
closed = 1;
nodes = (
"391 477 CURVE",
"260 477 LINE",
"262 515 OFFCURVE",
"263 547 OFFCURVE",
"263 561 CURVE SMOOTH",
"263 604 OFFCURVE",
"272 646 OFFCURVE",
"269 666 CURVE",
"268 687 OFFCURVE",
"267 706 OFFCURVE",
"246 705 CURVE",
"187 705 LINE",
"172 706 OFFCURVE",
"157 705 OFFCURVE",
"158 681 CURVE SMOOTH",
"158 664 OFFCURVE",
"160 612 OFFCURVE",
"160 577 CURVE SMOOTH",
"160 564 OFFCURVE",
"160 553 OFFCURVE",
"159 547 CURVE SMOOTH",
"158 543 OFFCURVE",
"158 533 OFFCURVE",
"158 519 CURVE SMOOTH",
"158 507 OFFCURVE",
"158 491 OFFCURVE",
"159 475 CURVE",
"153 475 LINE SMOOTH",
"139 474 OFFCURVE",
"128 474 OFFCURVE",
"119 474 CURVE SMOOTH",
"47 474 LINE",
"41 475 OFFCURVE",
"36 476 OFFCURVE",
"32 476 CURVE SMOOTH",
"25 476 OFFCURVE",
"21 474 OFFCURVE",
"21 470 CURVE",
"18 463 OFFCURVE",
"25 423 OFFCURVE",
"25 411 CURVE SMOOTH",
"25 400 OFFCURVE",
"20 395 OFFCURVE",
"43 395 CURVE SMOOTH",
"54 395 OFFCURVE",
"79 393 OFFCURVE",
"103 393 CURVE SMOOTH",
"115 393 OFFCURVE",
"127 393 OFFCURVE",
"136 395 CURVE",
"141 395 OFFCURVE",
"148 395 OFFCURVE",
"161 395 CURVE",
"161 374 LINE SMOOTH",
"161 351 OFFCURVE",
"163 273 OFFCURVE",
"163 185 CURVE SMOOTH",
"163 153 OFFCURVE",
"163 119 OFFCURVE",
"162 86 CURVE",
"161 -31 OFFCURVE",
"153 -102 OFFCURVE",
"150 -130 CURVE SMOOTH",
"149 -142 OFFCURVE",
"147 -151 OFFCURVE",
"147 -158 CURVE SMOOTH",
"147 -170 OFFCURVE",
"151 -176 OFFCURVE",
"168 -178 CURVE SMOOTH",
"183 -179 OFFCURVE",
"199 -180 OFFCURVE",
"216 -179 CURVE",
"228 -181 OFFCURVE",
"243 -182 OFFCURVE",
"243 -132 CURVE SMOOTH",
"243 -80 LINE",
"245 -35 LINE SMOOTH",
"246 -12 OFFCURVE",
"247 17 OFFCURVE",
"247 32 CURVE SMOOTH",
"247 61 OFFCURVE",
"251 235 OFFCURVE",
"251 266 CURVE SMOOTH",
"251 281 OFFCURVE",
"254 337 OFFCURVE",
"256 397 CURVE",
"306 398 LINE SMOOTH",
"331 398 OFFCURVE",
"366 401 OFFCURVE",
"374 401 CURVE SMOOTH",
"379 401 OFFCURVE",
"385 400 OFFCURVE",
"389 400 CURVE SMOOTH",
"396 400 OFFCURVE",
"400 402 OFFCURVE",
"400 408 CURVE SMOOTH",
"400 460 LINE SMOOTH",
"400 467 OFFCURVE",
"404 477 OFFCURVE"
);
}
);
width = 421;
}
);
unicode = 2020;
},
{
glyphname = daggerdbl;
lastChange = "2016-11-01 20:47:46 +0000";
layers = (
{
layerId = "FC508690-ADF2-4DBF-B34D-60B2640A846D";
paths = (
{
closed = 1;
nodes = (
"391 477 CURVE",
"260 477 LINE",
"262 515 OFFCURVE",
"263 547 OFFCURVE",
"263 561 CURVE SMOOTH",
"263 604 OFFCURVE",
"272 646 OFFCURVE",
"269 666 CURVE",
"268 687 OFFCURVE",
"267 706 OFFCURVE",
"246 705 CURVE",
"187 705 LINE",
"172 706 OFFCURVE",
"157 705 OFFCURVE",
"158 681 CURVE SMOOTH",
"158 664 OFFCURVE",
"160 612 OFFCURVE",
"160 577 CURVE SMOOTH",
"160 564 OFFCURVE",
"160 553 OFFCURVE",
"159 547 CURVE SMOOTH",
"158 543 OFFCURVE",
"158 533 OFFCURVE",
"158 519 CURVE SMOOTH",
"158 507 OFFCURVE",
"158 491 OFFCURVE",
"159 475 CURVE",
"153 475 LINE SMOOTH",
"139 474 OFFCURVE",
"128 474 OFFCURVE",
"119 474 CURVE SMOOTH",
"47 474 LINE",
"41 475 OFFCURVE",
"36 476 OFFCURVE",
"32 476 CURVE SMOOTH",
"25 476 OFFCURVE",
"21 474 OFFCURVE",
"21 470 CURVE",
"18 463 OFFCURVE",
"25 423 OFFCURVE",
"25 411 CURVE SMOOTH",
"25 400 OFFCURVE",
"20 395 OFFCURVE",
"43 395 CURVE SMOOTH",
"54 395 OFFCURVE",
"79 393 OFFCURVE",
"103 393 CURVE SMOOTH",
"115 393 OFFCURVE",
"127 393 OFFCURVE",
"136 395 CURVE",
"141 395 OFFCURVE",
"148 395 OFFCURVE",
"161 395 CURVE",
"161 374 LINE SMOOTH",
"161 351 OFFCURVE",
"163 273 OFFCURVE",
"163 185 CURVE SMOOTH",
"163 175 OFFCURVE",
"163 164 OFFCURVE",
"163 153 CURVE",
"29 153 LINE SMOOTH",
"21 153 OFFCURVE",
"19 149 OFFCURVE",
"19 145 CURVE SMOOTH",
"19 142 OFFCURVE",
"20 139 OFFCURVE",
"20 136 CURVE SMOOTH",
"20 84 LINE SMOOTH",
"20 78 OFFCURVE",
"24 76 OFFCURVE",
"31 76 CURVE SMOOTH",
"35 76 OFFCURVE",
"41 77 OFFCURVE",
"46 77 CURVE SMOOTH",
"54 77 OFFCURVE",
"89 74 OFFCURVE",
"114 74 CURVE SMOOTH",
"162 73 LINE",
"160 -36 OFFCURVE",
"153 -103 OFFCURVE",
"150 -130 CURVE SMOOTH",
"149 -142 OFFCURVE",
"147 -151 OFFCURVE",
"147 -158 CURVE SMOOTH",
"147 -170 OFFCURVE",
"151 -176 OFFCURVE",
"168 -178 CURVE SMOOTH",
"183 -179 OFFCURVE",
"199 -180 OFFCURVE",
"216 -179 CURVE",
"228 -181 OFFCURVE",
"243 -182 OFFCURVE",
"243 -132 CURVE SMOOTH",
"243 -80 LINE",
"245 -35 LINE SMOOTH",
"246 -12 OFFCURVE",
"247 17 OFFCURVE",
"247 32 CURVE SMOOTH",
"247 39 OFFCURVE",
"247 53 OFFCURVE",
"248 72 CURVE",
"284 71 LINE",
"293 69 OFFCURVE",
"305 69 OFFCURVE",
"317 69 CURVE SMOOTH",
"341 69 OFFCURVE",
"366 71 OFFCURVE",
"377 71 CURVE SMOOTH",
"393 71 OFFCURVE",
"395 73 OFFCURVE",
"395 79 CURVE SMOOTH",
"395 81 OFFCURVE",
"395 84 OFFCURVE",
"395 87 CURVE SMOOTH",
"395 99 OFFCURVE",
"402 139 OFFCURVE",
"399 146 CURVE",
"399 150 OFFCURVE",
"395 152 OFFCURVE",
"388 152 CURVE SMOOTH",
"384 152 OFFCURVE",
"379 151 OFFCURVE",
"373 150 CURVE",
"301 150 LINE SMOOTH",
"292 150 OFFCURVE",
"281 150 OFFCURVE",
"266 151 CURVE SMOOTH",
"262 151 OFFCURVE",
"256 152 OFFCURVE",
"249 152 CURVE",
"251 266 LINE SMOOTH",
"251 281 OFFCURVE",
"254 337 OFFCURVE",
"256 397 CURVE",
"306 398 LINE SMOOTH",
"331 398 OFFCURVE",
"366 401 OFFCURVE",
"374 401 CURVE SMOOTH",
"379 401 OFFCURVE",
"385 400 OFFCURVE",
"389 400 CURVE SMOOTH",
"396 400 OFFCURVE",
"400 402 OFFCURVE",
"400 408 CURVE SMOOTH",
"400 460 LINE SMOOTH",
"400 467 OFFCURVE",
"404 477 OFFCURVE"
);
}
);
width = 421;
}
);
unicode = 2021;
},
{
glyphname = trademark;
lastChange = "2016-11-01 20:47:46 +0000";
layers = (
{
layerId = "FC508690-ADF2-4DBF-B34D-60B2640A846D";
paths = (
{
closed = 1;
nodes = (
"371 593 CURVE",
"379 571 LINE",
"393 538 LINE SMOOTH",
"400 523 OFFCURVE",
"432 467 OFFCURVE",
"437 452 CURVE SMOOTH",
"442 439 OFFCURVE",
"454 404 OFFCURVE",
"460 398 CURVE",
"464 391 OFFCURVE",
"467 386 OFFCURVE",
"468 386 CURVE SMOOTH",
"470 386 OFFCURVE",
"480 409 OFFCURVE",
"483 417 CURVE SMOOTH",
"488 427 OFFCURVE",
"519 495 OFFCURVE",
"527 508 CURVE",
"549 550 LINE SMOOTH",
"558 569 OFFCURVE",
"561 577 OFFCURVE",
"564 582 CURVE SMOOTH",
"567 587 OFFCURVE",
"570 595 OFFCURVE",
"574 600 CURVE",
"575 604 OFFCURVE",
"577 608 OFFCURVE",
"580 611 CURVE",
"579 598 OFFCURVE",
"579 586 OFFCURVE",
"579 575 CURVE SMOOTH",
"578 556 OFFCURVE",
"577 537 OFFCURVE",
"578 530 CURVE",
"578 515 OFFCURVE",
"576 460 OFFCURVE",
"574 445 CURVE",
"574 438 OFFCURVE",
"573 418 OFFCURVE",
"573 401 CURVE SMOOTH",
"573 375 LINE SMOOTH",
"573 366 OFFCURVE",
"573 361 OFFCURVE",
"577 360 CURVE SMOOTH",
"581 360 OFFCURVE",
"592 360 OFFCURVE",
"600 359 CURVE SMOOTH",
"603 359 OFFCURVE",
"604 359 OFFCURVE",
"603 367 CURVE SMOOTH",
"603 370 OFFCURVE",
"603 388 OFFCURVE",
"603 407 CURVE SMOOTH",
"603 426 OFFCURVE",
"603 446 OFFCURVE",
"604 453 CURVE",
"604 469 OFFCURVE",
"608 529 OFFCURVE",
"608 554 CURVE SMOOTH",
"608 563 OFFCURVE",
"608 590 OFFCURVE",
"608 616 CURVE SMOOTH",
"608 642 OFFCURVE",
"608 667 OFFCURVE",
"610 672 CURVE",
"610 682 OFFCURVE",
"614 694 OFFCURVE",
"614 701 CURVE SMOOTH",
"614 705 OFFCURVE",
"613 707 OFFCURVE",
"610 707 CURVE SMOOTH",
"597 707 OFFCURVE",
"579 674 OFFCURVE",
"571 654 CURVE",
"560 635 OFFCURVE",
"541 595 OFFCURVE",
"525 563 CURVE SMOOTH",
"493 500 LINE",
"472 458 LINE",
"461 481 LINE",
"456 494 OFFCURVE",
"449 510 OFFCURVE",
"446 519 CURVE SMOOTH",
"438 538 OFFCURVE",
"419 583 OFFCURVE",
"410 600 CURVE",
"405 616 OFFCURVE",
"384 658 OFFCURVE",
"381 679 CURVE",
"378 691 OFFCURVE",
"376 706 OFFCURVE",
"368 709 CURVE SMOOTH",
"363 710 OFFCURVE",
"357 710 OFFCURVE",
"351 710 CURVE SMOOTH",
"348 710 OFFCURVE",
"345 710 OFFCURVE",
"342 710 CURVE",
"335 708 OFFCURVE",
"333 712 OFFCURVE",
"330 712 CURVE SMOOTH",
"329 712 OFFCURVE",
"328 711 OFFCURVE",
"327 710 CURVE SMOOTH",
"325 708 OFFCURVE",
"324 701 OFFCURVE",
"324 693 CURVE SMOOTH",
"324 683 OFFCURVE",
"325 671 OFFCURVE",
"325 663 CURVE SMOOTH",
"324 570 LINE SMOOTH",
"324 554 OFFCURVE",
"320 483 OFFCURVE",
"320 465 CURVE SMOOTH",
"321 372 LINE SMOOTH",
"321 363 OFFCURVE",
"320 357 OFFCURVE",
"325 356 CURVE",
"329 354 OFFCURVE",
"347 357 OFFCURVE",
"354 357 CURVE SMOOTH",
"362 357 OFFCURVE",
"367 355 OFFCURVE",
"367 363 CURVE SMOOTH",
"367 370 OFFCURVE",
"368 422 OFFCURVE",
"368 440 CURVE SMOOTH",
"369 538 LINE SMOOTH",
"369 545 OFFCURVE",
"369 559 OFFCURVE",
"370 571 CURVE SMOOTH",
"370 578 OFFCURVE",
"370 586 OFFCURVE"
);
},
{
closed = 1;
nodes = (
"90 702 LINE",
"41 702 LINE SMOOTH",
"37 702 OFFCURVE",
"32 702 OFFCURVE",
"32 693 CURVE SMOOTH",
"32 693 OFFCURVE",
"32 692 OFFCURVE",
"32 691 CURVE SMOOTH",
"33 689 OFFCURVE",
"33 682 OFFCURVE",
"33 673 CURVE SMOOTH",
"33 651 OFFCURVE",
"31 615 OFFCURVE",
"31 611 CURVE SMOOTH",
"30 606 OFFCURVE",
"32 600 OFFCURVE",
"41 600 CURVE SMOOTH",
"47 600 OFFCURVE",
"94 601 OFFCURVE",
"129 601 CURVE",
"130 537 LINE SMOOTH",
"130 510 OFFCURVE",
"125 386 OFFCURVE",
"125 372 CURVE SMOOTH",
"125 359 OFFCURVE",
"124 355 OFFCURVE",
"133 355 CURVE SMOOTH",
"167 355 LINE SMOOTH",
"172 355 OFFCURVE",
"175 355 OFFCURVE",
"175 364 CURVE SMOOTH",
"175 371 OFFCURVE",
"172 446 OFFCURVE",
"172 500 CURVE SMOOTH",
"172 522 OFFCURVE",
"173 541 OFFCURVE",
"174 551 CURVE",
"174 568 OFFCURVE",
"174 589 OFFCURVE",
"175 601 CURVE",
"262 601 LINE SMOOTH",
"273 601 OFFCURVE",
"278 606 OFFCURVE",
"278 615 CURVE SMOOTH",
"278 622 OFFCURVE",
"277 636 OFFCURVE",
"277 649 CURVE SMOOTH",
"277 672 OFFCURVE",
"278 685 OFFCURVE",
"278 691 CURVE",
"279 694 OFFCURVE",
"278 702 OFFCURVE",
"262 702 CURVE SMOOTH",
"261 702 OFFCURVE",
"260 702 OFFCURVE",
"259 702 CURVE SMOOTH",
"241 702 OFFCURVE",
"172 703 OFFCURVE",
"154 703 CURVE SMOOTH"
);
}
);
width = 644;
}
);
unicode = 2122;
},
{
glyphname = at;
lastChange = "2016-11-01 20:47:46 +0000";
layers = (
{
layerId = "FC508690-ADF2-4DBF-B34D-60B2640A846D";
paths = (
{
closed = 1;
nodes = (
"443 143 CURVE",
"489 209 LINE",
"492 192 OFFCURVE",
"498 177 OFFCURVE",
"505 164 CURVE SMOOTH",
"518 141 OFFCURVE",
"539 120 OFFCURVE",
"578 120 CURVE SMOOTH",
"657 120 OFFCURVE",
"673 171 OFFCURVE",
"683 197 CURVE",
"694 230 OFFCURVE",
"706 344 OFFCURVE",
"706 406 CURVE SMOOTH",
"706 468 OFFCURVE",
"637 579 OFFCURVE",
"578 611 CURVE",
"523 646 OFFCURVE",
"455 657 OFFCURVE",
"366 657 CURVE SMOOTH",
"246 657 OFFCURVE",
"164 595 OFFCURVE",
"146 577 CURVE SMOOTH",
"126 557 OFFCURVE",
"41 449 OFFCURVE",
"41 301 CURVE SMOOTH",
"41 157 OFFCURVE",
"94 116 OFFCURVE",
"115 84 CURVE SMOOTH",
"134 57 OFFCURVE",
"184 -12 OFFCURVE",
"233 -31 CURVE SMOOTH",
"264 -44 OFFCURVE",
"321 -47 OFFCURVE",
"369 -47 CURVE SMOOTH",
"396 -47 OFFCURVE",
"420 -46 OFFCURVE",
"435 -46 CURVE SMOOTH",
"474 -46 OFFCURVE",
"575 7 OFFCURVE",
"586 18 CURVE SMOOTH",
"591 23 OFFCURVE",
"594 27 OFFCURVE",
"594 31 CURVE SMOOTH",
"594 35 OFFCURVE",
"590 38 OFFCURVE",
"586 43 CURVE",
"575 50 OFFCURVE",
"560 69 OFFCURVE",
"552 74 CURVE SMOOTH",
"547 78 OFFCURVE",
"542 83 OFFCURVE",
"536 83 CURVE SMOOTH",
"533 83 OFFCURVE",
"529 81 OFFCURVE",
"524 77 CURVE",
"513 61 OFFCURVE",
"486 38 OFFCURVE",
"450 26 CURVE SMOOTH",
"419 15 OFFCURVE",
"389 10 OFFCURVE",
"338 10 CURVE SMOOTH",
"292 10 OFFCURVE",
"103 97 OFFCURVE",
"103 297 CURVE SMOOTH",
"103 499 OFFCURVE",
"207 547 OFFCURVE",
"261 569 CURVE",
"294 579 OFFCURVE",
"349 589 OFFCURVE",
"404 589 CURVE SMOOTH",
"445 589 OFFCURVE",
"487 584 OFFCURVE",
"521 569 CURVE",
"601 537 OFFCURVE",
"649 476 OFFCURVE",
"649 360 CURVE SMOOTH",
"649 243 OFFCURVE",
"621 186 OFFCURVE",
"578 186 CURVE SMOOTH",
"546 186 OFFCURVE",
"539 222 OFFCURVE",
"539 252 CURVE SMOOTH",
"539 259 OFFCURVE",
"539 265 OFFCURVE",
"540 271 CURVE SMOOTH",
"543 300 OFFCURVE",
"560 395 OFFCURVE",
"563 421 CURVE SMOOTH",
"565 437 OFFCURVE",
"569 451 OFFCURVE",
"569 463 CURVE SMOOTH",
"569 473 OFFCURVE",
"566 482 OFFCURVE",
"555 488 CURVE SMOOTH",
"532 503 OFFCURVE",
"449 514 OFFCURVE",
"404 514 CURVE SMOOTH",
"358 514 OFFCURVE",
"289 480 OFFCURVE",
"266 472 CURVE SMOOTH",
"243 464 OFFCURVE",
"172 391 OFFCURVE",
"172 297 CURVE SMOOTH",
"172 209 OFFCURVE",
"222 97 OFFCURVE",
"330 97 CURVE SMOOTH",
"390 97 OFFCURVE",
"424 120 OFFCURVE"
);
},
{
closed = 1;
nodes = (
"486 386 CURVE",
"481 362 OFFCURVE",
"482 298 OFFCURVE",
"474 266 CURVE",
"466 239 OFFCURVE",
"402 174 OFFCURVE",
"343 174 CURVE SMOOTH",
"288 174 OFFCURVE",
"250 227 OFFCURVE",
"250 314 CURVE SMOOTH",
"250 398 OFFCURVE",
"319 457 OFFCURVE",
"394 457 CURVE SMOOTH",
"430 457 OFFCURVE",
"455 452 OFFCURVE",
"471 447 CURVE SMOOTH",
"480 444 OFFCURVE",
"488 441 OFFCURVE",
"494 437 CURVE",
"494 431 OFFCURVE",
"494 425 OFFCURVE",
"493 419 CURVE SMOOTH",
"492 408 OFFCURVE",
"490 397 OFFCURVE"
);
}
);
width = 745;
}
);
unicode = 0040;
},
{
glyphname = asciitilde;
lastChange = "2016-11-01 20:47:46 +0000";
layers = (
{
layerId = "FC508690-ADF2-4DBF-B34D-60B2640A846D";
paths = (
{
closed = 1;
nodes = (
"491 336 CURVE",
"491 357 LINE",
"489 368 OFFCURVE",
"501 389 OFFCURVE",
"455 391 CURVE",
"432 395 OFFCURVE",
"405 397 OFFCURVE",
"375 397 CURVE SMOOTH",
"311 397 OFFCURVE",
"262 393 OFFCURVE",
"227 385 CURVE SMOOTH",
"192 378 OFFCURVE",
"173 374 OFFCURVE",
"138 374 CURVE",
"103 381 OFFCURVE",
"79 396 OFFCURVE",
"68 393 CURVE SMOOTH",
"63 392 OFFCURVE",
"59 389 OFFCURVE",
"58 386 CURVE SMOOTH",
"55 370 OFFCURVE",
"56 348 OFFCURVE",
"56 336 CURVE",
"53 323 OFFCURVE",
"63 307 OFFCURVE",
"138 305 CURVE",
"186 305 OFFCURVE",
"206 312 OFFCURVE",
"249 315 CURVE SMOOTH",
"293 319 OFFCURVE",
"323 328 OFFCURVE",
"380 332 CURVE",
"410 332 OFFCURVE",
"439 315 OFFCURVE",
"462 315 CURVE SMOOTH",
"481 315 OFFCURVE",
"491 322 OFFCURVE"
);
}
);
width = 558;
}
);
unicode = 007E;
},
{
glyphname = section;
lastChange = "2016-11-01 20:47:46 +0000";
layers = (
{
layerId = "FC508690-ADF2-4DBF-B34D-60B2640A846D";
paths = (
{
closed = 1;
nodes = (
"382 639 CURVE",
"389 652 LINE",
"389 658 LINE SMOOTH",
"389 661 OFFCURVE",
"387 663 OFFCURVE",
"384 666 CURVE SMOOTH",
"379 671 OFFCURVE",
"325 717 OFFCURVE",
"262 717 CURVE SMOOTH",
"197 717 OFFCURVE",
"81 700 OFFCURVE",
"81 577 CURVE SMOOTH",
"81 554 OFFCURVE",
"84 533 OFFCURVE",
"91 515 CURVE SMOOTH",
"96 504 OFFCURVE",
"101 495 OFFCURVE",
"106 486 CURVE",
"96 476 OFFCURVE",
"87 464 OFFCURVE",
"78 450 CURVE SMOOTH",
"69 436 OFFCURVE",
"64 413 OFFCURVE",
"64 381 CURVE",
"70 287 OFFCURVE",
"91 242 OFFCURVE",
"193 190 CURVE SMOOTH",
"228 173 OFFCURVE",
"277 162 OFFCURVE",
"294 108 CURVE",
"296 63 OFFCURVE",
"267 59 OFFCURVE",
"235 59 CURVE SMOOTH",
"210 59 OFFCURVE",
"162 81 OFFCURVE",
"127 108 CURVE SMOOTH",
"92 135 OFFCURVE",
"77 151 OFFCURVE",
"73 151 CURVE SMOOTH",
"66 151 OFFCURVE",
"66 146 OFFCURVE",
"59 139 CURVE SMOOTH",
"51 130 OFFCURVE",
"40 110 OFFCURVE",
"35 103 CURVE SMOOTH",
"33 99 OFFCURVE",
"30 96 OFFCURVE",
"30 93 CURVE SMOOTH",
"30 91 OFFCURVE",
"31 89 OFFCURVE",
"34 86 CURVE SMOOTH",
"38 83 OFFCURVE",
"53 66 OFFCURVE",
"94 38 CURVE SMOOTH",
"135 11 OFFCURVE",
"180 -10 OFFCURVE",
"251 -10 CURVE SMOOTH",
"295 -10 OFFCURVE",
"327 0 OFFCURVE",
"351 24 CURVE SMOOTH",
"364 37 OFFCURVE",
"374 50 OFFCURVE",
"382 65 CURVE SMOOTH",
"391 80 OFFCURVE",
"396 105 OFFCURVE",
"399 141 CURVE",
"398 176 OFFCURVE",
"393 201 OFFCURVE",
"383 218 CURVE",
"376 227 OFFCURVE",
"369 234 OFFCURVE",
"360 240 CURVE",
"369 249 OFFCURVE",
"376 259 OFFCURVE",
"382 271 CURVE SMOOTH",
"391 288 OFFCURVE",
"396 315 OFFCURVE",
"396 349 CURVE SMOOTH",
"396 440 OFFCURVE",
"342 478 OFFCURVE",
"281 513 CURVE SMOOTH",
"222 547 OFFCURVE",
"173 558 OFFCURVE",
"173 611 CURVE SMOOTH",
"173 614 OFFCURVE",
"173 619 OFFCURVE",
"174 623 CURVE SMOOTH",
"189 668 OFFCURVE",
"224 657 OFFCURVE",
"262 661 CURVE",
"290 661 OFFCURVE",
"337 638 OFFCURVE",
"348 627 CURVE SMOOTH",
"361 616 OFFCURVE",
"360 615 OFFCURVE",
"363 615 CURVE SMOOTH",
"364 615 OFFCURVE",
"364 615 OFFCURVE",
"365 615 CURVE",
"378 635 OFFCURVE",
"379 635 OFFCURVE"
);
},
{
closed = 1;
nodes = (
"322 278 CURVE",
"316 266 LINE",
"295 277 OFFCURVE",
"272 287 OFFCURVE",
"247 295 CURVE SMOOTH",
"191 315 OFFCURVE",
"175 325 OFFCURVE",
"160 341 CURVE",
"149 355 OFFCURVE",
"140 367 OFFCURVE",
"140 394 CURVE SMOOTH",
"140 398 OFFCURVE",
"140 403 OFFCURVE",
"141 409 CURVE SMOOTH",
"142 422 OFFCURVE",
"147 432 OFFCURVE",
"156 441 CURVE",
"166 436 OFFCURVE",
"176 431 OFFCURVE",
"186 427 CURVE SMOOTH",
"211 416 OFFCURVE",
"232 410 OFFCURVE",
"245 403 CURVE SMOOTH",
"283 384 OFFCURVE",
"324 356 OFFCURVE",
"327 310 CURVE",
"327 299 OFFCURVE",
"325 289 OFFCURVE"
);
}
);
width = 447;
}
);
unicode = 00A7;
},
{
glyphname = paragraph;
lastChange = "2016-11-01 20:47:46 +0000";
layers = (
{
layerId = "FC508690-ADF2-4DBF-B34D-60B2640A846D";
paths = (
{
closed = 1;
nodes = (
"537 702 CURVE",
"439 704 LINE SMOOTH",
"414 705 OFFCURVE",
"391 705 OFFCURVE",
"372 705 CURVE SMOOTH",
"353 705 OFFCURVE",
"338 705 OFFCURVE",
"325 704 CURVE SMOOTH",
"320 703 OFFCURVE",
"309 703 OFFCURVE",
"292 702 CURVE",
"280 704 OFFCURVE",
"250 705 OFFCURVE",
"217 705 CURVE SMOOTH",
"190 705 OFFCURVE",
"160 704 OFFCURVE",
"134 702 CURVE SMOOTH",
"77 699 OFFCURVE",
"20 648 OFFCURVE",
"20 520 CURVE SMOOTH",
"20 392 OFFCURVE",
"105 367 OFFCURVE",
"137 367 CURVE SMOOTH",
"150 367 OFFCURVE",
"178 364 OFFCURVE",
"201 361 CURVE",
"244 357 LINE",
"239 272 OFFCURVE",
"237 211 OFFCURVE",
"237 174 CURVE SMOOTH",
"237 83 LINE SMOOTH",
"237 58 OFFCURVE",
"235 38 OFFCURVE",
"234 33 CURVE SMOOTH",
"229 12 OFFCURVE",
"254 0 OFFCURVE",
"267 6 CURVE",
"280 8 OFFCURVE",
"306 3 OFFCURVE",
"323 3 CURVE SMOOTH",
"342 3 OFFCURVE",
"344 18 OFFCURVE",
"344 36 CURVE SMOOTH",
"344 55 OFFCURVE",
"342 118 OFFCURVE",
"342 160 CURVE SMOOTH",
"342 195 OFFCURVE",
"334 485 OFFCURVE",
"334 603 CURVE SMOOTH",
"334 649 LINE",
"417 649 LINE",
"417 624 LINE",
"420 562 OFFCURVE",
"421 440 OFFCURVE",
"421 365 CURVE SMOOTH",
"421 320 LINE SMOOTH",
"421 256 OFFCURVE",
"431 63 OFFCURVE",
"428 39 CURVE",
"428 33 OFFCURVE",
"427 26 OFFCURVE",
"427 20 CURVE SMOOTH",
"427 5 OFFCURVE",
"430 -7 OFFCURVE",
"443 -7 CURVE SMOOTH",
"450 -7 OFFCURVE",
"464 -6 OFFCURVE",
"479 -6 CURVE SMOOTH",
"487 -6 OFFCURVE",
"489 0 OFFCURVE",
"489 8 CURVE SMOOTH",
"489 15 OFFCURVE",
"487 24 OFFCURVE",
"487 32 CURVE",
"484 51 OFFCURVE",
"483 90 OFFCURVE",
"482 143 CURVE",
"482 197 OFFCURVE",
"474 365 OFFCURVE",
"474 416 CURVE SMOOTH",
"474 456 OFFCURVE",
"476 561 OFFCURVE",
"478 623 CURVE",
"478 648 LINE",
"485 648 OFFCURVE",
"489 648 OFFCURVE",
"492 647 CURVE",
"511 646 OFFCURVE",
"531 645 OFFCURVE",
"542 645 CURVE SMOOTH",
"566 645 OFFCURVE",
"570 649 OFFCURVE",
"570 662 CURVE SMOOTH",
"570 682 LINE SMOOTH",
"570 687 OFFCURVE",
"570 694 OFFCURVE",
"567 698 CURVE SMOOTH",
"565 701 OFFCURVE",
"563 702 OFFCURVE",
"551 702 CURVE SMOOTH",
"548 702 OFFCURVE",
"543 702 OFFCURVE"
);
}
);
width = 606;
}
);
unicode = 00B6;
},
{
glyphname = registered;
lastChange = "2016-11-01 20:47:46 +0000";
layers = (
{
layerId = "FC508690-ADF2-4DBF-B34D-60B2640A846D";
paths = (
{
closed = 1;
nodes = (
"235 44 CURVE SMOOTH",
"276 23 OFFCURVE",
"334 24 OFFCURVE",
"398 24 CURVE SMOOTH",
"555 24 OFFCURVE",
"706 171 OFFCURVE",
"706 333 CURVE",
"702 398 OFFCURVE",
"688 457 OFFCURVE",
"664 509 CURVE SMOOTH",
"623 594 OFFCURVE",
"545 682 OFFCURVE",
"384 682 CURVE SMOOTH",
"65 682 OFFCURVE",
"42 412 OFFCURVE",
"42 352 CURVE",
"43 302 OFFCURVE",
"76 122 OFFCURVE"
);
},
{
closed = 1;
nodes = (
"379 623 CURVE SMOOTH",
"560 623 OFFCURVE",
"625 478 OFFCURVE",
"625 340 CURVE SMOOTH",
"625 201 OFFCURVE",
"512 128 OFFCURVE",
"475 104 CURVE",
"442 76 OFFCURVE",
"407 78 OFFCURVE",
"363 78 CURVE SMOOTH",
"218 78 OFFCURVE",
"125 201 OFFCURVE",
"125 349 CURVE SMOOTH",
"125 492 OFFCURVE",
"197 623 OFFCURVE"
);
},
{
closed = 1;
nodes = (
"359 257 CURVE",
"355 324 LINE",
"382 272 LINE SMOOTH",
"396 244 OFFCURVE",
"412 213 OFFCURVE",
"419 201 CURVE SMOOTH",
"431 177 OFFCURVE",
"433 163 OFFCURVE",
"441 163 CURVE SMOOTH",
"501 165 LINE SMOOTH",
"506 165 OFFCURVE",
"511 164 OFFCURVE",
"511 168 CURVE SMOOTH",
"511 170 OFFCURVE",
"509 175 OFFCURVE",
"504 183 CURVE SMOOTH",
"496 194 OFFCURVE",
"475 230 OFFCURVE",
"456 266 CURVE SMOOTH",
"445 286 OFFCURVE",
"432 308 OFFCURVE",
"419 333 CURVE",
"428 341 OFFCURVE",
"437 350 OFFCURVE",
"444 360 CURVE SMOOTH",
"455 377 OFFCURVE",
"468 402 OFFCURVE",
"468 434 CURVE SMOOTH",
"468 494 OFFCURVE",
"431 543 OFFCURVE",
"350 543 CURVE SMOOTH",
"319 543 OFFCURVE",
"285 537 OFFCURVE",
"280 537 CURVE SMOOTH",
"274 537 OFFCURVE",
"268 539 OFFCURVE",
"268 522 CURVE SMOOTH",
"268 519 OFFCURVE",
"269 515 OFFCURVE",
"269 510 CURVE",
"271 497 OFFCURVE",
"272 459 OFFCURVE",
"272 422 CURVE SMOOTH",
"272 385 OFFCURVE",
"271 349 OFFCURVE",
"268 339 CURVE SMOOTH",
"267 334 OFFCURVE",
"267 324 OFFCURVE",
"267 312 CURVE SMOOTH",
"267 269 OFFCURVE",
"271 196 OFFCURVE",
"271 184 CURVE SMOOTH",
"270 168 OFFCURVE",
"269 160 OFFCURVE",
"282 160 CURVE SMOOTH",
"293 160 OFFCURVE",
"325 165 OFFCURVE",
"342 165 CURVE SMOOTH",
"345 165 OFFCURVE",
"348 165 OFFCURVE",
"350 164 CURVE",
"361 163 OFFCURVE",
"365 164 OFFCURVE",
"365 175 CURVE SMOOTH",
"365 176 OFFCURVE",
"365 178 OFFCURVE",
"365 179 CURVE SMOOTH",
"363 184 OFFCURVE",
"362 223 OFFCURVE"
);
},
{
closed = 1;
nodes = (
"352 395 CURVE",
"352 404 LINE SMOOTH",
"352 409 OFFCURVE",
"353 415 OFFCURVE",
"354 423 CURVE SMOOTH",
"355 435 OFFCURVE",
"353 449 OFFCURVE",
"354 452 CURVE",
"357 455 OFFCURVE",
"361 457 OFFCURVE",
"364 457 CURVE SMOOTH",
"373 457 OFFCURVE",
"381 449 OFFCURVE",
"381 426 CURVE SMOOTH",
"381 409 OFFCURVE",
"374 401 OFFCURVE",
"366 398 CURVE SMOOTH",
"362 396 OFFCURVE",
"357 395 OFFCURVE"
);
}
);
width = 747;
}
);
unicode = 00AE;
},
{
glyphname = copyright;
lastChange = "2016-11-01 20:47:46 +0000";
layers = (
{
layerId = "FC508690-ADF2-4DBF-B34D-60B2640A846D";
paths = (
{
closed = 1;
nodes = (
"513 662 CURVE SMOOTH",
"472 683 OFFCURVE",
"414 682 OFFCURVE",
"350 682 CURVE SMOOTH",
"193 682 OFFCURVE",
"42 535 OFFCURVE",
"42 373 CURVE",
"46 308 OFFCURVE",
"60 249 OFFCURVE",
"84 197 CURVE SMOOTH",
"125 112 OFFCURVE",
"203 24 OFFCURVE",
"364 24 CURVE SMOOTH",
"683 24 OFFCURVE",
"706 294 OFFCURVE",
"706 354 CURVE",
"705 404 OFFCURVE",
"672 584 OFFCURVE"
);
},
{
closed = 1;
nodes = (
"358 74 CURVE SMOOTH",
"181 74 OFFCURVE",
"118 221 OFFCURVE",
"118 363 CURVE SMOOTH",
"118 505 OFFCURVE",
"229 576 OFFCURVE",
"264 603 CURVE",
"297 631 OFFCURVE",
"331 629 OFFCURVE",
"375 629 CURVE SMOOTH",
"515 629 OFFCURVE",
"607 503 OFFCURVE",
"607 354 CURVE SMOOTH",
"607 207 OFFCURVE",
"538 74 OFFCURVE"
);
},
{
closed = 1;
nodes = (
"365 463 CURVE SMOOTH",
"380 463 OFFCURVE",
"388 451 OFFCURVE",
"399 439 CURVE SMOOTH",
"403 435 OFFCURVE",
"406 434 OFFCURVE",
"409 434 CURVE SMOOTH",
"415 434 OFFCURVE",
"420 441 OFFCURVE",
"426 448 CURVE SMOOTH",
"434 460 OFFCURVE",
"451 475 OFFCURVE",
"463 484 CURVE SMOOTH",
"468 488 OFFCURVE",
"470 490 OFFCURVE",
"470 493 CURVE SMOOTH",
"470 496 OFFCURVE",
"467 500 OFFCURVE",
"463 504 CURVE",
"458 514 OFFCURVE",
"426 553 OFFCURVE",
"363 553 CURVE SMOOTH",
"300 553 OFFCURVE",
"231 474 OFFCURVE",
"231 355 CURVE SMOOTH",
"231 239 OFFCURVE",
"303 150 OFFCURVE",
"375 150 CURVE SMOOTH",
"450 150 OFFCURVE",
"481 203 OFFCURVE",
"487 215 CURVE",
"495 226 OFFCURVE",
"485 227 OFFCURVE",
"474 232 CURVE",
"464 240 OFFCURVE",
"433 252 OFFCURVE",
"426 259 CURVE",
"417 263 OFFCURVE",
"416 261 OFFCURVE",
"411 254 CURVE",
"403 248 OFFCURVE",
"388 232 OFFCURVE",
"371 232 CURVE SMOOTH",
"355 232 OFFCURVE",
"304 251 OFFCURVE",
"304 341 CURVE SMOOTH",
"304 434 OFFCURVE",
"341 463 OFFCURVE"
);
}
);
width = 748;
}
);
unicode = 00A9;
},
{
glyphname = ordfeminine;
lastChange = "2016-11-01 20:47:46 +0000";
layers = (
{
layerId = "FC508690-ADF2-4DBF-B34D-60B2640A846D";
paths = (
{
closed = 1;
nodes = (
"117 682 CURVE",
"104 642 LINE",
"85 576 LINE",
"80 553 OFFCURVE",
"77 544 OFFCURVE",
"72 528 CURVE SMOOTH",
"67 513 OFFCURVE",
"58 487 OFFCURVE",
"54 464 CURVE",
"49 442 OFFCURVE",
"35 397 OFFCURVE",
"32 383 CURVE",
"28 370 OFFCURVE",
"26 368 OFFCURVE",
"25 364 CURVE",
"22 359 OFFCURVE",
"21 355 OFFCURVE",
"25 355 CURVE SMOOTH",
"55 355 LINE SMOOTH",
"58 355 OFFCURVE",
"60 357 OFFCURVE",
"61 364 CURVE SMOOTH",
"65 379 LINE SMOOTH",
"68 387 OFFCURVE",
"70 395 OFFCURVE",
"71 400 CURVE",
"71 411 OFFCURVE",
"81 440 OFFCURVE",
"81 446 CURVE",
"82 451 OFFCURVE",
"83 457 OFFCURVE",
"88 457 CURVE SMOOTH",
"130 457 LINE",
"144 459 OFFCURVE",
"175 459 OFFCURVE",
"184 459 CURVE",
"192 460 OFFCURVE",
"200 461 OFFCURVE",
"204 461 CURVE SMOOTH",
"208 461 OFFCURVE",
"210 459 OFFCURVE",
"213 451 CURVE SMOOTH",
"225 422 LINE",
"227 415 OFFCURVE",
"241 377 OFFCURVE",
"245 371 CURVE",
"248 363 OFFCURVE",
"251 354 OFFCURVE",
"255 354 CURVE SMOOTH",
"291 354 LINE SMOOTH",
"296 354 OFFCURVE",
"300 355 OFFCURVE",
"300 358 CURVE SMOOTH",
"300 360 OFFCURVE",
"299 362 OFFCURVE",
"297 365 CURVE SMOOTH",
"292 373 OFFCURVE",
"279 397 OFFCURVE",
"274 410 CURVE",
"266 423 OFFCURVE",
"242 471 OFFCURVE",
"231 495 CURVE SMOOTH",
"220 519 OFFCURVE",
"196 570 OFFCURVE",
"188 590 CURVE SMOOTH",
"181 610 OFFCURVE",
"174 628 OFFCURVE",
"167 643 CURVE SMOOTH",
"159 658 OFFCURVE",
"143 697 OFFCURVE",
"140 703 CURVE",
"139 710 OFFCURVE",
"137 714 OFFCURVE",
"134 717 CURVE SMOOTH",
"131 720 OFFCURVE",
"129 719 OFFCURVE",
"127 714 CURVE SMOOTH",
"124 709 OFFCURVE",
"121 697 OFFCURVE"
);
},
{
closed = 1;
nodes = (
"115 571 CURVE",
"128 615 LINE SMOOTH",
"131 624 OFFCURVE",
"131 634 OFFCURVE",
"134 634 CURVE SMOOTH",
"137 634 OFFCURVE",
"137 631 OFFCURVE",
"140 624 CURVE SMOOTH",
"141 621 OFFCURVE",
"145 608 OFFCURVE",
"152 593 CURVE",
"157 577 OFFCURVE",
"173 544 OFFCURVE",
"176 536 CURVE",
"180 529 OFFCURVE",
"175 531 OFFCURVE",
"166 530 CURVE",
"158 527 OFFCURVE",
"112 527 OFFCURVE",
"107 527 CURVE SMOOTH",
"100 527 OFFCURVE",
"101 531 OFFCURVE",
"104 538 CURVE SMOOTH",
"107 546 OFFCURVE",
"112 560 OFFCURVE"
);
}
);
width = 308;
}
);
unicode = 00AA;
},
{
glyphname = ordmasculine;
lastChange = "2016-11-01 20:47:46 +0000";
layers = (
{
layerId = "FC508690-ADF2-4DBF-B34D-60B2640A846D";
paths = (
{
closed = 1;
nodes = (
"123 365 CURVE SMOOTH",
"140 354 OFFCURVE",
"165 355 OFFCURVE",
"192 355 CURVE SMOOTH",
"258 355 OFFCURVE",
"322 436 OFFCURVE",
"322 526 CURVE",
"320 563 OFFCURVE",
"314 595 OFFCURVE",
"304 623 CURVE SMOOTH",
"288 671 OFFCURVE",
"254 720 OFFCURVE",
"186 720 CURVE SMOOTH",
"52 720 OFFCURVE",
"42 570 OFFCURVE",
"42 536 CURVE SMOOTH",
"42 510 OFFCURVE",
"58 410 OFFCURVE"
);
},
{
closed = 1;
nodes = (
"188 630 CURVE SMOOTH",
"232 630 OFFCURVE",
"249 581 OFFCURVE",
"249 534 CURVE SMOOTH",
"249 487 OFFCURVE",
"221 464 OFFCURVE",
"211 454 CURVE SMOOTH",
"204 446 OFFCURVE",
"195 446 OFFCURVE",
"184 446 CURVE SMOOTH",
"149 446 OFFCURVE",
"125 489 OFFCURVE",
"125 537 CURVE SMOOTH",
"125 585 OFFCURVE",
"144 630 OFFCURVE"
);
}
);
width = 363;
}
);
unicode = 00BA;
},
{
glyphname = A;
lastChange = "2016-11-10 19:54:00 +0000";
layers = (
{
anchors = (
{
name = bottom;
position = "{234, 0}";
},
{
name = ogonek;
position = "{429, 0}";
},
{
name = top;
position = "{237, 710}";
}
);
layerId = "FC508690-ADF2-4DBF-B34D-60B2640A846D";
paths = (
{
closed = 1;
nodes = (
"20 69 CURVE",
"11 32 LINE",
"8 25 OFFCURVE",
"8 21 OFFCURVE",
"7 18 CURVE SMOOTH",
"6 16 OFFCURVE",
"6 14 OFFCURVE",
"6 13 CURVE SMOOTH",
"3 4 OFFCURVE",
"4 0 OFFCURVE",
"11 0 CURVE SMOOTH",
"31 0 LINE SMOOTH",
"40 0 OFFCURVE",
"39 1 OFFCURVE",
"42 9 CURVE",
"44 18 OFFCURVE",
"46 27 OFFCURVE",
"49 35 CURVE SMOOTH",
"53 48 OFFCURVE",
"56 63 OFFCURVE",
"59 67 CURVE SMOOTH",
"63 75 OFFCURVE",
"67 92 OFFCURVE",
"68 100 CURVE",
"71 108 OFFCURVE",
"86 186 OFFCURVE",
"91 202 CURVE",
"95 221 LINE",
"97 231 LINE SMOOTH",
"99 239 OFFCURVE",
"102 242 OFFCURVE",
"106 242 CURVE SMOOTH",
"107 242 OFFCURVE",
"107 242 OFFCURVE",
"108 242 CURVE",
"169 242 LINE SMOOTH",
"201 242 OFFCURVE",
"235 242 OFFCURVE",
"243 243 CURVE SMOOTH",
"250 243 OFFCURVE",
"269 244 OFFCURVE",
"286 245 CURVE SMOOTH",
"296 246 OFFCURVE",
"306 246 OFFCURVE",
"317 246 CURVE SMOOTH",
"324 246 OFFCURVE",
"326 246 OFFCURVE",
"333 230 CURVE",
"342 201 LINE SMOOTH",
"347 185 OFFCURVE",
"354 167 OFFCURVE",
"358 158 CURVE SMOOTH",
"366 142 OFFCURVE",
"376 105 OFFCURVE",
"379 90 CURVE SMOOTH",
"380 83 OFFCURVE",
"384 64 OFFCURVE",
"391 45 CURVE",
"394 34 OFFCURVE",
"397 22 OFFCURVE",
"402 9 CURVE SMOOTH",
"405 1 OFFCURVE",
"408 0 OFFCURVE",
"413 0 CURVE SMOOTH",
"469 0 LINE SMOOTH",
"478 0 OFFCURVE",
"480 1 OFFCURVE",
"480 4 CURVE SMOOTH",
"480 6 OFFCURVE",
"479 9 OFFCURVE",
"477 14 CURVE SMOOTH",
"472 27 OFFCURVE",
"445 91 OFFCURVE",
"437 123 CURVE SMOOTH",
"429 154 OFFCURVE",
"404 227 OFFCURVE",
"396 251 CURVE",
"385 276 OFFCURVE",
"350 374 OFFCURVE",
"342 394 CURVE",
"337 412 OFFCURVE",
"293 529 OFFCURVE",
"290 547 CURVE",
"285 563 OFFCURVE",
"265 644 OFFCURVE",
"254 670 CURVE SMOOTH",
"243 698 OFFCURVE",
"236 720 OFFCURVE",
"227 720 CURVE SMOOTH",
"208 720 OFFCURVE",
"200 700 OFFCURVE",
"192 672 CURVE",
"187 645 OFFCURVE",
"166 589 OFFCURVE",
"161 574 CURVE",
"154 559 OFFCURVE",
"147 533 OFFCURVE",
"138 504 CURVE",
"130 474 OFFCURVE",
"116 425 OFFCURVE",
"111 401 CURVE SMOOTH",
"106 378 OFFCURVE",
"92 337 OFFCURVE",
"85 306 CURVE",
"80 277 OFFCURVE",
"61 219 OFFCURVE",
"53 191 CURVE SMOOTH",
"45 164 OFFCURVE",
"37 134 OFFCURVE",
"34 118 CURVE SMOOTH",
"31 99 OFFCURVE",
"23 80 OFFCURVE"
);
},
{
closed = 1;
nodes = (
"290 311 CURVE SMOOTH",
"279 311 OFFCURVE",
"256 312 OFFCURVE",
"236 312 CURVE SMOOTH",
"221 312 OFFCURVE",
"208 311 OFFCURVE",
"202 310 CURVE",
"189 310 OFFCURVE",
"154 308 OFFCURVE",
"144 308 CURVE SMOOTH",
"135 308 OFFCURVE",
"116 305 OFFCURVE",
"116 318 CURVE SMOOTH",
"116 320 OFFCURVE",
"117 322 OFFCURVE",
"118 325 CURVE SMOOTH",
"126 346 OFFCURVE",
"146 421 OFFCURVE",
"151 445 CURVE",
"159 469 OFFCURVE",
"184 559 OFFCURVE",
"189 581 CURVE",
"196 604 OFFCURVE",
"201 630 OFFCURVE",
"205 630 CURVE SMOOTH",
"210 630 OFFCURVE",
"220 595 OFFCURVE",
"225 577 CURVE",
"228 560 OFFCURVE",
"250 483 OFFCURVE",
"260 453 CURVE SMOOTH",
"271 423 OFFCURVE",
"288 358 OFFCURVE",
"296 340 CURVE SMOOTH",
"300 330 OFFCURVE",
"303 322 OFFCURVE",
"303 318 CURVE SMOOTH",
"303 313 OFFCURVE",
"300 311 OFFCURVE"
);
}
);
width = 475;
}
);
leftKerningGroup = A;
rightKerningGroup = A;
unicode = 0041;
},
{
glyphname = B;
lastChange = "2016-11-04 22:54:03 +0000";
layers = (
{
layerId = "FC508690-ADF2-4DBF-B34D-60B2640A846D";
paths = (
{
closed = 1;
nodes = (
"302 348 CURVE",
"323 355 OFFCURVE",
"342 366 OFFCURVE",
"359 381 CURVE SMOOTH",
"388 408 OFFCURVE",
"417 452 OFFCURVE",
"417 531 CURVE SMOOTH",
"417 685 OFFCURVE",
"319 713 OFFCURVE",
"211 713 CURVE SMOOTH",
"158 713 OFFCURVE",
"89 702 OFFCURVE",
"80 699 CURVE SMOOTH",
"72 697 OFFCURVE",
"69 694 OFFCURVE",
"69 690 CURVE SMOOTH",
"69 689 OFFCURVE",
"69 687 OFFCURVE",
"70 685 CURVE SMOOTH",
"71 680 OFFCURVE",
"73 657 OFFCURVE",
"73 635 CURVE SMOOTH",
"73 625 OFFCURVE",
"73 615 OFFCURVE",
"72 607 CURVE SMOOTH",
"69 579 OFFCURVE",
"69 426 OFFCURVE",
"66 370 CURVE",
"63 339 OFFCURVE",
"63 320 OFFCURVE",
"63 301 CURVE SMOOTH",
"63 286 OFFCURVE",
"63 272 OFFCURVE",
"63 253 CURVE SMOOTH",
"62 31 LINE SMOOTH",
"62 11 OFFCURVE",
"66 -7 OFFCURVE",
"90 -7 CURVE SMOOTH",
"113 -7 OFFCURVE",
"209 -4 OFFCURVE",
"248 -4 CURVE SMOOTH",
"288 -4 OFFCURVE",
"483 -12 OFFCURVE",
"483 130 CURVE SMOOTH",
"483 285 OFFCURVE",
"324 340 OFFCURVE"
);
},
{
closed = 1;
nodes = (
"193 399 CURVE",
"193 513 LINE SMOOTH",
"193 541 OFFCURVE",
"194 584 OFFCURVE",
"195 620 CURVE SMOOTH",
"197 684 LINE",
"288 684 OFFCURVE",
"380 677 OFFCURVE",
"380 523 CURVE SMOOTH",
"380 370 OFFCURVE",
"206 361 OFFCURVE",
"198 361 CURVE SMOOTH",
"191 361 OFFCURVE",
"191 363 OFFCURVE",
"191 370 CURVE SMOOTH",
"191 377 OFFCURVE",
"193 383 OFFCURVE"
);
},
{
closed = 1;
nodes = (
"224 15 CURVE SMOOTH",
"205 15 OFFCURVE",
"194 11 OFFCURVE",
"194 31 CURVE SMOOTH",
"194 49 OFFCURVE",
"190 112 OFFCURVE",
"190 136 CURVE SMOOTH",
"190 160 OFFCURVE",
"192 163 OFFCURVE",
"192 182 CURVE SMOOTH",
"192 200 OFFCURVE",
"188 278 OFFCURVE",
"188 300 CURVE SMOOTH",
"188 311 OFFCURVE",
"188 318 OFFCURVE",
"189 323 CURVE SMOOTH",
"189 326 OFFCURVE",
"189 328 OFFCURVE",
"190 331 CURVE",
"233 332 OFFCURVE",
"271 326 OFFCURVE",
"305 313 CURVE",
"362 289 OFFCURVE",
"420 240 OFFCURVE",
"420 131 CURVE SMOOTH",
"420 63 OFFCURVE",
"359 15 OFFCURVE"
);
}
);
width = 512;
}
);
unicode = 0042;
},
{
glyphname = C;
lastChange = "2016-11-10 16:47:57 +0000";
layers = (
{
anchors = (
{
name = bottom;
position = "{277, 0}";
},
{
name = top;
position = "{287, 710}";
}
);
layerId = "FC508690-ADF2-4DBF-B34D-60B2640A846D";
paths = (
{
closed = 1;
nodes = (
"467 134 CURVE",
"382 181 LINE SMOOTH",
"377 184 OFFCURVE",
"373 185 OFFCURVE",
"370 185 CURVE SMOOTH",
"365 185 OFFCURVE",
"362 180 OFFCURVE",
"355 173 CURVE SMOOTH",
"344 162 OFFCURVE",
"313 134 OFFCURVE",
"285 134 CURVE SMOOTH",
"257 134 OFFCURVE",
"167 166 OFFCURVE",
"167 329 CURVE SMOOTH",
"167 493 OFFCURVE",
"231 544 OFFCURVE",
"275 544 CURVE SMOOTH",
"300 544 OFFCURVE",
"316 523 OFFCURVE",
"335 502 CURVE SMOOTH",
"341 495 OFFCURVE",
"346 492 OFFCURVE",
"351 492 CURVE SMOOTH",
"361 492 OFFCURVE",
"371 504 OFFCURVE",
"382 518 CURVE SMOOTH",
"397 538 OFFCURVE",
"429 566 OFFCURVE",
"448 581 CURVE SMOOTH",
"456 588 OFFCURVE",
"459 593 OFFCURVE",
"459 597 CURVE SMOOTH",
"459 604 OFFCURVE",
"454 610 OFFCURVE",
"448 618 CURVE SMOOTH",
"437 634 OFFCURVE",
"382 704 OFFCURVE",
"271 704 CURVE SMOOTH",
"159 704 OFFCURVE",
"37 562 OFFCURVE",
"37 354 CURVE SMOOTH",
"37 146 OFFCURVE",
"162 -12 OFFCURVE",
"293 -12 CURVE SMOOTH",
"423 -12 OFFCURVE",
"481 84 OFFCURVE",
"492 103 CURVE SMOOTH",
"494 107 OFFCURVE",
"495 111 OFFCURVE",
"495 114 CURVE SMOOTH",
"495 124 OFFCURVE",
"482 127 OFFCURVE"
);
}
);
width = 515;
}
);
leftKerningGroup = O;
unicode = 0043;
},
{
glyphname = D;
lastChange = "2016-11-09 01:58:21 +0000";
layers = (
{
anchors = (
{
name = bottom;
position = "{283, 0}";
},
{
name = top;
position = "{274, 710}";
}
);
layerId = "FC508690-ADF2-4DBF-B34D-60B2640A846D";
paths = (
{
closed = 1;
nodes = (
"171 698 CURVE",
"135 696 LINE",
"111 696 OFFCURVE",
"68 701 OFFCURVE",
"68 681 CURVE SMOOTH",
"68 660 OFFCURVE",
"70 592 OFFCURVE",
"70 511 CURVE SMOOTH",
"70 431 OFFCURVE",
"62 381 OFFCURVE",
"62 303 CURVE SMOOTH",
"62 224 OFFCURVE",
"67 175 OFFCURVE",
"67 155 CURVE SMOOTH",
"67 134 OFFCURVE",
"70 84 OFFCURVE",
"70 60 CURVE SMOOTH",
"70 52 OFFCURVE",
"69 43 OFFCURVE",
"69 34 CURVE SMOOTH",
"69 16 OFFCURVE",
"72 0 OFFCURVE",
"88 0 CURVE SMOOTH",
"113 0 OFFCURVE",
"185 2 OFFCURVE",
"224 2 CURVE SMOOTH",
"262 2 OFFCURVE",
"542 14 OFFCURVE",
"542 315 CURVE SMOOTH",
"542 639 OFFCURVE",
"332 700 OFFCURVE",
"239 700 CURVE SMOOTH",
"216 700 OFFCURVE",
"192 699 OFFCURVE"
);
},
{
closed = 1;
nodes = (
"241 214 CURVE",
"241 231 OFFCURVE",
"241 249 OFFCURVE",
"242 266 CURVE SMOOTH",
"243 295 OFFCURVE",
"244 327 OFFCURVE",
"244 350 CURVE SMOOTH",
"244 382 OFFCURVE",
"248 420 OFFCURVE",
"248 455 CURVE SMOOTH",
"248 467 OFFCURVE",
"247 478 OFFCURVE",
"246 489 CURVE",
"263 484 OFFCURVE",
"279 476 OFFCURVE",
"293 465 CURVE SMOOTH",
"317 446 OFFCURVE",
"341 415 OFFCURVE",
"341 364 CURVE SMOOTH",
"341 312 OFFCURVE",
"316 274 OFFCURVE",
"291 250 CURVE SMOOTH",
"276 235 OFFCURVE",
"260 223 OFFCURVE"
);
}
);
width = 577;
}
);
rightKerningGroup = O;
unicode = 0044;
},
{
glyphname = E;
lastChange = "2016-11-10 16:49:30 +0000";
layers = (
{
anchors = (
{
name = bottom;
position = "{270, 0}";
},
{
name = ogonek;
position = "{395, 0}";
},
{
name = top;
position = "{277, 710}";
}
);
layerId = "FC508690-ADF2-4DBF-B34D-60B2640A846D";
paths = (
{
closed = 1;
nodes = (
"63 232 CURVE",
"63 95 LINE SMOOTH",
"63 74 OFFCURVE",
"65 64 OFFCURVE",
"65 52 CURVE SMOOTH",
"65 40 OFFCURVE",
"65 26 OFFCURVE",
"66 15 CURVE SMOOTH",
"66 6 OFFCURVE",
"65 -2 OFFCURVE",
"74 -2 CURVE SMOOTH",
"76 -2 OFFCURVE",
"78 -1 OFFCURVE",
"80 -1 CURVE SMOOTH",
"93 -1 OFFCURVE",
"190 3 OFFCURVE",
"238 3 CURVE SMOOTH",
"285 3 OFFCURVE",
"381 1 OFFCURVE",
"414 1 CURVE SMOOTH",
"446 1 OFFCURVE",
"462 -5 OFFCURVE",
"462 23 CURVE SMOOTH",
"462 52 OFFCURVE",
"463 73 OFFCURVE",
"463 93 CURVE SMOOTH",
"463 99 OFFCURVE",
"464 107 OFFCURVE",
"464 113 CURVE SMOOTH",
"464 125 OFFCURVE",
"461 134 OFFCURVE",
"444 134 CURVE SMOOTH",
"435 134 OFFCURVE",
"420 133 OFFCURVE",
"402 133 CURVE SMOOTH",
"362 133 OFFCURVE",
"309 135 OFFCURVE",
"276 135 CURVE SMOOTH",
"231 135 OFFCURVE",
"181 134 OFFCURVE",
"158 134 CURVE SMOOTH",
"147 134 OFFCURVE",
"137 133 OFFCURVE",
"130 133 CURVE",
"126 132 OFFCURVE",
"122 132 OFFCURVE",
"119 132 CURVE",
"119 232 LINE",
"120 231 OFFCURVE",
"122 231 OFFCURVE",
"125 231 CURVE",
"127 230 OFFCURVE",
"131 230 OFFCURVE",
"138 230 CURVE SMOOTH",
"149 230 OFFCURVE",
"192 238 OFFCURVE",
"256 238 CURVE SMOOTH",
"319 238 OFFCURVE",
"340 236 OFFCURVE",
"356 236 CURVE SMOOTH",
"363 236 OFFCURVE",
"370 233 OFFCURVE",
"374 233 CURVE SMOOTH",
"380 233 OFFCURVE",
"383 236 OFFCURVE",
"383 249 CURVE SMOOTH",
"383 274 OFFCURVE",
"382 283 OFFCURVE",
"382 302 CURVE SMOOTH",
"382 321 OFFCURVE",
"384 326 OFFCURVE",
"384 333 CURVE SMOOTH",
"384 340 OFFCURVE",
"382 345 OFFCURVE",
"371 345 CURVE SMOOTH",
"360 345 OFFCURVE",
"346 348 OFFCURVE",
"322 348 CURVE SMOOTH",
"298 348 OFFCURVE",
"253 344 OFFCURVE",
"216 344 CURVE SMOOTH",
"188 344 OFFCURVE",
"163 344 OFFCURVE",
"146 345 CURVE SMOOTH",
"136 345 OFFCURVE",
"127 345 OFFCURVE",
"119 346 CURVE",
"118 357 OFFCURVE",
"118 367 OFFCURVE",
"118 378 CURVE SMOOTH",
"118 437 LINE SMOOTH",
"118 472 OFFCURVE",
"121 517 OFFCURVE",
"121 533 CURVE SMOOTH",
"121 548 OFFCURVE",
"120 553 OFFCURVE",
"131 553 CURVE SMOOTH",
"137 553 OFFCURVE",
"160 552 OFFCURVE",
"184 552 CURVE SMOOTH",
"203 552 OFFCURVE",
"222 553 OFFCURVE",
"237 554 CURVE SMOOTH",
"246 555 OFFCURVE",
"255 555 OFFCURVE",
"264 555 CURVE SMOOTH",
"289 555 OFFCURVE",
"315 553 OFFCURVE",
"340 553 CURVE SMOOTH",
"382 553 OFFCURVE",
"412 553 OFFCURVE",
"427 550 CURVE SMOOTH",
"433 549 OFFCURVE",
"442 545 OFFCURVE",
"449 545 CURVE SMOOTH",
"456 545 OFFCURVE",
"462 548 OFFCURVE",
"463 560 CURVE",
"466 577 OFFCURVE",
"466 588 OFFCURVE",
"466 597 CURVE SMOOTH",
"466 628 OFFCURVE",
"462 652 OFFCURVE",
"462 673 CURVE SMOOTH",
"462 692 OFFCURVE",
"460 701 OFFCURVE",
"441 701 CURVE SMOOTH",
"422 701 OFFCURVE",
"371 705 OFFCURVE",
"330 705 CURVE SMOOTH",
"291 705 OFFCURVE",
"223 696 OFFCURVE",
"180 696 CURVE SMOOTH",
"135 696 OFFCURVE",
"117 699 OFFCURVE",
"102 699 CURVE SMOOTH",
"97 699 OFFCURVE",
"92 700 OFFCURVE",
"87 700 CURVE SMOOTH",
"76 700 OFFCURVE",
"68 697 OFFCURVE",
"68 678 CURVE SMOOTH",
"67 650 OFFCURVE",
"65 591 OFFCURVE",
"65 531 CURVE SMOOTH",
"65 471 OFFCURVE",
"70 464 OFFCURVE",
"70 387 CURVE SMOOTH",
"70 310 OFFCURVE",
"63 292 OFFCURVE"
);
}
);
width = 514;
}
);
unicode = 0045;
},
{
glyphname = F;
lastChange = "2016-11-09 01:58:31 +0000";
layers = (
{
layerId = "FC508690-ADF2-4DBF-B34D-60B2640A846D";
paths = (
{
closed = 1;
nodes = (
"237 342 CURVE",
"330 342 LINE SMOOTH",
"353 342 OFFCURVE",
"383 340 OFFCURVE",
"400 340 CURVE SMOOTH",
"419 340 OFFCURVE",
"423 343 OFFCURVE",
"423 354 CURVE SMOOTH",
"423 365 OFFCURVE",
"424 376 OFFCURVE",
"424 387 CURVE SMOOTH",
"424 398 OFFCURVE",
"420 404 OFFCURVE",
"397 404 CURVE SMOOTH",
"374 404 OFFCURVE",
"341 402 OFFCURVE",
"318 402 CURVE SMOOTH",
"306 402 OFFCURVE",
"287 401 OFFCURVE",
"270 401 CURVE",
"260 400 OFFCURVE",
"250 400 OFFCURVE",
"239 400 CURVE",
"239 424 LINE SMOOTH",
"239 439 OFFCURVE",
"240 456 OFFCURVE",
"240 475 CURVE SMOOTH",
"240 511 OFFCURVE",
"241 541 OFFCURVE",
"241 564 CURVE SMOOTH",
"241 575 OFFCURVE",
"242 588 OFFCURVE",
"243 599 CURVE SMOOTH",
"246 617 LINE",
"295 620 LINE",
"322 623 OFFCURVE",
"352 624 OFFCURVE",
"369 624 CURVE SMOOTH",
"404 624 OFFCURVE",
"444 622 OFFCURVE",
"456 622 CURVE SMOOTH",
"468 622 OFFCURVE",
"474 621 OFFCURVE",
"474 634 CURVE SMOOTH",
"474 684 LINE SMOOTH",
"474 694 OFFCURVE",
"466 699 OFFCURVE",
"451 699 CURVE SMOOTH",
"367 700 LINE SMOOTH",
"346 700 OFFCURVE",
"275 694 OFFCURVE",
"254 694 CURVE SMOOTH",
"234 694 OFFCURVE",
"138 690 OFFCURVE",
"114 690 CURVE SMOOTH",
"103 690 OFFCURVE",
"94 692 OFFCURVE",
"86 692 CURVE SMOOTH",
"75 692 OFFCURVE",
"68 687 OFFCURVE",
"68 662 CURVE SMOOTH",
"69 621 OFFCURVE",
"70 571 OFFCURVE",
"70 524 CURVE SMOOTH",
"70 477 OFFCURVE",
"67 432 OFFCURVE",
"67 388 CURVE SMOOTH",
"67 344 OFFCURVE",
"68 317 OFFCURVE",
"68 274 CURVE SMOOTH",
"68 231 OFFCURVE",
"62 212 OFFCURVE",
"62 169 CURVE SMOOTH",
"62 126 OFFCURVE",
"64 92 OFFCURVE",
"64 77 CURVE SMOOTH",
"65 24 LINE SMOOTH",
"65 12 OFFCURVE",
"62 5 OFFCURVE",
"81 4 CURVE SMOOTH",
"92 4 OFFCURVE",
"125 5 OFFCURVE",
"154 5 CURVE SMOOTH",
"168 5 OFFCURVE",
"182 5 OFFCURVE",
"191 4 CURVE SMOOTH",
"200 3 OFFCURVE",
"208 2 OFFCURVE",
"214 2 CURVE SMOOTH",
"229 2 OFFCURVE",
"237 7 OFFCURVE",
"237 25 CURVE SMOOTH",
"236 143 LINE SMOOTH",
"236 178 OFFCURVE",
"239 206 OFFCURVE",
"239 241 CURVE SMOOTH",
"239 258 OFFCURVE",
"238 283 OFFCURVE",
"238 304 CURVE",
"237 316 OFFCURVE",
"237 329 OFFCURVE"
);
}
);
width = 476;
}
);
rightKerningGroup = F;
unicode = 0046;
},
{
glyphname = G;
lastChange = "2016-11-09 01:58:04 +0000";
layers = (
{
anchors = (
{
name = bottom;
position = "{317, 0}";
},
{
name = top;
position = "{324, 710}";
}
);
layerId = "FC508690-ADF2-4DBF-B34D-60B2640A846D";
paths = (
{
closed = 1;
nodes = (
"342 294 CURVE",
"362 290 LINE",
"362 271 OFFCURVE",
"360 255 OFFCURVE",
"355 240 CURVE SMOOTH",
"347 215 OFFCURVE",
"331 190 OFFCURVE",
"299 190 CURVE SMOOTH",
"232 190 OFFCURVE",
"236 286 OFFCURVE",
"236 342 CURVE SMOOTH",
"236 400 OFFCURVE",
"256 486 OFFCURVE",
"300 486 CURVE SMOOTH",
"325 486 OFFCURVE",
"335 461 OFFCURVE",
"342 452 CURVE SMOOTH",
"348 445 OFFCURVE",
"349 434 OFFCURVE",
"357 434 CURVE SMOOTH",
"360 434 OFFCURVE",
"362 435 OFFCURVE",
"365 436 CURVE SMOOTH",
"368 436 OFFCURVE",
"370 437 OFFCURVE",
"373 439 CURVE SMOOTH",
"378 442 OFFCURVE",
"384 445 OFFCURVE",
"392 452 CURVE",
"409 463 OFFCURVE",
"428 477 OFFCURVE",
"447 488 CURVE",
"467 497 OFFCURVE",
"503 517 OFFCURVE",
"519 525 CURVE SMOOTH",
"532 532 OFFCURVE",
"537 532 OFFCURVE",
"537 538 CURVE SMOOTH",
"537 539 OFFCURVE",
"537 541 OFFCURVE",
"536 543 CURVE SMOOTH",
"532 552 OFFCURVE",
"526 572 OFFCURVE",
"521 583 CURVE SMOOTH",
"516 593 OFFCURVE",
"460 719 OFFCURVE",
"311 719 CURVE SMOOTH",
"239 719 OFFCURVE",
"41 685 OFFCURVE",
"41 338 CURVE SMOOTH",
"41 37 OFFCURVE",
"253 -14 OFFCURVE",
"316 -14 CURVE SMOOTH",
"401 -14 OFFCURVE",
"541 42 OFFCURVE",
"557 311 CURVE",
"558 317 OFFCURVE",
"557 323 OFFCURVE",
"556 328 CURVE SMOOTH",
"553 337 OFFCURVE",
"548 345 OFFCURVE",
"533 346 CURVE SMOOTH",
"502 347 OFFCURVE",
"446 358 OFFCURVE",
"403 363 CURVE SMOOTH",
"363 367 OFFCURVE",
"330 372 OFFCURVE",
"321 373 CURVE SMOOTH",
"310 374 OFFCURVE",
"303 376 OFFCURVE",
"296 352 CURVE SMOOTH",
"291 332 OFFCURVE",
"288 322 OFFCURVE",
"288 313 CURVE SMOOTH",
"288 307 OFFCURVE",
"290 301 OFFCURVE",
"307 299 CURVE SMOOTH",
"318 298 OFFCURVE",
"330 296 OFFCURVE"
);
}
);
width = 592;
}
);
leftKerningGroup = O;
unicode = 0047;
},
{
glyphname = H;
lastChange = "2016-11-04 22:54:03 +0000";
layers = (
{
anchors = (
{
name = bottom;
position = "{377, 0}";
},
{
name = top;
position = "{387, 710}";
}
);
layerId = "FC508690-ADF2-4DBF-B34D-60B2640A846D";
paths = (
{
closed = 1;
nodes = (
"259 392 CURVE",
"199 394 LINE",
"202 453 LINE",
"206 552 LINE SMOOTH",
"209 607 OFFCURVE",
"210 659 OFFCURVE",
"210 671 CURVE SMOOTH",
"210 683 OFFCURVE",
"214 701 OFFCURVE",
"195 701 CURVE SMOOTH",
"181 701 OFFCURVE",
"164 703 OFFCURVE",
"147 703 CURVE SMOOTH",
"141 703 OFFCURVE",
"135 703 OFFCURVE",
"130 702 CURVE SMOOTH",
"121 701 OFFCURVE",
"114 700 OFFCURVE",
"107 700 CURVE SMOOTH",
"99 700 OFFCURVE",
"92 701 OFFCURVE",
"85 701 CURVE SMOOTH",
"75 701 OFFCURVE",
"66 700 OFFCURVE",
"66 670 CURVE SMOOTH",
"66 645 OFFCURVE",
"64 475 OFFCURVE",
"64 411 CURVE SMOOTH",
"64 350 OFFCURVE",
"66 106 OFFCURVE",
"66 65 CURVE SMOOTH",
"66 22 OFFCURVE",
"61 -1 OFFCURVE",
"89 2 CURVE SMOOTH",
"117 5 OFFCURVE",
"150 6 OFFCURVE",
"169 5 CURVE SMOOTH",
"184 5 OFFCURVE",
"204 1 OFFCURVE",
"204 25 CURVE SMOOTH",
"204 29 OFFCURVE",
"203 34 OFFCURVE",
"202 40 CURVE SMOOTH",
"198 60 OFFCURVE",
"197 102 OFFCURVE",
"197 144 CURVE SMOOTH",
"197 186 OFFCURVE",
"198 229 OFFCURVE",
"198 252 CURVE SMOOTH",
"198 275 OFFCURVE",
"199 297 OFFCURVE",
"200 313 CURVE SMOOTH",
"201 322 OFFCURVE",
"201 331 OFFCURVE",
"201 339 CURVE",
"222 338 OFFCURVE",
"241 338 OFFCURVE",
"260 338 CURVE SMOOTH",
"354 338 LINE SMOOTH",
"377 338 OFFCURVE",
"427 338 OFFCURVE",
"470 339 CURVE SMOOTH",
"551 341 LINE",
"551 267 LINE SMOOTH",
"551 227 OFFCURVE",
"550 181 OFFCURVE",
"551 160 CURVE",
"551 106 OFFCURVE",
"550 -13 OFFCURVE",
"550 14 CURVE SMOOTH",
"550 9 OFFCURVE",
"551 4 OFFCURVE",
"558 4 CURVE SMOOTH",
"569 4 OFFCURVE",
"589 5 OFFCURVE",
"594 6 CURVE SMOOTH",
"598 7 OFFCURVE",
"604 5 OFFCURVE",
"604 13 CURVE SMOOTH",
"604 14 OFFCURVE",
"604 16 OFFCURVE",
"603 19 CURVE SMOOTH",
"602 26 OFFCURVE",
"601 36 OFFCURVE",
"601 48 CURVE SMOOTH",
"601 62 OFFCURVE",
"602 78 OFFCURVE",
"602 88 CURVE SMOOTH",
"602 106 OFFCURVE",
"608 255 OFFCURVE",
"608 300 CURVE SMOOTH",
"608 344 OFFCURVE",
"611 558 OFFCURVE",
"615 603 CURVE SMOOTH",
"619 648 OFFCURVE",
"623 678 OFFCURVE",
"624 689 CURVE",
"625 692 OFFCURVE",
"626 695 OFFCURVE",
"626 697 CURVE SMOOTH",
"626 702 OFFCURVE",
"623 705 OFFCURVE",
"616 707 CURVE SMOOTH",
"611 709 OFFCURVE",
"604 709 OFFCURVE",
"599 709 CURVE SMOOTH",
"593 709 OFFCURVE",
"588 709 OFFCURVE",
"584 710 CURVE SMOOTH",
"581 710 OFFCURVE",
"577 711 OFFCURVE",
"573 711 CURVE SMOOTH",
"568 711 OFFCURVE",
"563 710 OFFCURVE",
"562 702 CURVE",
"562 689 OFFCURVE",
"556 510 OFFCURVE",
"556 476 CURVE SMOOTH",
"556 459 OFFCURVE",
"557 438 OFFCURVE",
"557 421 CURVE SMOOTH",
"557 391 LINE",
"531 390 OFFCURVE",
"506 390 OFFCURVE",
"482 390 CURVE SMOOTH",
"441 389 OFFCURVE",
"392 389 OFFCURVE",
"363 389 CURVE SMOOTH",
"334 389 OFFCURVE",
"294 391 OFFCURVE"
);
}
);
width = 682;
}
);
unicode = 0048;
},
{
glyphname = I;
lastChange = "2016-11-04 22:54:03 +0000";
layers = (
{
anchors = (
{
name = bottom;
position = "{75, 0}";
},
{
name = top;
position = "{98, 710}";
}
);
layerId = "FC508690-ADF2-4DBF-B34D-60B2640A846D";
paths = (
{
closed = 1;
nodes = (
"116 668 CURVE",
"116 676 OFFCURVE",
"118 685 OFFCURVE",
"118 692 CURVE SMOOTH",
"118 700 OFFCURVE",
"116 706 OFFCURVE",
"108 706 CURVE SMOOTH",
"93 706 OFFCURVE",
"78 707 OFFCURVE",
"71 707 CURVE SMOOTH",
"58 707 OFFCURVE",
"55 695 OFFCURVE",
"55 681 CURVE SMOOTH",
"55 674 OFFCURVE",
"56 667 OFFCURVE",
"56 660 CURVE",
"59 636 OFFCURVE",
"49 442 OFFCURVE",
"49 376 CURVE SMOOTH",
"49 310 OFFCURVE",
"45 73 OFFCURVE",
"45 35 CURVE SMOOTH",
"45 -11 OFFCURVE",
"36 -7 OFFCURVE",
"69 -7 CURVE SMOOTH",
"81 -7 OFFCURVE",
"94 -7 OFFCURVE",
"100 -3 CURVE SMOOTH",
"106 0 OFFCURVE",
"110 2 OFFCURVE",
"110 13 CURVE SMOOTH",
"110 17 OFFCURVE",
"110 21 OFFCURVE",
"109 27 CURVE SMOOTH",
"106 52 OFFCURVE",
"103 227 OFFCURVE",
"103 279 CURVE SMOOTH",
"103 330 OFFCURVE",
"111 501 OFFCURVE",
"111 555 CURVE SMOOTH",
"112 610 OFFCURVE",
"113 648 OFFCURVE"
);
}
);
width = 153;
}
);
unicode = 0049;
},
{
glyphname = J;
lastChange = "2016-11-09 20:22:37 +0000";
layers = (
{
anchors = (
{
name = bottom;
position = "{375, 0}";
},
{
name = top;
position = "{391, 710}";
}
);
layerId = "FC508690-ADF2-4DBF-B34D-60B2640A846D";
paths = (
{
closed = 1;
nodes = (
"98 345 CURVE SMOOTH",
"98 366 OFFCURVE",
"113 403 OFFCURVE",
"84 400 CURVE SMOOTH",
"55 396 OFFCURVE",
"34 393 OFFCURVE",
"22 393 CURVE",
"11 394 OFFCURVE",
"7 395 OFFCURVE",
"7 376 CURVE SMOOTH",
"7 357 OFFCURVE",
"5 287 OFFCURVE",
"5 247 CURVE SMOOTH",
"5 205 OFFCURVE",
"23 -7 OFFCURVE",
"244 -7 CURVE SMOOTH",
"467 -7 OFFCURVE",
"429 331 OFFCURVE",
"433 374 CURVE",
"435 680 LINE",
"436 707 OFFCURVE",
"434 712 OFFCURVE",
"411 713 CURVE",
"406 714 OFFCURVE",
"400 714 OFFCURVE",
"395 714 CURVE SMOOTH",
"378 714 OFFCURVE",
"364 711 OFFCURVE",
"352 710 CURVE",
"339 710 OFFCURVE",
"324 709 OFFCURVE",
"327 672 CURVE",
"327 649 OFFCURVE",
"326 611 OFFCURVE",
"326 575 CURVE SMOOTH",
"326 549 OFFCURVE",
"327 524 OFFCURVE",
"328 509 CURVE",
"328 474 OFFCURVE",
"325 278 OFFCURVE",
"325 233 CURVE SMOOTH",
"325 188 OFFCURVE",
"299 103 OFFCURVE",
"212 103 CURVE SMOOTH",
"148 103 OFFCURVE",
"98 142 OFFCURVE"
);
}
);
width = 491;
}
);
leftKerningGroup = J;
unicode = 004A;
},
{
glyphname = K;
lastChange = "2016-11-10 16:49:50 +0000";
layers = (
{
anchors = (
{
name = bottom;
position = "{307, 0}";
},
{
name = top;
position = "{326, 710}";
}
);
layerId = "FC508690-ADF2-4DBF-B34D-60B2640A846D";
paths = (
{
closed = 1;
nodes = (
"143 3 CURVE",
"183 3 LINE SMOOTH",
"190 3 OFFCURVE",
"197 3 OFFCURVE",
"197 13 CURVE SMOOTH",
"197 15 OFFCURVE",
"197 17 OFFCURVE",
"196 20 CURVE SMOOTH",
"194 27 OFFCURVE",
"193 47 OFFCURVE",
"193 68 CURVE SMOOTH",
"193 94 OFFCURVE",
"194 123 OFFCURVE",
"194 137 CURVE SMOOTH",
"194 150 OFFCURVE",
"195 178 OFFCURVE",
"196 201 CURVE SMOOTH",
"197 214 OFFCURVE",
"197 229 OFFCURVE",
"197 244 CURVE",
"233 203 LINE SMOOTH",
"252 180 OFFCURVE",
"274 155 OFFCURVE",
"286 144 CURVE",
"307 121 OFFCURVE",
"376 25 OFFCURVE",
"389 14 CURVE",
"402 1 OFFCURVE",
"411 -4 OFFCURVE",
"428 -4 CURVE SMOOTH",
"446 -4 OFFCURVE",
"544 -1 OFFCURVE",
"557 -1 CURVE SMOOTH",
"567 -1 OFFCURVE",
"574 2 OFFCURVE",
"574 7 CURVE SMOOTH",
"574 10 OFFCURVE",
"573 12 OFFCURVE",
"571 15 CURVE SMOOTH",
"562 24 OFFCURVE",
"516 85 OFFCURVE",
"497 101 CURVE SMOOTH",
"478 117 OFFCURVE",
"390 228 OFFCURVE",
"366 252 CURVE SMOOTH",
"354 264 OFFCURVE",
"332 288 OFFCURVE",
"313 311 CURVE SMOOTH",
"302 324 OFFCURVE",
"290 337 OFFCURVE",
"278 352 CURVE",
"332 408 LINE SMOOTH",
"360 437 OFFCURVE",
"388 468 OFFCURVE",
"395 476 CURVE",
"405 491 OFFCURVE",
"496 603 OFFCURVE",
"511 616 CURVE SMOOTH",
"527 629 OFFCURVE",
"569 673 OFFCURVE",
"574 678 CURVE SMOOTH",
"576 680 OFFCURVE",
"579 684 OFFCURVE",
"579 687 CURVE SMOOTH",
"579 690 OFFCURVE",
"577 693 OFFCURVE",
"572 694 CURVE SMOOTH",
"563 695 OFFCURVE",
"551 694 OFFCURVE",
"544 694 CURVE SMOOTH",
"537 693 OFFCURVE",
"531 689 OFFCURVE",
"523 677 CURVE SMOOTH",
"516 665 OFFCURVE",
"456 602 OFFCURVE",
"429 572 CURVE",
"401 544 OFFCURVE",
"347 486 OFFCURVE",
"336 470 CURVE",
"322 454 OFFCURVE",
"260 386 OFFCURVE",
"242 370 CURVE SMOOTH",
"233 361 OFFCURVE",
"222 351 OFFCURVE",
"213 340 CURVE SMOOTH",
"197 323 LINE",
"195 357 LINE SMOOTH",
"195 367 OFFCURVE",
"194 378 OFFCURVE",
"194 390 CURVE SMOOTH",
"194 402 OFFCURVE",
"195 414 OFFCURVE",
"196 425 CURVE SMOOTH",
"200 457 OFFCURVE",
"200 527 OFFCURVE",
"200 574 CURVE SMOOTH",
"200 593 OFFCURVE",
"200 608 OFFCURVE",
"200 615 CURVE SMOOTH",
"199 643 OFFCURVE",
"200 662 OFFCURVE",
"200 674 CURVE SMOOTH",
"200 684 OFFCURVE",
"203 694 OFFCURVE",
"187 694 CURVE SMOOTH",
"186 694 OFFCURVE",
"183 694 OFFCURVE",
"181 694 CURVE SMOOTH",
"158 693 OFFCURVE",
"130 695 OFFCURVE",
"107 695 CURVE SMOOTH",
"101 695 OFFCURVE",
"93 698 OFFCURVE",
"87 698 CURVE SMOOTH",
"82 698 OFFCURVE",
"77 696 OFFCURVE",
"76 688 CURVE",
"73 676 OFFCURVE",
"71 628 OFFCURVE",
"71 590 CURVE SMOOTH",
"71 572 OFFCURVE",
"71 556 OFFCURVE",
"72 548 CURVE SMOOTH",
"73 539 OFFCURVE",
"73 521 OFFCURVE",
"73 501 CURVE SMOOTH",
"73 464 OFFCURVE",
"72 419 OFFCURVE",
"70 401 CURVE SMOOTH",
"66 374 OFFCURVE",
"61 111 OFFCURVE",
"61 88 CURVE SMOOTH",
"61 65 OFFCURVE",
"69 34 OFFCURVE",
"66 22 CURVE SMOOTH",
"64 16 OFFCURVE",
"62 10 OFFCURVE",
"62 7 CURVE SMOOTH",
"62 3 OFFCURVE",
"64 1 OFFCURVE",
"69 1 CURVE",
"71 0 OFFCURVE",
"76 0 OFFCURVE",
"81 0 CURVE SMOOTH",
"100 0 OFFCURVE",
"131 3 OFFCURVE"
);
}
);
width = 601;
}
);
unicode = 004B;
},
{
glyphname = L;
lastChange = "2016-11-09 01:58:47 +0000";
layers = (
{
anchors = (
{
name = bottom;
position = "{290, 0}";
},
{
name = top;
position = "{201, 710}";
}
);
layerId = "FC508690-ADF2-4DBF-B34D-60B2640A846D";
paths = (
{
closed = 1;
nodes = (
"394 51 LINE",
"251 56 LINE",
"249 91 LINE SMOOTH",
"249 101 OFFCURVE",
"248 110 OFFCURVE",
"248 119 CURVE SMOOTH",
"248 127 OFFCURVE",
"249 135 OFFCURVE",
"249 139 CURVE SMOOTH",
"249 156 OFFCURVE",
"251 230 OFFCURVE",
"251 248 CURVE SMOOTH",
"251 267 OFFCURVE",
"248 429 OFFCURVE",
"248 473 CURVE SMOOTH",
"248 517 OFFCURVE",
"254 633 OFFCURVE",
"254 650 CURVE SMOOTH",
"254 674 OFFCURVE",
"270 701 OFFCURVE",
"230 696 CURVE SMOOTH",
"214 694 OFFCURVE",
"197 693 OFFCURVE",
"179 693 CURVE SMOOTH",
"152 693 OFFCURVE",
"126 695 OFFCURVE",
"112 697 CURVE",
"99 697 OFFCURVE",
"86 703 OFFCURVE",
"76 703 CURVE SMOOTH",
"68 703 OFFCURVE",
"63 699 OFFCURVE",
"63 686 CURVE SMOOTH",
"63 658 OFFCURVE",
"72 457 OFFCURVE",
"72 425 CURVE SMOOTH",
"72 393 OFFCURVE",
"68 126 OFFCURVE",
"68 90 CURVE SMOOTH",
"68 49 OFFCURVE",
"68 20 OFFCURVE",
"68 12 CURVE SMOOTH",
"68 2 OFFCURVE",
"73 -8 OFFCURVE",
"90 -8 CURVE SMOOTH",
"107 -8 OFFCURVE",
"309 1 OFFCURVE",
"343 1 CURVE SMOOTH",
"378 1 OFFCURVE",
"478 -8 OFFCURVE",
"495 -8 CURVE SMOOTH",
"511 -8 OFFCURVE",
"524 -11 OFFCURVE",
"524 2 CURVE SMOOTH",
"524 14 OFFCURVE",
"521 30 OFFCURVE",
"522 37 CURVE SMOOTH",
"522 44 OFFCURVE",
"526 50 OFFCURVE",
"515 50 CURVE SMOOTH",
"515 50 OFFCURVE",
"514 50 OFFCURVE",
"513 50 CURVE"
);
}
);
width = 524;
}
);
rightKerningGroup = L;
unicode = 004C;
},
{
glyphname = M;
lastChange = "2016-11-04 22:54:03 +0000";
layers = (
{
layerId = "FC508690-ADF2-4DBF-B34D-60B2640A846D";
paths = (
{
closed = 1;
nodes = (
"165 436 CURVE",
"167 480 LINE",
"172 465 OFFCURVE",
"178 450 OFFCURVE",
"184 436 CURVE SMOOTH",
"193 412 OFFCURVE",
"204 384 OFFCURVE",
"211 369 CURVE SMOOTH",
"224 339 OFFCURVE",
"290 225 OFFCURVE",
"300 196 CURVE SMOOTH",
"310 167 OFFCURVE",
"335 103 OFFCURVE",
"346 87 CURVE SMOOTH",
"355 72 OFFCURVE",
"359 64 OFFCURVE",
"363 64 CURVE SMOOTH",
"367 64 OFFCURVE",
"385 106 OFFCURVE",
"393 125 CURVE SMOOTH",
"401 144 OFFCURVE",
"468 283 OFFCURVE",
"481 307 CURVE SMOOTH",
"494 331 OFFCURVE",
"557 458 OFFCURVE",
"568 480 CURVE SMOOTH",
"573 491 OFFCURVE",
"580 505 OFFCURVE",
"587 517 CURVE SMOOTH",
"590 524 OFFCURVE",
"594 531 OFFCURVE",
"599 538 CURVE",
"597 466 LINE SMOOTH",
"596 427 OFFCURVE",
"594 389 OFFCURVE",
"595 374 CURVE",
"595 345 OFFCURVE",
"591 234 OFFCURVE",
"588 204 CURVE SMOOTH",
"584 167 OFFCURVE",
"586 -19 OFFCURVE",
"586 25 CURVE SMOOTH",
"586 13 OFFCURVE",
"587 7 OFFCURVE",
"593 6 CURVE",
"601 6 OFFCURVE",
"612 8 OFFCURVE",
"618 8 CURVE SMOOTH",
"619 8 OFFCURVE",
"619 8 OFFCURVE",
"620 8 CURVE SMOOTH",
"623 7 OFFCURVE",
"626 8 OFFCURVE",
"626 18 CURVE SMOOTH",
"626 19 OFFCURVE",
"626 21 OFFCURVE",
"626 23 CURVE SMOOTH",
"626 31 OFFCURVE",
"625 77 OFFCURVE",
"625 120 CURVE SMOOTH",
"625 152 OFFCURVE",
"626 184 OFFCURVE",
"627 197 CURVE SMOOTH",
"630 228 OFFCURVE",
"634 354 OFFCURVE",
"634 400 CURVE SMOOTH",
"634 443 OFFCURVE",
"634 613 OFFCURVE",
"638 640 CURVE SMOOTH",
"640 658 OFFCURVE",
"647 682 OFFCURVE",
"647 697 CURVE SMOOTH",
"647 705 OFFCURVE",
"645 710 OFFCURVE",
"639 710 CURVE SMOOTH",
"625 710 OFFCURVE",
"588 642 OFFCURVE",
"569 604 CURVE",
"548 566 OFFCURVE",
"509 483 OFFCURVE",
"477 421 CURVE SMOOTH",
"412 291 LINE SMOOTH",
"399 264 OFFCURVE",
"385 237 OFFCURVE",
"370 208 CURVE",
"349 255 LINE SMOOTH",
"338 282 OFFCURVE",
"324 312 OFFCURVE",
"317 331 CURVE SMOOTH",
"304 371 OFFCURVE",
"265 461 OFFCURVE",
"246 493 CURVE",
"230 528 OFFCURVE",
"195 611 OFFCURVE",
"187 652 CURVE",
"181 677 OFFCURVE",
"179 709 OFFCURVE",
"162 715 CURVE",
"153 717 OFFCURVE",
"144 717 OFFCURVE",
"134 717 CURVE SMOOTH",
"126 717 OFFCURVE",
"118 717 OFFCURVE",
"109 716 CURVE SMOOTH",
"95 714 OFFCURVE",
"90 719 OFFCURVE",
"85 719 CURVE SMOOTH",
"83 719 OFFCURVE",
"81 719 OFFCURVE",
"78 716 CURVE SMOOTH",
"74 712 OFFCURVE",
"73 695 OFFCURVE",
"73 676 CURVE SMOOTH",
"73 657 OFFCURVE",
"74 636 OFFCURVE",
"74 622 CURVE SMOOTH",
"74 593 OFFCURVE",
"72 470 OFFCURVE",
"72 434 CURVE SMOOTH",
"72 398 OFFCURVE",
"62 261 OFFCURVE",
"62 220 CURVE SMOOTH",
"62 179 OFFCURVE",
"65 53 OFFCURVE",
"65 34 CURVE SMOOTH",
"64 9 OFFCURVE",
"63 0 OFFCURVE",
"84 0 CURVE SMOOTH",
"98 0 OFFCURVE",
"120 3 OFFCURVE",
"132 3 CURVE SMOOTH",
"147 3 OFFCURVE",
"160 -1 OFFCURVE",
"160 15 CURVE SMOOTH",
"161 171 LINE SMOOTH",
"161 206 OFFCURVE",
"163 337 OFFCURVE",
"163 368 CURVE SMOOTH",
"163 383 OFFCURVE",
"164 412 OFFCURVE"
);
}
);
width = 704;
}
);
unicode = 004D;
},
{
glyphname = N;
lastChange = "2016-11-04 22:54:03 +0000";
layers = (
{
anchors = (
{
name = bottom;
position = "{389, 0}";
},
{
name = top;
position = "{382, 710}";
}
);
layerId = "FC508690-ADF2-4DBF-B34D-60B2640A846D";
paths = (
{
closed = 1;
nodes = (
"263 497 CURVE",
"260 592 LINE",
"289 540 LINE SMOOTH",
"305 511 OFFCURVE",
"323 476 OFFCURVE",
"334 453 CURVE SMOOTH",
"355 406 OFFCURVE",
"424 252 OFFCURVE",
"445 212 CURVE",
"464 172 OFFCURVE",
"519 34 OFFCURVE",
"527 16 CURVE",
"538 -3 OFFCURVE",
"539 -3 OFFCURVE",
"550 -4 CURVE SMOOTH",
"558 -5 OFFCURVE",
"572 -3 OFFCURVE",
"584 -3 CURVE SMOOTH",
"589 -3 OFFCURVE",
"593 -3 OFFCURVE",
"596 -4 CURVE SMOOTH",
"605 -5 OFFCURVE",
"615 -4 OFFCURVE",
"615 14 CURVE SMOOTH",
"615 14 OFFCURVE",
"615 15 OFFCURVE",
"615 16 CURVE SMOOTH",
"615 35 OFFCURVE",
"610 147 OFFCURVE",
"610 191 CURVE SMOOTH",
"610 229 OFFCURVE",
"604 313 OFFCURVE",
"604 371 CURVE SMOOTH",
"604 382 OFFCURVE",
"605 391 OFFCURVE",
"605 400 CURVE SMOOTH",
"605 452 OFFCURVE",
"608 669 OFFCURVE",
"608 688 CURVE SMOOTH",
"608 696 OFFCURVE",
"610 703 OFFCURVE",
"610 708 CURVE SMOOTH",
"610 714 OFFCURVE",
"608 717 OFFCURVE",
"597 717 CURVE SMOOTH",
"578 717 OFFCURVE",
"574 716 OFFCURVE",
"562 719 CURVE SMOOTH",
"557 720 OFFCURVE",
"549 722 OFFCURVE",
"542 722 CURVE SMOOTH",
"534 722 OFFCURVE",
"527 719 OFFCURVE",
"527 707 CURVE SMOOTH",
"523 611 LINE",
"523 574 OFFCURVE",
"525 500 OFFCURVE",
"525 467 CURVE",
"524 439 OFFCURVE",
"523 399 OFFCURVE",
"523 356 CURVE SMOOTH",
"523 346 OFFCURVE",
"523 336 OFFCURVE",
"523 326 CURVE SMOOTH",
"527 228 LINE",
"529 170 LINE",
"498 231 LINE SMOOTH",
"481 266 OFFCURVE",
"460 304 OFFCURVE",
"448 329 CURVE SMOOTH",
"424 377 OFFCURVE",
"361 520 OFFCURVE",
"337 570 CURVE SMOOTH",
"313 621 OFFCURVE",
"283 688 OFFCURVE",
"275 704 CURVE SMOOTH",
"267 719 OFFCURVE",
"255 724 OFFCURVE",
"226 724 CURVE SMOOTH",
"198 724 OFFCURVE",
"157 723 OFFCURVE",
"141 723 CURVE SMOOTH",
"135 723 OFFCURVE",
"125 725 OFFCURVE",
"115 725 CURVE SMOOTH",
"102 725 OFFCURVE",
"89 721 OFFCURVE",
"87 698 CURVE SMOOTH",
"84 659 OFFCURVE",
"84 620 OFFCURVE",
"84 580 CURVE SMOOTH",
"84 540 OFFCURVE",
"70 370 OFFCURVE",
"67 322 CURVE",
"62 277 OFFCURVE",
"60 158 OFFCURVE",
"60 101 CURVE",
"59 84 OFFCURVE",
"59 71 OFFCURVE",
"59 60 CURVE SMOOTH",
"59 35 OFFCURVE",
"61 25 OFFCURVE",
"63 16 CURVE SMOOTH",
"66 3 OFFCURVE",
"64 -12 OFFCURVE",
"91 -12 CURVE SMOOTH",
"118 -12 OFFCURVE",
"164 -10 OFFCURVE",
"188 -10 CURVE SMOOTH",
"212 -10 OFFCURVE",
"244 -6 OFFCURVE",
"255 -6 CURVE SMOOTH",
"265 -6 OFFCURVE",
"274 -4 OFFCURVE",
"274 10 CURVE SMOOTH",
"274 10 OFFCURVE",
"274 11 OFFCURVE",
"274 12 CURVE SMOOTH",
"274 28 OFFCURVE",
"270 79 OFFCURVE",
"270 108 CURVE SMOOTH",
"270 138 OFFCURVE",
"266 282 OFFCURVE",
"266 351 CURVE SMOOTH",
"266 386 OFFCURVE",
"264 445 OFFCURVE"
);
}
);
width = 676;
}
);
unicode = 004E;
},
{
glyphname = O;
lastChange = "2016-11-10 19:51:54 +0000";
layers = (
{
anchors = (
{
name = bottom;
position = "{317, 0}";
},
{
name = top;
position = "{290, 710}";
}
);
layerId = "FC508690-ADF2-4DBF-B34D-60B2640A846D";
paths = (
{
closed = 1;
nodes = (
"273 714 CURVE SMOOTH",
"185 714 OFFCURVE",
"43 645 OFFCURVE",
"43 357 CURVE SMOOTH",
"43 249 OFFCURVE",
"60 -22 OFFCURVE",
"280 -22 CURVE SMOOTH",
"437 -22 OFFCURVE",
"501 198 OFFCURVE",
"501 343 CURVE SMOOTH",
"501 489 OFFCURVE",
"490 714 OFFCURVE"
);
},
{
closed = 1;
nodes = (
"272 232 CURVE SMOOTH",
"232 232 OFFCURVE",
"229 285 OFFCURVE",
"229 325 CURVE SMOOTH",
"229 368 OFFCURVE",
"242 434 OFFCURVE",
"279 434 CURVE SMOOTH",
"308 434 OFFCURVE",
"325 385 OFFCURVE",
"325 334 CURVE SMOOTH",
"325 284 OFFCURVE",
"311 232 OFFCURVE"
);
}
);
width = 544;
}
);
leftKerningGroup = O;
rightKerningGroup = O;
unicode = 004F;
},
{
glyphname = P;
lastChange = "2016-11-09 01:58:53 +0000";
layers = (
{
layerId = "FC508690-ADF2-4DBF-B34D-60B2640A846D";
paths = (
{
closed = 1;
nodes = (
"355 701 CURVE SMOOTH",
"323 703 OFFCURVE",
"287 704 OFFCURVE",
"254 704 CURVE SMOOTH",
"201 704 OFFCURVE",
"155 702 OFFCURVE",
"144 702 CURVE SMOOTH",
"119 702 OFFCURVE",
"90 703 OFFCURVE",
"81 704 CURVE SMOOTH",
"74 705 OFFCURVE",
"69 699 OFFCURVE",
"69 678 CURVE SMOOTH",
"69 671 OFFCURVE",
"70 663 OFFCURVE",
"71 652 CURVE SMOOTH",
"72 645 OFFCURVE",
"72 630 OFFCURVE",
"72 609 CURVE SMOOTH",
"72 492 OFFCURVE",
"64 196 OFFCURVE",
"64 160 CURVE SMOOTH",
"64 118 OFFCURVE",
"62 55 OFFCURVE",
"62 36 CURVE SMOOTH",
"62 17 OFFCURVE",
"64 0 OFFCURVE",
"88 3 CURVE SMOOTH",
"105 5 OFFCURVE",
"134 7 OFFCURVE",
"152 7 CURVE SMOOTH",
"160 7 OFFCURVE",
"166 7 OFFCURVE",
"169 6 CURVE SMOOTH",
"182 0 OFFCURVE",
"207 12 OFFCURVE",
"202 33 CURVE SMOOTH",
"199 44 OFFCURVE",
"199 110 OFFCURVE",
"199 174 CURVE SMOOTH",
"199 211 OFFCURVE",
"200 253 OFFCURVE",
"201 299 CURVE",
"222 300 OFFCURVE",
"242 302 OFFCURVE",
"261 304 CURVE SMOOTH",
"293 307 OFFCURVE",
"331 310 OFFCURVE",
"352 310 CURVE SMOOTH",
"395 310 OFFCURVE",
"515 340 OFFCURVE",
"515 489 CURVE SMOOTH",
"515 638 OFFCURVE",
"437 696 OFFCURVE"
);
},
{
closed = 1;
nodes = (
"250 385 CURVE",
"203 388 LINE",
"201 427 LINE SMOOTH",
"200 450 OFFCURVE",
"200 479 OFFCURVE",
"203 506 CURVE SMOOTH",
"206 533 OFFCURVE",
"207 562 OFFCURVE",
"208 586 CURVE SMOOTH",
"209 600 OFFCURVE",
"209 614 OFFCURVE",
"209 628 CURVE",
"225 629 OFFCURVE",
"266 628 OFFCURVE",
"327 616 CURVE SMOOTH",
"388 604 OFFCURVE",
"425 568 OFFCURVE",
"425 483 CURVE SMOOTH",
"425 397 OFFCURVE",
"359 382 OFFCURVE",
"324 382 CURVE SMOOTH",
"305 382 OFFCURVE",
"277 382 OFFCURVE"
);
}
);
width = 520;
}
);
rightKerningGroup = P;
unicode = 0050;
},
{
glyphname = Q;
lastChange = "2016-11-10 19:52:06 +0000";
layers = (
{
layerId = "FC508690-ADF2-4DBF-B34D-60B2640A846D";
paths = (
{
closed = 1;
nodes = (
"615 26 CURVE SMOOTH",
"604 35 OFFCURVE",
"572 72 OFFCURVE",
"540 111 CURVE",
"599 207 OFFCURVE",
"608 344 OFFCURVE",
"608 406 CURVE SMOOTH",
"608 510 OFFCURVE",
"557 710 OFFCURVE",
"323 710 CURVE SMOOTH",
"206 710 OFFCURVE",
"42 643 OFFCURVE",
"42 326 CURVE",
"47 265 OFFCURVE",
"60 210 OFFCURVE",
"83 162 CURVE SMOOTH",
"122 80 OFFCURVE",
"198 -1 OFFCURVE",
"347 -1 CURVE SMOOTH",
"411 -1 OFFCURVE",
"460 21 OFFCURVE",
"496 56 CURVE",
"506 43 OFFCURVE",
"513 34 OFFCURVE",
"516 28 CURVE SMOOTH",
"529 7 OFFCURVE",
"537 1 OFFCURVE",
"560 1 CURVE SMOOTH",
"583 1 OFFCURVE",
"612 3 OFFCURVE",
"621 2 CURVE SMOOTH",
"625 2 OFFCURVE",
"629 3 OFFCURVE",
"629 7 CURVE SMOOTH",
"629 11 OFFCURVE",
"625 17 OFFCURVE"
);
},
{
closed = 1;
nodes = (
"386 204 CURVE",
"460 105 LINE",
"428 73 OFFCURVE",
"388 53 OFFCURVE",
"337 53 CURVE SMOOTH",
"186 53 OFFCURVE",
"89 150 OFFCURVE",
"89 363 CURVE SMOOTH",
"89 576 OFFCURVE",
"262 654 OFFCURVE",
"322 654 CURVE SMOOTH",
"522 654 OFFCURVE",
"554 477 OFFCURVE",
"554 356 CURVE SMOOTH",
"554 295 OFFCURVE",
"537 219 OFFCURVE",
"501 158 CURVE",
"485 177 OFFCURVE",
"473 191 OFFCURVE",
"470 198 CURVE SMOOTH",
"460 216 OFFCURVE",
"460 239 OFFCURVE",
"431 236 CURVE SMOOTH",
"402 233 OFFCURVE",
"382 231 OFFCURVE",
"375 231 CURVE SMOOTH",
"368 231 OFFCURVE",
"371 224 OFFCURVE"
);
}
);
width = 669;
}
);
leftKerningGroup = O;
unicode = 0051;
},
{
glyphname = R;
lastChange = "2016-11-10 16:51:17 +0000";
layers = (
{
anchors = (
{
name = bottom;
position = "{293, 0}";
},
{
name = top;
position = "{254, 710}";
}
);
layerId = "FC508690-ADF2-4DBF-B34D-60B2640A846D";
paths = (
{
closed = 1;
nodes = (
"420 184 CURVE",
"350 311 LINE",
"367 326 OFFCURVE",
"383 344 OFFCURVE",
"396 363 CURVE SMOOTH",
"419 396 OFFCURVE",
"443 443 OFFCURVE",
"443 503 CURVE SMOOTH",
"443 619 OFFCURVE",
"374 710 OFFCURVE",
"218 710 CURVE SMOOTH",
"159 710 OFFCURVE",
"97 700 OFFCURVE",
"86 700 CURVE SMOOTH",
"76 700 OFFCURVE",
"64 704 OFFCURVE",
"64 669 CURVE SMOOTH",
"64 663 OFFCURVE",
"64 655 OFFCURVE",
"65 647 CURVE SMOOTH",
"67 616 OFFCURVE",
"69 537 OFFCURVE",
"69 464 CURVE SMOOTH",
"69 401 OFFCURVE",
"68 343 OFFCURVE",
"64 323 CURVE SMOOTH",
"62 313 OFFCURVE",
"61 293 OFFCURVE",
"61 268 CURVE SMOOTH",
"61 187 OFFCURVE",
"69 52 OFFCURVE",
"69 29 CURVE SMOOTH",
"69 20 OFFCURVE",
"68 12 OFFCURVE",
"68 6 CURVE SMOOTH",
"68 -8 OFFCURVE",
"71 -16 OFFCURVE",
"90 -16 CURVE SMOOTH",
"116 -16 OFFCURVE",
"195 -5 OFFCURVE",
"219 -8 CURVE SMOOTH",
"238 -11 OFFCURVE",
"248 -7 OFFCURVE",
"248 9 CURVE SMOOTH",
"248 12 OFFCURVE",
"248 15 OFFCURVE",
"247 19 CURVE SMOOTH",
"244 30 OFFCURVE",
"240 101 OFFCURVE",
"237 167 CURVE",
"234 206 OFFCURVE",
"232 249 OFFCURVE",
"229 296 CURVE",
"280 197 LINE SMOOTH",
"307 143 OFFCURVE",
"336 86 OFFCURVE",
"349 62 CURVE SMOOTH",
"373 15 OFFCURVE",
"375 -10 OFFCURVE",
"392 -10 CURVE SMOOTH",
"409 -10 OFFCURVE",
"489 -7 OFFCURVE",
"505 -7 CURVE SMOOTH",
"515 -7 OFFCURVE",
"524 -8 OFFCURVE",
"524 -1 CURVE SMOOTH",
"524 4 OFFCURVE",
"520 12 OFFCURVE",
"510 28 CURVE SMOOTH",
"496 48 OFFCURVE",
"457 118 OFFCURVE"
);
},
{
closed = 1;
nodes = (
"223 429 CURVE",
"223 432 OFFCURVE",
"222 434 OFFCURVE",
"222 437 CURVE SMOOTH",
"222 440 OFFCURVE",
"223 443 OFFCURVE",
"223 446 CURVE SMOOTH",
"223 457 OFFCURVE",
"224 468 OFFCURVE",
"227 481 CURVE",
"230 506 OFFCURVE",
"224 534 OFFCURVE",
"227 537 CURVE SMOOTH",
"232 542 OFFCURVE",
"239 545 OFFCURVE",
"246 545 CURVE SMOOTH",
"262 545 OFFCURVE",
"278 530 OFFCURVE",
"278 488 CURVE SMOOTH",
"278 457 OFFCURVE",
"265 442 OFFCURVE",
"250 435 CURVE SMOOTH",
"242 431 OFFCURVE",
"233 429 OFFCURVE"
);
}
);
width = 527;
}
);
unicode = 0052;
},
{
glyphname = S;
lastChange = "2016-11-04 22:54:03 +0000";
layers = (
{
anchors = (
{
name = bottom;
position = "{301, 0}";
},
{
name = top;
position = "{303, 710}";
}
);
layerId = "FC508690-ADF2-4DBF-B34D-60B2640A846D";
paths = (
{
closed = 1;
nodes = (
"268 717 CURVE SMOOTH",
"195 717 OFFCURVE",
"49 636 OFFCURVE",
"49 507 CURVE SMOOTH",
"49 378 OFFCURVE",
"186 332 OFFCURVE",
"231 300 CURVE SMOOTH",
"276 268 OFFCURVE",
"340 215 OFFCURVE",
"340 153 CURVE SMOOTH",
"340 92 OFFCURVE",
"282 84 OFFCURVE",
"246 84 CURVE SMOOTH",
"168 84 OFFCURVE",
"123 132 OFFCURVE",
"112 143 CURVE SMOOTH",
"104 151 OFFCURVE",
"98 162 OFFCURVE",
"91 162 CURVE SMOOTH",
"88 162 OFFCURVE",
"86 161 OFFCURVE",
"83 158 CURVE SMOOTH",
"72 147 OFFCURVE",
"53 126 OFFCURVE",
"45 115 CURVE SMOOTH",
"40 109 OFFCURVE",
"37 106 OFFCURVE",
"37 102 CURVE SMOOTH",
"37 99 OFFCURVE",
"38 96 OFFCURVE",
"41 92 CURVE SMOOTH",
"50 83 OFFCURVE",
"102 -21 OFFCURVE",
"265 -21 CURVE SMOOTH",
"428 -21 OFFCURVE",
"536 39 OFFCURVE",
"536 171 CURVE SMOOTH",
"536 370 OFFCURVE",
"388 418 OFFCURVE",
"341 439 CURVE",
"295 458 OFFCURVE",
"224 486 OFFCURVE",
"224 552 CURVE SMOOTH",
"224 619 OFFCURVE",
"262 621 OFFCURVE",
"288 621 CURVE SMOOTH",
"361 621 OFFCURVE",
"453 518 OFFCURVE",
"463 518 CURVE SMOOTH",
"474 518 OFFCURVE",
"474 524 OFFCURVE",
"483 535 CURVE SMOOTH",
"494 547 OFFCURVE",
"511 576 OFFCURVE",
"518 585 CURVE",
"521 591 OFFCURVE",
"524 595 OFFCURVE",
"524 599 CURVE SMOOTH",
"524 602 OFFCURVE",
"523 605 OFFCURVE",
"520 608 CURVE SMOOTH",
"512 616 OFFCURVE",
"419 717 OFFCURVE"
);
}
);
width = 576;
}
);
unicode = 0053;
},
{
glyphname = T;
lastChange = "2016-11-10 19:47:40 +0000";
layers = (
{
anchors = (
{
name = bottom;
position = "{259, 0}";
},
{
name = top;
position = "{261, 710}";
}
);
layerId = "FC508690-ADF2-4DBF-B34D-60B2640A846D";
paths = (
{
closed = 1;
nodes = (
"136 700 CURVE",
"37 700 LINE SMOOTH",
"29 700 OFFCURVE",
"19 701 OFFCURVE",
"19 685 CURVE SMOOTH",
"19 683 OFFCURVE",
"19 680 OFFCURVE",
"19 678 CURVE SMOOTH",
"20 673 OFFCURVE",
"20 663 OFFCURVE",
"20 649 CURVE SMOOTH",
"20 604 OFFCURVE",
"17 526 OFFCURVE",
"17 517 CURVE",
"14 506 OFFCURVE",
"18 494 OFFCURVE",
"37 494 CURVE SMOOTH",
"50 494 OFFCURVE",
"145 497 OFFCURVE",
"214 497 CURVE",
"214 470 OFFCURVE",
"217 407 OFFCURVE",
"217 366 CURVE SMOOTH",
"217 314 OFFCURVE",
"207 62 OFFCURVE",
"207 34 CURVE SMOOTH",
"207 6 OFFCURVE",
"204 0 OFFCURVE",
"223 0 CURVE SMOOTH",
"291 0 LINE SMOOTH",
"301 0 OFFCURVE",
"306 -2 OFFCURVE",
"306 13 CURVE SMOOTH",
"306 15 OFFCURVE",
"306 16 OFFCURVE",
"306 18 CURVE SMOOTH",
"306 33 OFFCURVE",
"303 198 OFFCURVE",
"303 309 CURVE SMOOTH",
"303 346 OFFCURVE",
"303 377 OFFCURVE",
"304 394 CURVE",
"306 497 LINE",
"482 497 LINE SMOOTH",
"505 497 OFFCURVE",
"517 506 OFFCURVE",
"517 524 CURVE",
"516 540 OFFCURVE",
"514 571 OFFCURVE",
"514 600 CURVE SMOOTH",
"514 642 OFFCURVE",
"516 666 OFFCURVE",
"517 676 CURVE SMOOTH",
"518 684 OFFCURVE",
"513 702 OFFCURVE",
"477 701 CURVE",
"468 700 OFFCURVE",
"455 700 OFFCURVE",
"438 700 CURVE SMOOTH",
"382 700 OFFCURVE",
"293 703 OFFCURVE",
"265 703 CURVE SMOOTH",
"228 703 OFFCURVE",
"164 700 OFFCURVE"
);
}
);
width = 529;
}
);
leftKerningGroup = T;
rightKerningGroup = T;
unicode = 0054;
},
{
glyphname = U;
lastChange = "2016-11-04 22:54:03 +0000";
layers = (
{
anchors = (
{
name = bottom;
position = "{246, 0}";
},
{
name = top;
position = "{246, 710}";
}
);
layerId = "FC508690-ADF2-4DBF-B34D-60B2640A846D";
paths = (
{
closed = 1;
nodes = (
"109 691 CURVE SMOOTH",
"109 698 OFFCURVE",
"108 702 OFFCURVE",
"104 702 CURVE SMOOTH",
"97 702 OFFCURVE",
"92 700 OFFCURVE",
"86 700 CURVE SMOOTH",
"82 700 OFFCURVE",
"79 701 OFFCURVE",
"75 701 CURVE",
"68 704 OFFCURVE",
"56 706 OFFCURVE",
"56 678 CURVE SMOOTH",
"56 673 OFFCURVE",
"56 668 OFFCURVE",
"57 662 CURVE SMOOTH",
"59 634 OFFCURVE",
"61 549 OFFCURVE",
"61 480 CURVE SMOOTH",
"61 437 OFFCURVE",
"61 401 OFFCURVE",
"59 387 CURVE SMOOTH",
"57 374 OFFCURVE",
"56 345 OFFCURVE",
"56 311 CURVE SMOOTH",
"56 250 OFFCURVE",
"60 173 OFFCURVE",
"70 140 CURVE SMOOTH",
"86 88 OFFCURVE",
"132 3 OFFCURVE",
"228 3 CURVE SMOOTH",
"325 3 OFFCURVE",
"430 60 OFFCURVE",
"433 247 CURVE SMOOTH",
"436 436 OFFCURVE",
"424 558 OFFCURVE",
"427 593 CURVE SMOOTH",
"428 603 OFFCURVE",
"428 614 OFFCURVE",
"428 625 CURVE SMOOTH",
"428 647 OFFCURVE",
"427 668 OFFCURVE",
"426 679 CURVE SMOOTH",
"425 695 OFFCURVE",
"427 703 OFFCURVE",
"404 703 CURVE SMOOTH",
"381 703 OFFCURVE",
"344 702 OFFCURVE",
"333 703 CURVE SMOOTH",
"324 703 OFFCURVE",
"305 708 OFFCURVE",
"305 683 CURVE SMOOTH",
"305 678 OFFCURVE",
"306 672 OFFCURVE",
"308 664 CURVE SMOOTH",
"311 649 OFFCURVE",
"312 625 OFFCURVE",
"312 595 CURVE SMOOTH",
"312 531 OFFCURVE",
"307 444 OFFCURVE",
"307 392 CURVE SMOOTH",
"307 317 OFFCURVE",
"302 190 OFFCURVE",
"302 165 CURVE SMOOTH",
"302 138 OFFCURVE",
"286 86 OFFCURVE",
"219 86 CURVE SMOOTH",
"154 86 OFFCURVE",
"106 171 OFFCURVE",
"106 288 CURVE SMOOTH",
"106 435 OFFCURVE",
"109 763 OFFCURVE"
);
}
);
width = 488;
}
);
unicode = 0055;
},
{
glyphname = V;
lastChange = "2016-11-10 19:55:19 +0000";
layers = (
{
layerId = "FC508690-ADF2-4DBF-B34D-60B2640A846D";
paths = (
{
closed = 1;
nodes = (
"295 341 CURVE",
"282 282 LINE",
"260 381 LINE SMOOTH",
"249 434 OFFCURVE",
"237 493 OFFCURVE",
"233 521 CURVE SMOOTH",
"221 605 OFFCURVE",
"214 659 OFFCURVE",
"209 678 CURVE",
"205 698 OFFCURVE",
"202 712 OFFCURVE",
"175 709 CURVE",
"149 709 OFFCURVE",
"85 705 OFFCURVE",
"64 705 CURVE SMOOTH",
"45 705 OFFCURVE",
"22 715 OFFCURVE",
"22 700 CURVE SMOOTH",
"22 697 OFFCURVE",
"23 694 OFFCURVE",
"24 690 CURVE SMOOTH",
"32 661 OFFCURVE",
"96 373 OFFCURVE",
"112 314 CURVE SMOOTH",
"128 254 OFFCURVE",
"178 64 OFFCURVE",
"184 39 CURVE",
"187 15 OFFCURVE",
"189 1 OFFCURVE",
"212 1 CURVE SMOOTH",
"234 1 OFFCURVE",
"346 9 OFFCURVE",
"363 9 CURVE SMOOTH",
"370 9 OFFCURVE",
"375 8 OFFCURVE",
"379 8 CURVE SMOOTH",
"386 8 OFFCURVE",
"390 11 OFFCURVE",
"394 25 CURVE SMOOTH",
"402 49 OFFCURVE",
"428 238 OFFCURVE",
"448 317 CURVE",
"470 395 OFFCURVE",
"498 540 OFFCURVE",
"506 581 CURVE",
"515 621 OFFCURVE",
"523 660 OFFCURVE",
"530 679 CURVE SMOOTH",
"532 686 OFFCURVE",
"533 691 OFFCURVE",
"533 695 CURVE SMOOTH",
"533 702 OFFCURVE",
"529 705 OFFCURVE",
"514 707 CURVE SMOOTH",
"490 710 OFFCURVE",
"411 710 OFFCURVE",
"395 710 CURVE SMOOTH",
"377 710 OFFCURVE",
"358 717 OFFCURVE",
"361 673 CURVE SMOOTH",
"364 633 OFFCURVE",
"314 475 OFFCURVE",
"311 432 CURVE",
"308 411 OFFCURVE",
"302 373 OFFCURVE"
);
}
);
width = 546;
}
);
leftKerningGroup = V;
rightKerningGroup = V;
unicode = 0056;
},
{
glyphname = W;
lastChange = "2016-11-10 16:53:18 +0000";
layers = (
{
anchors = (
{
name = bottom;
position = "{337, 0}";
},
{
name = top;
position = "{361, 710}";
}
);
layerId = "FC508690-ADF2-4DBF-B34D-60B2640A846D";
paths = (
{
closed = 1;
nodes = (
"234 344 LINE",
"230 331 LINE",
"213 375 LINE SMOOTH",
"202 402 OFFCURVE",
"190 436 OFFCURVE",
"178 473 CURVE",
"149 545 OFFCURVE",
"124 639 OFFCURVE",
"116 666 CURVE",
"112 687 OFFCURVE",
"110 698 OFFCURVE",
"95 694 CURVE SMOOTH",
"84 692 LINE SMOOTH",
"77 691 OFFCURVE",
"69 691 OFFCURVE",
"60 691 CURVE SMOOTH",
"29 691 LINE SMOOTH",
"25 691 OFFCURVE",
"22 691 OFFCURVE",
"22 686 CURVE SMOOTH",
"22 682 OFFCURVE",
"23 676 OFFCURVE",
"26 666 CURVE SMOOTH",
"34 642 OFFCURVE",
"56 552 OFFCURVE",
"67 514 CURVE SMOOTH",
"78 477 OFFCURVE",
"123 307 OFFCURVE",
"133 283 CURVE",
"141 255 OFFCURVE",
"157 195 OFFCURVE",
"168 168 CURVE SMOOTH",
"179 141 OFFCURVE",
"201 28 OFFCURVE",
"206 20 CURVE",
"209 9 OFFCURVE",
"212 -1 OFFCURVE",
"223 -1 CURVE SMOOTH",
"230 -1 OFFCURVE",
"240 19 OFFCURVE",
"244 34 CURVE SMOOTH",
"247 44 OFFCURVE",
"275 165 OFFCURVE",
"289 206 CURVE",
"306 249 OFFCURVE",
"320 285 OFFCURVE",
"327 300 CURVE SMOOTH",
"341 328 LINE",
"355 291 LINE SMOOTH",
"363 271 OFFCURVE",
"371 249 OFFCURVE",
"375 234 CURVE",
"383 211 OFFCURVE",
"409 136 OFFCURVE",
"417 117 CURVE SMOOTH",
"425 96 OFFCURVE",
"450 30 OFFCURVE",
"458 20 CURVE",
"465 5 OFFCURVE",
"468 -1 OFFCURVE",
"479 -1 CURVE SMOOTH",
"486 -1 OFFCURVE",
"486 15 OFFCURVE",
"489 30 CURVE",
"494 40 OFFCURVE",
"519 206 OFFCURVE",
"531 238 CURVE SMOOTH",
"542 265 OFFCURVE",
"545 285 OFFCURVE",
"545 296 CURVE SMOOTH",
"545 306 OFFCURVE",
"557 387 OFFCURVE",
"565 421 CURVE",
"576 456 OFFCURVE",
"607 580 OFFCURVE",
"617 611 CURVE SMOOTH",
"628 642 OFFCURVE",
"631 663 OFFCURVE",
"638 680 CURVE",
"639 685 OFFCURVE",
"640 689 OFFCURVE",
"640 692 CURVE SMOOTH",
"640 698 OFFCURVE",
"637 701 OFFCURVE",
"628 701 CURVE",
"625 702 OFFCURVE",
"620 702 OFFCURVE",
"615 702 CURVE SMOOTH",
"603 702 OFFCURVE",
"587 700 OFFCURVE",
"579 698 CURVE",
"568 698 OFFCURVE",
"558 691 OFFCURVE",
"555 663 CURVE SMOOTH",
"552 639 OFFCURVE",
"528 583 OFFCURVE",
"520 549 CURVE",
"509 510 OFFCURVE",
"507 466 OFFCURVE",
"500 445 CURVE",
"490 420 LINE",
"488 417 OFFCURVE",
"487 414 OFFCURVE",
"486 411 CURVE",
"468 451 LINE",
"437 518 LINE",
"424 549 OFFCURVE",
"397 621 OFFCURVE",
"389 642 CURVE",
"386 663 OFFCURVE",
"382 669 OFFCURVE",
"379 684 CURVE SMOOTH",
"375 699 OFFCURVE",
"376 701 OFFCURVE",
"365 701 CURVE SMOOTH",
"354 701 OFFCURVE",
"335 655 OFFCURVE",
"327 635 CURVE",
"319 611 OFFCURVE",
"283 511 OFFCURVE",
"275 480 CURVE SMOOTH",
"267 451 OFFCURVE",
"252 390 OFFCURVE",
"244 372 CURVE"
);
}
);
width = 658;
}
);
leftKerningGroup = W;
rightKerningGroup = W;
unicode = 0057;
},
{
glyphname = X;
lastChange = "2016-11-10 16:55:51 +0000";
layers = (
{
layerId = "FC508690-ADF2-4DBF-B34D-60B2640A846D";
paths = (
{
closed = 1;
nodes = (
"366 543 CURVE",
"311 453 LINE SMOOTH",
"303 440 OFFCURVE",
"300 423 OFFCURVE",
"289 423 CURVE",
"278 439 OFFCURVE",
"268 455 OFFCURVE",
"258 472 CURVE SMOOTH",
"241 500 OFFCURVE",
"220 535 OFFCURVE",
"205 562 CURVE SMOOTH",
"174 615 OFFCURVE",
"156 642 OFFCURVE",
"139 669 CURVE",
"120 696 OFFCURVE",
"112 719 OFFCURVE",
"95 720 CURVE SMOOTH",
"79 720 OFFCURVE",
"59 717 OFFCURVE",
"44 718 CURVE SMOOTH",
"35 719 OFFCURVE",
"30 716 OFFCURVE",
"30 709 CURVE SMOOTH",
"30 704 OFFCURVE",
"32 699 OFFCURVE",
"37 691 CURVE SMOOTH",
"47 673 OFFCURVE",
"134 541 OFFCURVE",
"150 510 CURVE SMOOTH",
"166 478 OFFCURVE",
"223 383 OFFCURVE",
"231 366 CURVE SMOOTH",
"235 358 OFFCURVE",
"238 351 OFFCURVE",
"238 342 CURVE SMOOTH",
"238 334 OFFCURVE",
"235 324 OFFCURVE",
"226 311 CURVE SMOOTH",
"207 287 OFFCURVE",
"167 219 OFFCURVE",
"140 184 CURVE",
"115 149 OFFCURVE",
"49 60 OFFCURVE",
"37 40 CURVE SMOOTH",
"29 27 OFFCURVE",
"22 18 OFFCURVE",
"22 11 CURVE SMOOTH",
"22 7 OFFCURVE",
"25 4 OFFCURVE",
"31 2 CURVE SMOOTH",
"42 -1 OFFCURVE",
"55 -3 OFFCURVE",
"67 -3 CURVE SMOOTH",
"74 -3 OFFCURVE",
"80 -2 OFFCURVE",
"84 -1 CURVE SMOOTH",
"96 4 OFFCURVE",
"121 33 OFFCURVE",
"133 60 CURVE SMOOTH",
"144 87 OFFCURVE",
"184 153 OFFCURVE",
"202 176 CURVE SMOOTH",
"221 200 OFFCURVE",
"258 251 OFFCURVE",
"268 263 CURVE SMOOTH",
"273 270 OFFCURVE",
"277 275 OFFCURVE",
"281 275 CURVE SMOOTH",
"284 275 OFFCURVE",
"288 272 OFFCURVE",
"293 265 CURVE SMOOTH",
"304 248 OFFCURVE",
"359 156 OFFCURVE",
"373 129 CURVE",
"386 100 OFFCURVE",
"419 62 OFFCURVE",
"433 35 CURVE SMOOTH",
"448 8 OFFCURVE",
"448 -4 OFFCURVE",
"460 -5 CURVE",
"523 -6 LINE SMOOTH",
"534 -6 OFFCURVE",
"541 -5 OFFCURVE",
"541 1 CURVE SMOOTH",
"541 4 OFFCURVE",
"540 7 OFFCURVE",
"537 12 CURVE SMOOTH",
"529 27 OFFCURVE",
"485 101 OFFCURVE",
"464 133 CURVE",
"440 165 OFFCURVE",
"411 216 OFFCURVE",
"395 245 CURVE SMOOTH",
"379 272 OFFCURVE",
"352 312 OFFCURVE",
"345 327 CURVE SMOOTH",
"341 336 OFFCURVE",
"338 342 OFFCURVE",
"338 348 CURVE SMOOTH",
"338 353 OFFCURVE",
"340 358 OFFCURVE",
"345 365 CURVE",
"353 381 OFFCURVE",
"424 521 OFFCURVE",
"443 548 CURVE SMOOTH",
"462 575 OFFCURVE",
"494 628 OFFCURVE",
"515 654 CURVE",
"535 681 OFFCURVE",
"542 692 OFFCURVE",
"546 704 CURVE SMOOTH",
"552 719 OFFCURVE",
"538 727 OFFCURVE",
"516 727 CURVE SMOOTH",
"504 727 OFFCURVE",
"491 724 OFFCURVE",
"480 719 CURVE SMOOTH",
"466 711 OFFCURVE",
"454 675 OFFCURVE",
"438 654 CURVE SMOOTH",
"423 633 OFFCURVE",
"379 564 OFFCURVE"
);
}
);
width = 572;
}
);
unicode = 0058;
},
{
glyphname = Y;
lastChange = "2016-11-10 19:54:17 +0000";
layers = (
{
anchors = (
{
name = bottom;
position = "{266, 0}";
},
{
name = top;
position = "{265, 710}";
}
);
layerId = "FC508690-ADF2-4DBF-B34D-60B2640A846D";
paths = (
{
closed = 1;
nodes = (
"203 -1 CURVE",
"230 -1 LINE",
"238 -2 OFFCURVE",
"243 5 OFFCURVE",
"246 19 CURVE SMOOTH",
"249 33 OFFCURVE",
"255 75 OFFCURVE",
"261 92 CURVE",
"265 109 OFFCURVE",
"339 284 OFFCURVE",
"354 330 CURVE",
"370 374 OFFCURVE",
"425 517 OFFCURVE",
"441 554 CURVE SMOOTH",
"457 592 OFFCURVE",
"477 658 OFFCURVE",
"482 670 CURVE SMOOTH",
"483 674 OFFCURVE",
"484 676 OFFCURVE",
"484 679 CURVE SMOOTH",
"484 684 OFFCURVE",
"479 687 OFFCURVE",
"463 689 CURVE SMOOTH",
"444 691 OFFCURVE",
"408 690 OFFCURVE",
"400 690 CURVE SMOOTH",
"386 690 OFFCURVE",
"370 695 OFFCURVE",
"362 661 CURVE SMOOTH",
"354 627 OFFCURVE",
"336 568 OFFCURVE",
"325 546 CURVE SMOOTH",
"322 541 OFFCURVE",
"318 531 OFFCURVE",
"313 517 CURVE SMOOTH",
"308 504 OFFCURVE",
"304 495 OFFCURVE",
"303 491 CURVE SMOOTH",
"293 465 LINE",
"282 435 LINE SMOOTH",
"277 422 OFFCURVE",
"272 407 OFFCURVE",
"268 392 CURVE SMOOTH",
"260 367 LINE",
"255 384 OFFCURVE",
"249 400 OFFCURVE",
"244 415 CURVE SMOOTH",
"235 442 OFFCURVE",
"224 472 OFFCURVE",
"216 491 CURVE SMOOTH",
"205 517 OFFCURVE",
"193 560 OFFCURVE",
"185 585 CURVE SMOOTH",
"173 620 OFFCURVE",
"162 657 OFFCURVE",
"159 668 CURVE SMOOTH",
"156 679 OFFCURVE",
"162 686 OFFCURVE",
"145 689 CURVE SMOOTH",
"137 690 OFFCURVE",
"123 690 OFFCURVE",
"104 690 CURVE",
"95 691 OFFCURVE",
"86 691 OFFCURVE",
"80 691 CURVE SMOOTH",
"73 691 OFFCURVE",
"68 691 OFFCURVE",
"64 690 CURVE",
"49 689 OFFCURVE",
"34 688 OFFCURVE",
"34 677 CURVE SMOOTH",
"34 666 OFFCURVE",
"46 651 OFFCURVE",
"54 624 CURVE SMOOTH",
"62 598 OFFCURVE",
"120 430 OFFCURVE",
"131 400 CURVE SMOOTH",
"142 369 OFFCURVE",
"149 337 OFFCURVE",
"160 310 CURVE SMOOTH",
"171 286 OFFCURVE",
"184 234 OFFCURVE",
"189 223 CURVE SMOOTH",
"194 212 OFFCURVE",
"187 202 OFFCURVE",
"180 185 CURVE SMOOTH",
"173 166 OFFCURVE",
"157 128 OFFCURVE",
"153 111 CURVE",
"148 95 OFFCURVE",
"121 23 OFFCURVE",
"118 14 CURVE SMOOTH",
"117 10 OFFCURVE",
"114 6 OFFCURVE",
"114 3 CURVE SMOOTH",
"114 -1 OFFCURVE",
"117 -3 OFFCURVE",
"126 -3 CURVE SMOOTH",
"131 -3 OFFCURVE",
"143 -3 OFFCURVE",
"163 -2 CURVE",
"184 -2 OFFCURVE",
"197 -2 OFFCURVE"
);
}
);
width = 496;
}
);
leftKerningGroup = Y;
rightKerningGroup = Y;
unicode = 0059;
},
{
glyphname = Z;
lastChange = "2016-11-09 20:21:19 +0000";
layers = (
{
anchors = (
{
name = bottom;
position = "{314, 0}";
},
{
name = top;
position = "{306, 710}";
}
);
layerId = "FC508690-ADF2-4DBF-B34D-60B2640A846D";
paths = (
{
closed = 1;
nodes = (
"357 625 LINE",
"377 623 LINE",
"380 622 OFFCURVE",
"383 622 OFFCURVE",
"386 622 CURVE",
"368 583 LINE SMOOTH",
"357 560 OFFCURVE",
"344 535 OFFCURVE",
"332 518 CURVE SMOOTH",
"308 486 OFFCURVE",
"243 401 OFFCURVE",
"225 370 CURVE SMOOTH",
"206 338 OFFCURVE",
"106 205 OFFCURVE",
"87 180 CURVE",
"66 155 OFFCURVE",
"44 136 OFFCURVE",
"44 120 CURVE SMOOTH",
"44 103 OFFCURVE",
"39 45 OFFCURVE",
"39 32 CURVE SMOOTH",
"39 16 OFFCURVE",
"32 -1 OFFCURVE",
"70 -1 CURVE SMOOTH",
"315 -1 LINE SMOOTH",
"342 -1 OFFCURVE",
"397 -3 OFFCURVE",
"442 -3 CURVE SMOOTH",
"465 -3 OFFCURVE",
"486 -3 OFFCURVE",
"500 -1 CURVE SMOOTH",
"543 6 OFFCURVE",
"562 3 OFFCURVE",
"575 6 CURVE",
"588 7 OFFCURVE",
"589 8 OFFCURVE",
"589 21 CURVE SMOOTH",
"589 23 OFFCURVE",
"589 25 OFFCURVE",
"589 27 CURVE SMOOTH",
"589 44 OFFCURVE",
"591 85 OFFCURVE",
"591 100 CURVE SMOOTH",
"590 115 OFFCURVE",
"593 131 OFFCURVE",
"572 131 CURVE SMOOTH",
"550 131 OFFCURVE",
"445 125 OFFCURVE",
"406 125 CURVE SMOOTH",
"367 125 OFFCURVE",
"340 123 OFFCURVE",
"297 123 CURVE SMOOTH",
"276 123 OFFCURVE",
"248 124 OFFCURVE",
"225 127 CURVE SMOOTH",
"212 128 OFFCURVE",
"198 130 OFFCURVE",
"184 132 CURVE",
"279 262 LINE",
"330 329 OFFCURVE",
"382 403 OFFCURVE",
"401 430 CURVE SMOOTH",
"438 480 OFFCURVE",
"528 612 OFFCURVE",
"539 628 CURVE SMOOTH",
"550 644 OFFCURVE",
"548 672 OFFCURVE",
"548 680 CURVE SMOOTH",
"548 687 OFFCURVE",
"550 696 OFFCURVE",
"535 696 CURVE SMOOTH",
"533 696 OFFCURVE",
"531 695 OFFCURVE",
"528 695 CURVE SMOOTH",
"514 693 OFFCURVE",
"468 693 OFFCURVE",
"428 693 CURVE SMOOTH",
"402 693 OFFCURVE",
"379 693 OFFCURVE",
"369 693 CURVE SMOOTH",
"347 693 OFFCURVE",
"241 697 OFFCURVE",
"201 697 CURVE SMOOTH",
"160 697 OFFCURVE",
"107 693 OFFCURVE",
"75 693 CURVE SMOOTH",
"60 693 OFFCURVE",
"44 698 OFFCURVE",
"45 679 CURVE SMOOTH",
"47 660 OFFCURVE",
"48 647 OFFCURVE",
"48 640 CURVE SMOOTH",
"48 633 OFFCURVE",
"44 628 OFFCURVE",
"59 627 CURVE SMOOTH",
"65 627 OFFCURVE",
"82 627 OFFCURVE",
"101 627 CURVE SMOOTH",
"130 627 OFFCURVE",
"163 627 OFFCURVE",
"172 625 CURVE SMOOTH",
"176 624 OFFCURVE",
"183 624 OFFCURVE",
"190 624 CURVE SMOOTH",
"209 624 OFFCURVE",
"235 626 OFFCURVE",
"251 626 CURVE SMOOTH"
);
}
);
width = 641;
}
);
leftKerningGroup = Z;
unicode = 005A;
},
{
glyphname = a;
lastChange = "2016-11-10 20:06:03 +0000";
layers = (
{
anchors = (
{
name = bottom;
position = "{266, 0}";
},
{
name = top;
position = "{270, 602}";
}
);
layerId = "FC508690-ADF2-4DBF-B34D-60B2640A846D";
paths = (
{
closed = 1;
nodes = (
"82 508 CURVE SMOOTH",
"79 506 OFFCURVE",
"70 501 OFFCURVE",
"70 494 CURVE SMOOTH",
"70 483 OFFCURVE",
"79 445 OFFCURVE",
"85 437 CURVE",
"85 430 OFFCURVE",
"94 428 OFFCURVE",
"94 428 CURVE",
"100 427 OFFCURVE",
"109 433 OFFCURVE",
"111 434 CURVE",
"170 475 OFFCURVE",
"212 516 OFFCURVE",
"268 516 CURVE SMOOTH",
"353 516 OFFCURVE",
"369 420 OFFCURVE",
"377 223 CURVE",
"320 223 OFFCURVE",
"302 215 OFFCURVE",
"249 215 CURVE SMOOTH",
"156 215 OFFCURVE",
"38 191 OFFCURVE",
"30 121 CURVE",
"30 13 OFFCURVE",
"107 -11 OFFCURVE",
"191 -11 CURVE SMOOTH",
"266 -11 OFFCURVE",
"306 0 OFFCURVE",
"375 20 CURVE",
"375 18 OFFCURVE",
"375 18 OFFCURVE",
"375 12 CURVE",
"375 4 OFFCURVE",
"382 0 OFFCURVE",
"386 0 CURVE SMOOTH",
"395 0 OFFCURVE",
"415 0 OFFCURVE",
"427 0 CURVE SMOOTH",
"430 0 OFFCURVE",
"433 -1 OFFCURVE",
"435 -1 CURVE SMOOTH",
"440 -1 OFFCURVE",
"451 1 OFFCURVE",
"453 22 CURVE",
"455 73 OFFCURVE",
"451 122 OFFCURVE",
"451 172 CURVE",
"453 207 OFFCURVE",
"456 244 OFFCURVE",
"456 281 CURVE",
"462 416 OFFCURVE",
"468 593 OFFCURVE",
"289 593 CURVE SMOOTH",
"232 593 OFFCURVE",
"189 588 OFFCURVE"
);
},
{
closed = 1;
nodes = (
"375 82 LINE",
"333 62 OFFCURVE",
"276 46 OFFCURVE",
"192 46 CURVE SMOOTH",
"130 46 OFFCURVE",
"111 60 OFFCURVE",
"111 108 CURVE",
"115 154 OFFCURVE",
"179 178 OFFCURVE",
"238 178 CURVE SMOOTH",
"273 178 OFFCURVE",
"302 182 OFFCURVE",
"378 175 CURVE"
);
}
);
width = 530;
}
);
leftKerningGroup = a;
unicode = 0061;
},
{
glyphname = b;
lastChange = "2016-11-04 22:54:03 +0000";
layers = (
{
layerId = "FC508690-ADF2-4DBF-B34D-60B2640A846D";
paths = (
{
closed = 1;
nodes = (
"71 89 LINE",
"71 72 OFFCURVE",
"67 25 OFFCURVE",
"67 10 CURVE SMOOTH",
"67 -4 OFFCURVE",
"76 -2 OFFCURVE",
"82 -2 CURVE SMOOTH",
"85 -2 OFFCURVE",
"116 0 OFFCURVE",
"128 0 CURVE SMOOTH",
"144 0 OFFCURVE",
"160 -2 OFFCURVE",
"156 -2 CURVE SMOOTH",
"166 -2 OFFCURVE",
"165 4 OFFCURVE",
"165 17 CURVE SMOOTH",
"165 24 LINE",
"194 4 OFFCURVE",
"234 -11 OFFCURVE",
"288 -11 CURVE SMOOTH",
"478 -11 OFFCURVE",
"492 241 OFFCURVE",
"492 298 CURVE SMOOTH",
"492 453 OFFCURVE",
"438 595 OFFCURVE",
"288 595 CURVE SMOOTH",
"245 595 OFFCURVE",
"202 584 OFFCURVE",
"168 564 CURVE",
"168 612 OFFCURVE",
"167 665 OFFCURVE",
"167 670 CURVE SMOOTH",
"166 735 LINE SMOOTH",
"166 741 OFFCURVE",
"163 742 OFFCURVE",
"158 742 CURVE SMOOTH",
"152 742 OFFCURVE",
"145 740 OFFCURVE",
"140 740 CURVE SMOOTH",
"79 739 LINE SMOOTH",
"67 739 OFFCURVE",
"66 733 OFFCURVE",
"66 727 CURVE SMOOTH",
"66 722 OFFCURVE",
"65 711 OFFCURVE",
"65 687 CURVE SMOOTH",
"65 664 OFFCURVE",
"74 465 OFFCURVE",
"74 438 CURVE SMOOTH",
"74 384 LINE SMOOTH",
"74 373 OFFCURVE",
"74 362 OFFCURVE",
"73 349 CURVE"
);
},
{
closed = 1;
nodes = (
"284 91 CURVE SMOOTH",
"226 91 OFFCURVE",
"188 122 OFFCURVE",
"166 165 CURVE",
"166 219 LINE",
"166 297 LINE SMOOTH",
"166 344 OFFCURVE",
"166 323 OFFCURVE",
"167 341 CURVE SMOOTH",
"168 361 OFFCURVE",
"168 384 OFFCURVE",
"168 404 CURVE SMOOTH",
"168 408 LINE",
"198 446 OFFCURVE",
"249 465 OFFCURVE",
"294 465 CURVE SMOOTH",
"350 465 OFFCURVE",
"423 430 OFFCURVE",
"423 298 CURVE SMOOTH",
"423 159 OFFCURVE",
"365 91 OFFCURVE"
);
}
);
width = 532;
}
);
unicode = 0062;
},
{
glyphname = c;
lastChange = "2016-11-10 19:29:45 +0000";
layers = (
{
anchors = (
{
name = bottom;
position = "{247, 0}";
},
{
name = top;
position = "{262, 602}";
}
);
layerId = "FC508690-ADF2-4DBF-B34D-60B2640A846D";
paths = (
{
closed = 1;
nodes = (
"402 146 LINE SMOOTH",
"398 149 OFFCURVE",
"395 150 OFFCURVE",
"392 150 CURVE SMOOTH",
"388 150 OFFCURVE",
"385 148 OFFCURVE",
"378 139 CURVE SMOOTH",
"335 60 OFFCURVE",
"276 42 OFFCURVE",
"251 42 CURVE SMOOTH",
"214 42 OFFCURVE",
"96 48 OFFCURVE",
"96 280 CURVE SMOOTH",
"96 483 OFFCURVE",
"173 514 OFFCURVE",
"269 514 CURVE SMOOTH",
"309 514 OFFCURVE",
"349 479 OFFCURVE",
"366 461 CURVE SMOOTH",
"371 456 OFFCURVE",
"375 450 OFFCURVE",
"379 450 CURVE SMOOTH",
"389 450 OFFCURVE",
"396 472 OFFCURVE",
"419 494 CURVE SMOOTH",
"426 500 OFFCURVE",
"429 504 OFFCURVE",
"429 508 CURVE SMOOTH",
"429 514 OFFCURVE",
"424 519 OFFCURVE",
"419 525 CURVE SMOOTH",
"409 539 OFFCURVE",
"360 592 OFFCURVE",
"260 592 CURVE SMOOTH",
"126 592 OFFCURVE",
"37 472 OFFCURVE",
"37 297 CURVE SMOOTH",
"37 121 OFFCURVE",
"112 -12 OFFCURVE",
"266 -12 CURVE SMOOTH",
"383 -12 OFFCURVE",
"434 69 OFFCURVE",
"444 85 CURVE SMOOTH",
"446 88 OFFCURVE",
"447 92 OFFCURVE",
"447 94 CURVE SMOOTH",
"447 103 OFFCURVE",
"428 125 OFFCURVE",
"417 134 CURVE SMOOTH"
);
}
);
width = 469;
}
);
leftKerningGroup = o;
unicode = 0063;
},
{
glyphname = d;
lastChange = "2016-11-09 02:00:38 +0000";
layers = (
{
anchors = (
{
name = bottom;
position = "{277, 0}";
},
{
name = top;
position = "{260, 602}";
}
);
layerId = "FC508690-ADF2-4DBF-B34D-60B2640A846D";
paths = (
{
closed = 1;
nodes = (
"476 743 CURVE SMOOTH",
"454 739 OFFCURVE",
"435 742 OFFCURVE",
"406 742 CURVE SMOOTH",
"389 742 OFFCURVE",
"384 726 OFFCURVE",
"384 693 CURVE SMOOTH",
"384 688 OFFCURVE",
"383 605 OFFCURVE",
"382 528 CURVE",
"372 538 OFFCURVE",
"351 573 OFFCURVE",
"243 573 CURVE SMOOTH",
"217 573 OFFCURVE",
"192 566 OFFCURVE",
"167 553 CURVE SMOOTH",
"143 540 OFFCURVE",
"121 520 OFFCURVE",
"102 496 CURVE SMOOTH",
"61 443 OFFCURVE",
"40 387 OFFCURVE",
"40 301 CURVE SMOOTH",
"40 212 OFFCURVE",
"58 135 OFFCURVE",
"92 80 CURVE SMOOTH",
"129 20 OFFCURVE",
"185 -11 OFFCURVE",
"252 -11 CURVE SMOOTH",
"299 -11 OFFCURVE",
"340 14 OFFCURVE",
"374 40 CURVE",
"374 39 OFFCURVE",
"374 21 OFFCURVE",
"374 20 CURVE SMOOTH",
"374 -2 OFFCURVE",
"385 -3 OFFCURVE",
"403 -3 CURVE SMOOTH",
"416 -3 OFFCURVE",
"440 -3 OFFCURVE",
"475 -5 CURVE",
"489 -5 OFFCURVE",
"497 -1 OFFCURVE",
"497 18 CURVE SMOOTH",
"497 113 OFFCURVE",
"499 686 OFFCURVE",
"499 702 CURVE SMOOTH",
"499 718 OFFCURVE",
"495 746 OFFCURVE"
);
},
{
closed = 1;
nodes = (
"249 58 CURVE SMOOTH",
"203 58 OFFCURVE",
"168 82 OFFCURVE",
"145 129 CURVE SMOOTH",
"124 170 OFFCURVE",
"113 228 OFFCURVE",
"113 293 CURVE SMOOTH",
"113 351 OFFCURVE",
"128 388 OFFCURVE",
"154 429 CURVE SMOOTH",
"167 449 OFFCURVE",
"183 464 OFFCURVE",
"200 475 CURVE SMOOTH",
"218 486 OFFCURVE",
"238 492 OFFCURVE",
"259 492 CURVE SMOOTH",
"305 492 OFFCURVE",
"377 459 OFFCURVE",
"377 404 CURVE SMOOTH",
"377 338 OFFCURVE",
"380 319 OFFCURVE",
"381 274 CURVE SMOOTH",
"382 256 OFFCURVE",
"375 195 OFFCURVE",
"375 156 CURVE SMOOTH",
"375 108 OFFCURVE",
"327 58 OFFCURVE"
);
}
);
width = 575;
}
);
leftKerningGroup = o;
unicode = 0064;
},
{
glyphname = e;
lastChange = "2016-11-09 20:43:56 +0000";
layers = (
{
anchors = (
{
name = bottom;
position = "{267, 0}";
},
{
name = top;
position = "{256, 602}";
}
);
layerId = "FC508690-ADF2-4DBF-B34D-60B2640A846D";
paths = (
{
closed = 1;
nodes = (
"187 195 OFFCURVE",
"183 240 CURVE",
"275 247 OFFCURVE",
"402 260 OFFCURVE",
"441 260 CURVE SMOOTH",
"451 262 OFFCURVE",
"451 269 OFFCURVE",
"451 269 CURVE SMOOTH",
"451 388 OFFCURVE",
"439 598 OFFCURVE",
"239 598 CURVE SMOOTH",
"157 598 OFFCURVE",
"25 540 OFFCURVE",
"25 297 CURVE SMOOTH",
"25 206 OFFCURVE",
"44 -22 OFFCURVE",
"275 -22 CURVE SMOOTH",
"354 -22 OFFCURVE",
"420 6 OFFCURVE",
"445 32 CURVE",
"450 36 OFFCURVE",
"454 39 OFFCURVE",
"456 43 CURVE SMOOTH",
"457 45 OFFCURVE",
"448 68 OFFCURVE",
"438 93 CURVE",
"430 106 OFFCURVE",
"428 122 OFFCURVE",
"422 133 CURVE",
"409 166 OFFCURVE",
"404 174 OFFCURVE",
"394 174 CURVE",
"355 155 OFFCURVE",
"336 143 OFFCURVE",
"288 143 CURVE SMOOTH",
"208 143 OFFCURVE"
);
},
{
closed = 1;
nodes = (
"293 391 OFFCURVE",
"299 308 CURVE",
"183 298 LINE",
"187 374 OFFCURVE",
"206 422 OFFCURVE",
"244 422 CURVE SMOOTH",
"273 422 OFFCURVE"
);
}
);
width = 482;
}
);
leftKerningGroup = o;
unicode = 0065;
},
{
glyphname = f;
lastChange = "2016-11-04 22:54:03 +0000";
layers = (
{
layerId = "FC508690-ADF2-4DBF-B34D-60B2640A846D";
paths = (
{
closed = 1;
nodes = (
"79 329 LINE",
"80 250 OFFCURVE",
"83 204 OFFCURVE",
"81 121 CURVE",
"81 38 LINE",
"79 4 OFFCURVE",
"87 -3 OFFCURVE",
"97 -3 CURVE SMOOTH",
"99 -3 OFFCURVE",
"115 -3 OFFCURVE",
"118 -2 CURVE",
"133 -1 OFFCURVE",
"177 -2 OFFCURVE",
"204 1 CURVE SMOOTH",
"219 3 OFFCURVE",
"224 8 OFFCURVE",
"224 18 CURVE SMOOTH",
"224 24 OFFCURVE",
"224 31 OFFCURVE",
"223 41 CURVE SMOOTH",
"220 65 OFFCURVE",
"215 124 OFFCURVE",
"218 223 CURVE",
"217 250 OFFCURVE",
"219 276 OFFCURVE",
"219 303 CURVE",
"220 326 OFFCURVE",
"219 335 OFFCURVE",
"221 361 CURVE",
"244 361 OFFCURVE",
"273 359 OFFCURVE",
"290 359 CURVE SMOOTH",
"309 359 OFFCURVE",
"313 362 OFFCURVE",
"313 373 CURVE SMOOTH",
"313 378 OFFCURVE",
"314 381 OFFCURVE",
"314 386 CURVE SMOOTH",
"314 397 OFFCURVE",
"310 403 OFFCURVE",
"287 403 CURVE SMOOTH",
"268 403 OFFCURVE",
"242 401 OFFCURVE",
"221 401 CURVE",
"221 598 LINE SMOOTH",
"222 622 OFFCURVE",
"231 631 OFFCURVE",
"252 631 CURVE SMOOTH",
"281 631 OFFCURVE",
"294 628 OFFCURVE",
"306 628 CURVE SMOOTH",
"311 628 OFFCURVE",
"314 645 OFFCURVE",
"316 651 CURVE SMOOTH",
"325 680 LINE",
"325 680 OFFCURVE",
"329 694 OFFCURVE",
"335 705 CURVE SMOOTH",
"338 711 OFFCURVE",
"336 715 OFFCURVE",
"332 717 CURVE SMOOTH",
"299 739 OFFCURVE",
"269 742 OFFCURVE",
"222 743 CURVE SMOOTH",
"173 744 OFFCURVE",
"113 726 OFFCURVE",
"92 668 CURVE SMOOTH",
"75 622 OFFCURVE",
"81 549 OFFCURVE",
"82 498 CURVE SMOOTH",
"82 462 OFFCURVE",
"83 429 OFFCURVE",
"82 403 CURVE",
"62 403 LINE SMOOTH",
"39 403 OFFCURVE",
"35 398 OFFCURVE",
"35 386 CURVE SMOOTH",
"35 381 OFFCURVE",
"36 378 OFFCURVE",
"36 373 CURVE SMOOTH",
"36 362 OFFCURVE",
"40 359 OFFCURVE",
"59 359 CURVE SMOOTH",
"79 359 LINE"
);
}
);
width = 347;
}
);
unicode = 0066;
},
{
glyphname = g;
lastChange = "2016-11-10 20:03:00 +0000";
layers = (
{
anchors = (
{
name = bottom;
position = "{295, 0}";
},
{
name = top;
position = "{285, 602}";
}
);
layerId = "FC508690-ADF2-4DBF-B34D-60B2640A846D";
paths = (
{
closed = 1;
nodes = (
"243 -159 CURVE SMOOTH",
"409 -159 OFFCURVE",
"487 -62 OFFCURVE",
"490 108 CURVE SMOOTH",
"490 119 OFFCURVE",
"488 219 OFFCURVE",
"489 232 CURVE",
"491 492 LINE SMOOTH",
"491 509 OFFCURVE",
"495 556 OFFCURVE",
"495 571 CURVE SMOOTH",
"495 585 OFFCURVE",
"486 583 OFFCURVE",
"480 583 CURVE SMOOTH",
"472 583 OFFCURVE",
"433 580 OFFCURVE",
"421 580 CURVE SMOOTH",
"409 580 OFFCURVE",
"342 583 OFFCURVE",
"334 583 CURVE SMOOTH",
"324 583 OFFCURVE",
"325 577 OFFCURVE",
"325 564 CURVE SMOOTH",
"325 557 LINE",
"298 577 OFFCURVE",
"259 592 OFFCURVE",
"209 592 CURVE SMOOTH",
"47 592 OFFCURVE",
"32 364 OFFCURVE",
"32 313 CURVE SMOOTH",
"32 169 OFFCURVE",
"91 46 OFFCURVE",
"215 46 CURVE SMOOTH",
"254 46 OFFCURVE",
"297 53 OFFCURVE",
"321 67 CURVE",
"321 -15 OFFCURVE",
"293 -69 OFFCURVE",
"207 -69 CURVE",
"154 -69 OFFCURVE",
"129 -44 OFFCURVE",
"121 -38 CURVE SMOOTH",
"115 -32 OFFCURVE",
"104 -24 OFFCURVE",
"98 -24 CURVE SMOOTH",
"95 -24 OFFCURVE",
"94 -24 OFFCURVE",
"91 -27 CURVE SMOOTH",
"82 -37 OFFCURVE",
"67 -58 OFFCURVE",
"60 -66 CURVE SMOOTH",
"55 -72 OFFCURVE",
"53 -77 OFFCURVE",
"53 -77 CURVE",
"53 -77 OFFCURVE",
"50 -79 OFFCURVE",
"56 -85 CURVE SMOOTH",
"63 -92 OFFCURVE",
"107 -159 OFFCURVE"
);
},
{
closed = 1;
nodes = (
"274 419 CURVE SMOOTH",
"300 419 OFFCURVE",
"315 402 OFFCURVE",
"324 392 CURVE",
"326 359 LINE",
"326 346 OFFCURVE",
"323 311 OFFCURVE",
"323 302 CURVE SMOOTH",
"323 238 LINE",
"311 224 OFFCURVE",
"293 216 OFFCURVE",
"274 216 CURVE SMOOTH",
"242 216 OFFCURVE",
"207 229 OFFCURVE",
"207 316 CURVE SMOOTH",
"207 393 OFFCURVE",
"222 419 OFFCURVE"
);
}
);
width = 553;
}
);
leftKerningGroup = g;
unicode = 0067;
},
{
glyphname = h;
lastChange = "2016-11-04 22:54:03 +0000";
layers = (
{
anchors = (
{
name = bottom;
position = "{275, 0}";
},
{
name = top;
position = "{131, 726}";
}
);
layerId = "FC508690-ADF2-4DBF-B34D-60B2640A846D";
paths = (
{
closed = 1;
nodes = (
"486 112 CURVE SMOOTH",
"487 135 OFFCURVE",
"487 268 OFFCURVE",
"487 303 CURVE SMOOTH",
"487 564 OFFCURVE",
"440 621 OFFCURVE",
"321 621 CURVE SMOOTH",
"235 621 OFFCURVE",
"209 597 OFFCURVE",
"178 585 CURVE",
"179 647 OFFCURVE",
"179 702 OFFCURVE",
"179 706 CURVE SMOOTH",
"179 723 OFFCURVE",
"175 751 OFFCURVE",
"156 747 CURVE SMOOTH",
"137 744 OFFCURVE",
"114 744 OFFCURVE",
"86 746 CURVE SMOOTH",
"69 748 OFFCURVE",
"64 730 OFFCURVE",
"64 697 CURVE SMOOTH",
"64 689 OFFCURVE",
"61 452 OFFCURVE",
"57 393 CURVE SMOOTH",
"54 335 OFFCURVE",
"53 317 OFFCURVE",
"55 270 CURVE SMOOTH",
"56 224 OFFCURVE",
"54 50 OFFCURVE",
"54 30 CURVE SMOOTH",
"54 8 OFFCURVE",
"66 1 OFFCURVE",
"83 1 CURVE SMOOTH",
"96 1 OFFCURVE",
"121 1 OFFCURVE",
"155 0 CURVE SMOOTH",
"179 0 OFFCURVE",
"177 23 OFFCURVE",
"177 42 CURVE SMOOTH",
"177 99 OFFCURVE",
"168 216 OFFCURVE",
"178 485 CURVE",
"201 506 OFFCURVE",
"234 523 OFFCURVE",
"283 523 CURVE SMOOTH",
"363 523 OFFCURVE",
"374 469 OFFCURVE",
"374 344 CURVE SMOOTH",
"374 248 OFFCURVE",
"368 122 OFFCURVE",
"370 109 CURVE SMOOTH",
"374 89 OFFCURVE",
"370 41 OFFCURVE",
"370 27 CURVE SMOOTH",
"370 14 OFFCURVE",
"369 0 OFFCURVE",
"383 0 CURVE SMOOTH",
"397 0 OFFCURVE",
"470 0 OFFCURVE",
"476 0 CURVE SMOOTH",
"482 0 OFFCURVE",
"487 8 OFFCURVE",
"487 22 CURVE SMOOTH",
"487 36 OFFCURVE",
"486 89 OFFCURVE"
);
}
);
width = 543;
}
);
unicode = 0068;
},
{
glyphname = i;
lastChange = "2016-11-04 22:54:03 +0000";
layers = (
{
layerId = "FC508690-ADF2-4DBF-B34D-60B2640A846D";
paths = (
{
closed = 1;
nodes = (
"129 550 CURVE",
"129 556 OFFCURVE",
"131 564 OFFCURVE",
"131 570 CURVE SMOOTH",
"131 576 OFFCURVE",
"129 581 OFFCURVE",
"122 581 CURVE SMOOTH",
"105 581 OFFCURVE",
"88 582 OFFCURVE",
"80 582 CURVE SMOOTH",
"68 582 OFFCURVE",
"66 572 OFFCURVE",
"66 560 CURVE SMOOTH",
"66 555 OFFCURVE",
"67 549 OFFCURVE",
"67 543 CURVE",
"69 523 OFFCURVE",
"60 364 OFFCURVE",
"60 310 CURVE SMOOTH",
"60 255 OFFCURVE",
"57 59 OFFCURVE",
"57 27 CURVE SMOOTH",
"57 -11 OFFCURVE",
"49 -8 OFFCURVE",
"78 -8 CURVE SMOOTH",
"93 -8 OFFCURVE",
"108 -8 OFFCURVE",
"115 -4 CURVE SMOOTH",
"124 -2 OFFCURVE",
"124 0 OFFCURVE",
"124 9 CURVE SMOOTH",
"124 12 OFFCURVE",
"124 16 OFFCURVE",
"123 20 CURVE SMOOTH",
"120 41 OFFCURVE",
"118 186 OFFCURVE",
"118 229 CURVE SMOOTH",
"118 272 OFFCURVE",
"125 413 OFFCURVE",
"125 458 CURVE SMOOTH",
"126 504 OFFCURVE",
"127 533 OFFCURVE"
);
},
{
closed = 1;
nodes = (
"50 682 CURVE SMOOTH",
"50 659 OFFCURVE",
"61 631 OFFCURVE",
"101 631 CURVE SMOOTH",
"141 631 OFFCURVE",
"160 656 OFFCURVE",
"160 682 CURVE SMOOTH",
"160 710 OFFCURVE",
"145 740 OFFCURVE",
"120 740 CURVE SMOOTH",
"95 740 OFFCURVE",
"50 733 OFFCURVE"
);
}
);
width = 200;
}
);
unicode = 0069;
},
{
glyphname = j;
lastChange = "2016-11-04 22:54:03 +0000";
layers = (
{
layerId = "FC508690-ADF2-4DBF-B34D-60B2640A846D";
paths = (
{
closed = 1;
nodes = (
"40 682 CURVE SMOOTH",
"40 659 OFFCURVE",
"51 631 OFFCURVE",
"91 631 CURVE SMOOTH",
"131 631 OFFCURVE",
"150 656 OFFCURVE",
"150 682 CURVE SMOOTH",
"150 710 OFFCURVE",
"135 740 OFFCURVE",
"110 740 CURVE SMOOTH",
"85 740 OFFCURVE",
"40 733 OFFCURVE"
);
},
{
closed = 1;
nodes = (
"113 7 CURVE",
"113 74 OFFCURVE",
"111 191 OFFCURVE",
"113 213 CURVE",
"119 407 LINE SMOOTH",
"119 420 OFFCURVE",
"121 443 OFFCURVE",
"120 463 CURVE",
"121 501 LINE",
"121 544 LINE",
"124 578 OFFCURVE",
"116 585 OFFCURVE",
"106 585 CURVE SMOOTH",
"104 585 OFFCURVE",
"101 585 OFFCURVE",
"98 584 CURVE SMOOTH",
"95 583 OFFCURVE",
"80 586 OFFCURVE",
"74 583 CURVE",
"60 581 OFFCURVE",
"54 576 OFFCURVE",
"54 566 CURVE SMOOTH",
"54 560 OFFCURVE",
"53 553 OFFCURVE",
"54 543 CURVE SMOOTH",
"57 519 OFFCURVE",
"61 460 OFFCURVE",
"56 361 CURVE",
"48 123 LINE",
"48 100 OFFCURVE",
"48 21 OFFCURVE",
"46 -22 CURVE",
"46 -42 LINE",
"44 -86 OFFCURVE",
"28 -105 OFFCURVE",
"-1 -105 CURVE SMOOTH",
"-17 -105 OFFCURVE",
"-23 -102 OFFCURVE",
"-30 -102 CURVE SMOOTH",
"-41 -102 OFFCURVE",
"-43 -114 OFFCURVE",
"-44 -116 CURVE SMOOTH",
"-50 -132 LINE SMOOTH",
"-52 -136 OFFCURVE",
"-49 -139 OFFCURVE",
"-49 -139 CURVE",
"-32 -150 OFFCURVE",
"-12 -158 OFFCURVE",
"9 -159 CURVE SMOOTH",
"123 -162 OFFCURVE",
"109 -97 OFFCURVE"
);
}
);
width = 166;
}
);
unicode = 006A;
},
{
glyphname = k;
lastChange = "2016-11-10 19:30:13 +0000";
layers = (
{
anchors = (
{
name = bottom;
position = "{261, 0}";
},
{
name = top;
position = "{249, 582}";
}
);
layerId = "FC508690-ADF2-4DBF-B34D-60B2640A846D";
paths = (
{
closed = 1;
nodes = (
"136 2 CURVE",
"170 2 LINE SMOOTH",
"175 2 OFFCURVE",
"181 2 OFFCURVE",
"181 10 CURVE SMOOTH",
"181 12 OFFCURVE",
"181 14 OFFCURVE",
"180 16 CURVE SMOOTH",
"179 22 OFFCURVE",
"177 39 OFFCURVE",
"177 57 CURVE SMOOTH",
"177 78 OFFCURVE",
"177 103 OFFCURVE",
"177 115 CURVE SMOOTH",
"177 125 OFFCURVE",
"177 149 OFFCURVE",
"177 168 CURVE SMOOTH",
"178 179 OFFCURVE",
"178 221 OFFCURVE",
"177 233 CURVE",
"209 199 LINE SMOOTH",
"225 180 OFFCURVE",
"244 159 OFFCURVE",
"254 149 CURVE",
"272 130 OFFCURVE",
"353 25 OFFCURVE",
"364 16 CURVE",
"375 5 OFFCURVE",
"382 1 OFFCURVE",
"396 1 CURVE SMOOTH",
"412 1 OFFCURVE",
"494 4 OFFCURVE",
"505 4 CURVE SMOOTH",
"513 4 OFFCURVE",
"519 6 OFFCURVE",
"519 10 CURVE SMOOTH",
"519 13 OFFCURVE",
"518 14 OFFCURVE",
"517 17 CURVE SMOOTH",
"509 25 OFFCURVE",
"448 100 OFFCURVE",
"431 113 CURVE SMOOTH",
"415 127 OFFCURVE",
"341 220 OFFCURVE",
"319 240 CURVE SMOOTH",
"309 250 OFFCURVE",
"291 270 OFFCURVE",
"274 290 CURVE SMOOTH",
"265 301 OFFCURVE",
"254 312 OFFCURVE",
"244 324 CURVE",
"289 371 LINE SMOOTH",
"312 396 OFFCURVE",
"335 422 OFFCURVE",
"341 428 CURVE",
"349 441 OFFCURVE",
"426 523 OFFCURVE",
"438 534 CURVE SMOOTH",
"452 545 OFFCURVE",
"466 564 OFFCURVE",
"470 568 CURVE SMOOTH",
"472 570 OFFCURVE",
"474 573 OFFCURVE",
"474 576 CURVE SMOOTH",
"474 578 OFFCURVE",
"473 581 OFFCURVE",
"468 582 CURVE SMOOTH",
"461 582 OFFCURVE",
"440 582 OFFCURVE",
"434 582 CURVE SMOOTH",
"420 581 OFFCURVE",
"379 536 OFFCURVE",
"371 528 CURVE",
"348 505 OFFCURVE",
"300 457 OFFCURVE",
"291 443 CURVE",
"279 431 OFFCURVE",
"228 373 OFFCURVE",
"214 359 CURVE SMOOTH",
"207 352 OFFCURVE",
"197 342 OFFCURVE",
"190 334 CURVE SMOOTH",
"176 320 LINE",
"175 368 LINE SMOOTH",
"175 377 OFFCURVE",
"173 386 OFFCURVE",
"173 396 CURVE SMOOTH",
"173 406 OFFCURVE",
"174 416 OFFCURVE",
"174 426 CURVE SMOOTH",
"177 452 OFFCURVE",
"176 599 OFFCURVE",
"176 639 CURVE SMOOTH",
"176 655 OFFCURVE",
"175 667 OFFCURVE",
"175 673 CURVE SMOOTH",
"174 697 OFFCURVE",
"175 713 OFFCURVE",
"174 723 CURVE SMOOTH",
"174 731 OFFCURVE",
"176 740 OFFCURVE",
"163 740 CURVE SMOOTH",
"162 740 OFFCURVE",
"160 740 OFFCURVE",
"158 740 CURVE SMOOTH",
"139 739 OFFCURVE",
"115 740 OFFCURVE",
"96 740 CURVE SMOOTH",
"91 740 OFFCURVE",
"84 743 OFFCURVE",
"79 743 CURVE SMOOTH",
"75 743 OFFCURVE",
"70 741 OFFCURVE",
"70 735 CURVE",
"67 725 OFFCURVE",
"66 684 OFFCURVE",
"67 652 CURVE SMOOTH",
"67 637 OFFCURVE",
"67 624 OFFCURVE",
"68 617 CURVE SMOOTH",
"69 609 OFFCURVE",
"69 437 OFFCURVE",
"70 420 CURVE SMOOTH",
"70 389 OFFCURVE",
"70 352 OFFCURVE",
"69 336 CURVE SMOOTH",
"65 314 OFFCURVE",
"65 93 OFFCURVE",
"66 73 CURVE SMOOTH",
"66 54 OFFCURVE",
"73 28 OFFCURVE",
"71 18 CURVE SMOOTH",
"70 13 OFFCURVE",
"68 8 OFFCURVE",
"68 5 CURVE SMOOTH",
"68 2 OFFCURVE",
"70 0 OFFCURVE",
"74 0 CURVE",
"75 -1 OFFCURVE",
"80 -1 OFFCURVE",
"84 -1 CURVE SMOOTH",
"100 -1 OFFCURVE",
"126 2 OFFCURVE"
);
}
);
width = 503;
}
);
unicode = 006B;
},
{
glyphname = l;
lastChange = "2016-11-04 22:54:03 +0000";
layers = (
{
anchors = (
{
name = bottom;
position = "{147, 0}";
},
{
name = top;
position = "{116, 732}";
}
);
layerId = "FC508690-ADF2-4DBF-B34D-60B2640A846D";
paths = (
{
closed = 1;
nodes = (
"65 162 CURVE",
"65 58 OFFCURVE",
"49 -7 OFFCURVE",
"163 -4 CURVE SMOOTH",
"186 -3 OFFCURVE",
"204 -2 OFFCURVE",
"223 16 CURVE",
"217 57 LINE SMOOTH",
"217 59 OFFCURVE",
"217 72 OFFCURVE",
"206 72 CURVE SMOOTH",
"199 72 OFFCURVE",
"193 69 OFFCURVE",
"175 69 CURVE SMOOTH",
"146 69 OFFCURVE",
"124 88 OFFCURVE",
"124 132 CURVE SMOOTH",
"124 152 LINE SMOOTH",
"124 195 OFFCURVE",
"128 255 OFFCURVE",
"128 278 CURVE SMOOTH",
"128 516 LINE",
"127 615 OFFCURVE",
"133 674 OFFCURVE",
"136 698 CURVE SMOOTH",
"137 708 OFFCURVE",
"138 715 OFFCURVE",
"138 721 CURVE SMOOTH",
"138 731 OFFCURVE",
"132 736 OFFCURVE",
"118 738 CURVE",
"112 741 OFFCURVE",
"103 738 OFFCURVE",
"100 739 CURVE SMOOTH",
"97 740 OFFCURVE",
"94 740 OFFCURVE",
"92 740 CURVE SMOOTH",
"82 740 OFFCURVE",
"74 733 OFFCURVE",
"75 699 CURVE",
"75 656 LINE",
"74 618 LINE SMOOTH",
"73 598 OFFCURVE",
"73 575 OFFCURVE",
"73 562 CURVE SMOOTH",
"73 368 LINE SMOOTH",
"73 346 OFFCURVE",
"67 229 OFFCURVE"
);
}
);
width = 228;
}
);
unicode = 006C;
},
{
glyphname = m;
lastChange = "2016-11-04 22:54:03 +0000";
layers = (
{
layerId = "FC508690-ADF2-4DBF-B34D-60B2640A846D";
paths = (
{
closed = 1;
nodes = (
"810 211 CURVE SMOOTH",
"815 284 OFFCURVE",
"810 357 OFFCURVE",
"810 384 CURVE SMOOTH",
"810 412 OFFCURVE",
"801 499 OFFCURVE",
"773 533 CURVE",
"738 583 OFFCURVE",
"696 598 OFFCURVE",
"637 598 CURVE SMOOTH",
"534 598 OFFCURVE",
"478 545 OFFCURVE",
"461 531 CURVE",
"460 533 OFFCURVE",
"405 598 OFFCURVE",
"300 598 CURVE SMOOTH",
"222 598 OFFCURVE",
"171 574 OFFCURVE",
"123 552 CURVE",
"123 552 OFFCURVE",
"124 574 OFFCURVE",
"124 580 CURVE SMOOTH",
"124 593 OFFCURVE",
"120 598 OFFCURVE",
"116 598 CURVE SMOOTH",
"114 598 OFFCURVE",
"104 599 OFFCURVE",
"94 599 CURVE SMOOTH",
"83 598 OFFCURVE",
"78 598 OFFCURVE",
"75 598 CURVE SMOOTH",
"64 598 OFFCURVE",
"63 593 OFFCURVE",
"63 584 CURVE SMOOTH",
"63 409 OFFCURVE",
"63 294 OFFCURVE",
"63 294 CURVE",
"62 260 OFFCURVE",
"63 27 OFFCURVE",
"63 14 CURVE SMOOTH",
"63 3 OFFCURVE",
"66 0 OFFCURVE",
"73 0 CURVE SMOOTH",
"82 0 OFFCURVE",
"105 0 OFFCURVE",
"108 0 CURVE SMOOTH",
"127 0 OFFCURVE",
"130 7 OFFCURVE",
"130 16 CURVE SMOOTH",
"130 23 OFFCURVE",
"132 152 OFFCURVE",
"131 203 CURVE",
"131 341 LINE",
"130 401 OFFCURVE",
"130 435 OFFCURVE",
"130 479 CURVE",
"161 503 OFFCURVE",
"226 534 OFFCURVE",
"285 534 CURVE SMOOTH",
"350 534 OFFCURVE",
"383 524 OFFCURVE",
"394 472 CURVE SMOOTH",
"402 430 OFFCURVE",
"399 305 OFFCURVE",
"398 282 CURVE SMOOTH",
"398 264 OFFCURVE",
"397 226 OFFCURVE",
"396 186 CURVE",
"394 150 OFFCURVE",
"393 118 OFFCURVE",
"393 106 CURVE SMOOTH",
"393 73 OFFCURVE",
"388 52 OFFCURVE",
"390 37 CURVE SMOOTH",
"391 26 OFFCURVE",
"388 0 OFFCURVE",
"408 0 CURVE SMOOTH",
"413 0 OFFCURVE",
"427 0 OFFCURVE",
"427 0 CURVE",
"436 0 OFFCURVE",
"436 0 OFFCURVE",
"439 0 CURVE SMOOTH",
"440 0 OFFCURVE",
"442 0 OFFCURVE",
"443 0 CURVE SMOOTH",
"451 0 OFFCURVE",
"458 0 OFFCURVE",
"462 0 CURVE SMOOTH",
"474 -1 OFFCURVE",
"487 0 OFFCURVE",
"487 18 CURVE",
"486 35 OFFCURVE",
"483 101 OFFCURVE",
"485 115 CURVE SMOOTH",
"487 130 OFFCURVE",
"485 221 OFFCURVE",
"484 242 CURVE SMOOTH",
"484 262 OFFCURVE",
"484 448 OFFCURVE",
"484 448 CURVE",
"484 448 OFFCURVE",
"489 534 OFFCURVE",
"626 534 CURVE SMOOTH",
"681 534 OFFCURVE",
"702 520 OFFCURVE",
"724 472 CURVE SMOOTH",
"743 430 OFFCURVE",
"743 305 OFFCURVE",
"741 273 CURVE",
"736 220 OFFCURVE",
"742 51 OFFCURVE",
"742 23 CURVE SMOOTH",
"742 3 OFFCURVE",
"743 -1 OFFCURVE",
"753 0 CURVE SMOOTH",
"767 2 OFFCURVE",
"803 0 OFFCURVE",
"803 0 CURVE",
"810 1 OFFCURVE",
"809 8 OFFCURVE",
"808 26 CURVE SMOOTH",
"807 46 OFFCURVE",
"808 173 OFFCURVE"
);
}
);
width = 853;
}
);
unicode = 006D;
},
{
glyphname = n;
lastChange = "2016-11-04 22:54:03 +0000";
layers = (
{
anchors = (
{
name = bottom;
position = "{278, 0}";
},
{
name = top;
position = "{289, 602}";
}
);
layerId = "FC508690-ADF2-4DBF-B34D-60B2640A846D";
paths = (
{
closed = 1;
nodes = (
"473 210 CURVE SMOOTH",
"473 243 OFFCURVE",
"472 357 OFFCURVE",
"472 384 CURVE SMOOTH",
"472 412 OFFCURVE",
"471 499 OFFCURVE",
"444 532 CURVE",
"408 582 OFFCURVE",
"370 597 OFFCURVE",
"311 597 CURVE SMOOTH",
"220 597 OFFCURVE",
"182 565 OFFCURVE",
"134 544 CURVE",
"134 544 OFFCURVE",
"135 574 OFFCURVE",
"135 580 CURVE SMOOTH",
"135 593 OFFCURVE",
"131 597 OFFCURVE",
"127 597 CURVE SMOOTH",
"125 597 OFFCURVE",
"116 598 OFFCURVE",
"105 598 CURVE SMOOTH",
"94 598 OFFCURVE",
"89 598 OFFCURVE",
"87 598 CURVE SMOOTH",
"76 598 OFFCURVE",
"74 592 OFFCURVE",
"74 584 CURVE SMOOTH",
"74 576 OFFCURVE",
"74 294 OFFCURVE",
"74 294 CURVE",
"73 259 OFFCURVE",
"79 26 OFFCURVE",
"79 13 CURVE SMOOTH",
"79 3 OFFCURVE",
"82 0 OFFCURVE",
"90 0 CURVE SMOOTH",
"98 0 OFFCURVE",
"121 0 OFFCURVE",
"124 0 CURVE SMOOTH",
"143 0 OFFCURVE",
"146 7 OFFCURVE",
"146 16 CURVE SMOOTH",
"146 23 OFFCURVE",
"144 152 OFFCURVE",
"142 203 CURVE",
"142 341 LINE",
"141 400 OFFCURVE",
"141 435 OFFCURVE",
"141 479 CURVE",
"172 502 OFFCURVE",
"237 534 OFFCURVE",
"296 534 CURVE SMOOTH",
"361 534 OFFCURVE",
"375 520 OFFCURVE",
"398 472 CURVE SMOOTH",
"417 430 OFFCURVE",
"410 305 OFFCURVE",
"410 282 CURVE SMOOTH",
"409 233 OFFCURVE",
"404 51 OFFCURVE",
"404 23 CURVE SMOOTH",
"404 3 OFFCURVE",
"406 0 OFFCURVE",
"415 0 CURVE SMOOTH",
"429 0 OFFCURVE",
"452 -1 OFFCURVE",
"462 2 CURVE SMOOTH",
"471 4 OFFCURVE",
"475 7 OFFCURVE",
"471 25 CURVE SMOOTH",
"467 43 OFFCURVE",
"473 172 OFFCURVE"
);
}
);
width = 543;
}
);
unicode = 006E;
},
{
glyphname = o;
lastChange = "2016-11-10 20:06:50 +0000";
layers = (
{
anchors = (
{
name = bottom;
position = "{322, 0}";
},
{
name = top;
position = "{261, 602}";
}
);
layerId = "FC508690-ADF2-4DBF-B34D-60B2640A846D";
paths = (
{
closed = 1;
nodes = (
"254 598 CURVE SMOOTH",
"172 598 OFFCURVE",
"40 540 OFFCURVE",
"40 297 CURVE SMOOTH",
"40 206 OFFCURVE",
"56 -22 OFFCURVE",
"260 -22 CURVE SMOOTH",
"406 -22 OFFCURVE",
"466 163 OFFCURVE",
"466 285 CURVE SMOOTH",
"466 408 OFFCURVE",
"454 598 OFFCURVE"
);
},
{
closed = 1;
nodes = (
"253 172 CURVE SMOOTH",
"201 172 OFFCURVE",
"197 229 OFFCURVE",
"197 270 CURVE SMOOTH",
"197 339 OFFCURVE",
"214 382 OFFCURVE",
"259 382 CURVE SMOOTH",
"295 382 OFFCURVE",
"317 357 OFFCURVE",
"317 278 CURVE SMOOTH",
"317 226 OFFCURVE",
"300 172 OFFCURVE"
);
}
);
width = 506;
}
);
leftKerningGroup = o;
unicode = 006F;
},
{
glyphname = p;
lastChange = "2016-11-04 22:54:03 +0000";
layers = (
{
layerId = "FC508690-ADF2-4DBF-B34D-60B2640A846D";
paths = (
{
closed = 1;
nodes = (
"73 232 LINE",
"74 219 OFFCURVE",
"74 208 OFFCURVE",
"74 197 CURVE SMOOTH",
"74 143 LINE SMOOTH",
"74 116 OFFCURVE",
"65 -83 OFFCURVE",
"65 -106 CURVE SMOOTH",
"65 -130 OFFCURVE",
"66 -141 OFFCURVE",
"66 -146 CURVE SMOOTH",
"66 -152 OFFCURVE",
"66 -158 OFFCURVE",
"79 -158 CURVE SMOOTH",
"212 -159 LINE SMOOTH",
"217 -159 OFFCURVE",
"223 -161 OFFCURVE",
"230 -161 CURVE SMOOTH",
"234 -161 OFFCURVE",
"238 -160 OFFCURVE",
"238 -154 CURVE SMOOTH",
"239 -89 LINE SMOOTH",
"239 -84 OFFCURVE",
"240 -38 OFFCURVE",
"240 8 CURVE",
"263 -6 OFFCURVE",
"307 -14 OFFCURVE",
"347 -14 CURVE SMOOTH",
"471 -14 OFFCURVE",
"530 124 OFFCURVE",
"530 283 CURVE SMOOTH",
"530 340 OFFCURVE",
"515 592 OFFCURVE",
"353 592 CURVE SMOOTH",
"303 592 OFFCURVE",
"264 577 OFFCURVE",
"237 557 CURVE",
"237 564 LINE SMOOTH",
"237 577 OFFCURVE",
"238 583 OFFCURVE",
"228 583 CURVE SMOOTH",
"220 583 OFFCURVE",
"153 580 OFFCURVE",
"141 580 CURVE SMOOTH",
"129 580 OFFCURVE",
"90 583 OFFCURVE",
"82 583 CURVE SMOOTH",
"76 583 OFFCURVE",
"67 585 OFFCURVE",
"67 571 CURVE SMOOTH",
"67 556 OFFCURVE",
"71 509 OFFCURVE",
"71 492 CURVE SMOOTH"
);
},
{
closed = 1;
nodes = (
"288 419 CURVE SMOOTH",
"340 419 OFFCURVE",
"355 386 OFFCURVE",
"355 286 CURVE SMOOTH",
"355 176 OFFCURVE",
"320 156 OFFCURVE",
"288 156 CURVE SMOOTH",
"269 156 OFFCURVE",
"251 164 OFFCURVE",
"239 178 CURVE",
"239 198 OFFCURVE",
"239 219 OFFCURVE",
"239 242 CURVE SMOOTH",
"239 261 OFFCURVE",
"236 334 OFFCURVE",
"236 359 CURVE",
"238 392 LINE",
"247 402 OFFCURVE",
"262 419 OFFCURVE"
);
}
);
width = 570;
}
);
unicode = 0070;
},
{
glyphname = q;
lastChange = "2016-11-09 02:00:38 +0000";
layers = (
{
layerId = "FC508690-ADF2-4DBF-B34D-60B2640A846D";
paths = (
{
closed = 1;
nodes = (
"442 489 LINE SMOOTH",
"442 506 OFFCURVE",
"446 553 OFFCURVE",
"446 568 CURVE SMOOTH",
"446 582 OFFCURVE",
"437 580 OFFCURVE",
"431 580 CURVE SMOOTH",
"428 580 OFFCURVE",
"426 578 OFFCURVE",
"414 578 CURVE SMOOTH",
"398 578 OFFCURVE",
"393 580 OFFCURVE",
"386 580 CURVE SMOOTH",
"378 580 OFFCURVE",
"377 578 OFFCURVE",
"377 565 CURVE",
"377 564 LINE",
"347 578 OFFCURVE",
"305 589 OFFCURVE",
"249 589 CURVE SMOOTH",
"54 589 OFFCURVE",
"40 337 OFFCURVE",
"40 280 CURVE SMOOTH",
"40 125 OFFCURVE",
"95 -17 OFFCURVE",
"249 -17 CURVE SMOOTH",
"294 -17 OFFCURVE",
"338 -5 OFFCURVE",
"374 16 CURVE",
"374 -33 OFFCURVE",
"375 -87 OFFCURVE",
"375 -92 CURVE SMOOTH",
"376 -157 LINE SMOOTH",
"376 -163 OFFCURVE",
"380 -164 OFFCURVE",
"384 -164 CURVE SMOOTH",
"391 -164 OFFCURVE",
"397 -162 OFFCURVE",
"402 -162 CURVE SMOOTH",
"434 -161 LINE SMOOTH",
"447 -161 OFFCURVE",
"447 -155 OFFCURVE",
"447 -149 CURVE SMOOTH",
"447 -144 OFFCURVE",
"448 -133 OFFCURVE",
"448 -109 CURVE SMOOTH",
"448 -86 OFFCURVE",
"439 113 OFFCURVE",
"439 140 CURVE SMOOTH",
"439 194 LINE SMOOTH",
"439 205 OFFCURVE",
"439 216 OFFCURVE",
"440 229 CURVE"
);
},
{
closed = 1;
nodes = (
"253 542 CURVE SMOOTH",
"314 542 OFFCURVE",
"353 515 OFFCURVE",
"376 478 CURVE",
"376 359 LINE",
"376 281 LINE SMOOTH",
"376 234 OFFCURVE",
"376 183 OFFCURVE",
"375 165 CURVE SMOOTH",
"374 146 OFFCURVE",
"374 123 OFFCURVE",
"374 104 CURVE SMOOTH",
"374 100 LINE",
"341 55 OFFCURVE",
"284 33 OFFCURVE",
"233 33 CURVE SMOOTH",
"179 33 OFFCURVE",
"109 90 OFFCURVE",
"109 228 CURVE SMOOTH",
"109 367 OFFCURVE",
"143 542 OFFCURVE"
);
}
);
width = 513;
}
);
leftKerningGroup = o;
unicode = 0071;
},
{
glyphname = r;
lastChange = "2016-11-10 19:30:25 +0000";
layers = (
{
anchors = (
{
name = bottom;
position = "{152, 0}";
},
{
name = top;
position = "{231, 602}";
}
);
layerId = "FC508690-ADF2-4DBF-B34D-60B2640A846D";
paths = (
{
closed = 1;
nodes = (
"222 328 CURVE",
"223 243 LINE SMOOTH",
"224 214 OFFCURVE",
"224 150 OFFCURVE",
"225 88 CURVE SMOOTH",
"226 52 OFFCURVE",
"225 19 OFFCURVE",
"221 4 CURVE",
"221 -2 OFFCURVE",
"213 -3 OFFCURVE",
"205 -3 CURVE SMOOTH",
"204 -3 OFFCURVE",
"179 1 OFFCURVE",
"151 1 CURVE SMOOTH",
"120 1 OFFCURVE",
"78 0 OFFCURVE",
"74 0 CURVE SMOOTH",
"68 0 OFFCURVE",
"59 2 OFFCURVE",
"59 12 CURVE SMOOTH",
"59 18 OFFCURVE",
"60 64 OFFCURVE",
"60 118 CURVE SMOOTH",
"60 187 OFFCURVE",
"66 268 OFFCURVE",
"67 287 CURVE SMOOTH",
"73 468 LINE",
"74 571 LINE",
"74 572 OFFCURVE",
"74 582 OFFCURVE",
"79 583 CURVE SMOOTH",
"81 584 OFFCURVE",
"112 581 OFFCURVE",
"144 581 CURVE SMOOTH",
"179 581 OFFCURVE",
"205 584 OFFCURVE",
"207 583 CURVE",
"211 583 OFFCURVE",
"215 576 OFFCURVE",
"215 574 CURVE SMOOTH",
"217 546 LINE",
"271 581 OFFCURVE",
"354 604 OFFCURVE",
"374 598 CURVE SMOOTH",
"377 597 OFFCURVE",
"378 591 OFFCURVE",
"383 577 CURVE SMOOTH",
"389 561 OFFCURVE",
"393 547 OFFCURVE",
"396 517 CURVE SMOOTH",
"397 503 OFFCURVE",
"399 491 OFFCURVE",
"401 480 CURVE SMOOTH",
"404 464 OFFCURVE",
"404 452 OFFCURVE",
"402 449 CURVE SMOOTH",
"382 420 OFFCURVE",
"326 430 OFFCURVE",
"264 412 CURVE SMOOTH",
"253 409 OFFCURVE",
"230 404 OFFCURVE",
"220 402 CURVE",
"221 377 OFFCURVE",
"221 330 OFFCURVE"
);
}
);
width = 415;
}
);
rightKerningGroup = r;
unicode = 0072;
},
{
glyphname = s;
lastChange = "2016-11-09 20:22:03 +0000";
layers = (
{
anchors = (
{
name = bottom;
position = "{253, 0}";
},
{
name = top;
position = "{265, 602}";
}
);
layerId = "FC508690-ADF2-4DBF-B34D-60B2640A846D";
paths = (
{
closed = 1;
nodes = (
"259 598 CURVE SMOOTH",
"141 598 OFFCURVE",
"47 530 OFFCURVE",
"47 423 CURVE SMOOTH",
"47 243 OFFCURVE",
"269 282 OFFCURVE",
"269 138 CURVE SMOOTH",
"269 78 OFFCURVE",
"221 73 OFFCURVE",
"191 73 CURVE SMOOTH",
"138 73 OFFCURVE",
"113 98 OFFCURVE",
"105 104 CURVE SMOOTH",
"99 110 OFFCURVE",
"88 118 OFFCURVE",
"82 118 CURVE SMOOTH",
"79 118 OFFCURVE",
"78 118 OFFCURVE",
"75 115 CURVE SMOOTH",
"66 105 OFFCURVE",
"51 84 OFFCURVE",
"44 76 CURVE SMOOTH",
"39 70 OFFCURVE",
"37 65 OFFCURVE",
"37 65 CURVE SMOOTH",
"37 65 OFFCURVE",
"34 63 OFFCURVE",
"40 57 CURVE SMOOTH",
"47 50 OFFCURVE",
"91 -17 OFFCURVE",
"227 -17 CURVE SMOOTH",
"363 -17 OFFCURVE",
"453 35 OFFCURVE",
"453 173 CURVE SMOOTH",
"453 318 OFFCURVE",
"345 352 OFFCURVE",
"310 366 CURVE",
"280 382 OFFCURVE",
"233 400 OFFCURVE",
"233 455 CURVE SMOOTH",
"233 500 OFFCURVE",
"243 518 OFFCURVE",
"273 518 CURVE SMOOTH",
"321 518 OFFCURVE",
"401 443 OFFCURVE",
"405 443 CURVE SMOOTH",
"414 443 OFFCURVE",
"414 446 OFFCURVE",
"422 457 CURVE SMOOTH",
"431 467 OFFCURVE",
"445 491 OFFCURVE",
"451 499 CURVE",
"453 505 OFFCURVE",
"456 505 OFFCURVE",
"456 511 CURVE SMOOTH",
"456 513 OFFCURVE",
"455 516 OFFCURVE",
"452 518 CURVE SMOOTH",
"446 521 OFFCURVE",
"367 598 OFFCURVE"
);
}
);
width = 489;
}
);
leftKerningGroup = s;
unicode = 0073;
},
{
glyphname = t;
lastChange = "2016-11-10 19:30:32 +0000";
layers = (
{
anchors = (
{
name = bottom;
position = "{158, 0}";
},
{
name = top;
position = "{153, 582}";
}
);
layerId = "FC508690-ADF2-4DBF-B34D-60B2640A846D";
paths = (
{
closed = 1;
nodes = (
"18 583 CURVE",
"18 568 OFFCURVE",
"11 545 OFFCURVE",
"18 530 CURVE SMOOTH",
"24 516 OFFCURVE",
"50 514 OFFCURVE",
"73 514 CURVE",
"73 368 LINE SMOOTH",
"73 346 OFFCURVE",
"67 229 OFFCURVE",
"65 162 CURVE",
"65 58 OFFCURVE",
"49 -7 OFFCURVE",
"163 -4 CURVE SMOOTH",
"198 -3 OFFCURVE",
"210 -1 OFFCURVE",
"250 14 CURVE",
"254 15 OFFCURVE",
"251 22 OFFCURVE",
"251 22 CURVE",
"247 38 LINE SMOOTH",
"247 46 OFFCURVE",
"247 77 OFFCURVE",
"236 77 CURVE SMOOTH",
"223 77 OFFCURVE",
"211 74 OFFCURVE",
"175 74 CURVE SMOOTH",
"146 74 OFFCURVE",
"124 93 OFFCURVE",
"124 137 CURVE SMOOTH",
"124 157 LINE SMOOTH",
"124 194 OFFCURVE",
"128 261 OFFCURVE",
"128 278 CURVE SMOOTH",
"128 484 LINE",
"128 515 LINE",
"162 512 OFFCURVE",
"206 508 OFFCURVE",
"234 517 CURVE SMOOTH",
"250 522 OFFCURVE",
"242 582 OFFCURVE",
"225 582 CURVE SMOOTH",
"129 582 LINE",
"131 624 OFFCURVE",
"134 651 OFFCURVE",
"136 666 CURVE SMOOTH",
"137 676 OFFCURVE",
"138 683 OFFCURVE",
"138 689 CURVE SMOOTH",
"138 699 OFFCURVE",
"132 704 OFFCURVE",
"118 706 CURVE",
"112 709 OFFCURVE",
"103 706 OFFCURVE",
"100 707 CURVE SMOOTH",
"97 708 OFFCURVE",
"94 708 OFFCURVE",
"92 708 CURVE SMOOTH",
"82 708 OFFCURVE",
"74 701 OFFCURVE",
"75 667 CURVE",
"75 624 LINE",
"74 586 LINE SMOOTH",
"74 584 OFFCURVE",
"73 583 OFFCURVE",
"73 582 CURVE",
"55 582 OFFCURVE",
"36 582 OFFCURVE"
);
}
);
width = 272;
}
);
unicode = 0074;
},
{
glyphname = u;
lastChange = "2016-11-10 20:01:01 +0000";
layers = (
{
anchors = (
{
name = bottom;
position = "{427, 0}";
},
{
name = top;
position = "{252, 602}";
}
);
layerId = "FC508690-ADF2-4DBF-B34D-60B2640A846D";
paths = (
{
closed = 1;
nodes = (
"464 28 CURVE",
"464 295 LINE",
"465 319 OFFCURVE",
"462 414 OFFCURVE",
"460 478 CURVE",
"460 502 OFFCURVE",
"459 522 OFFCURVE",
"459 526 CURVE SMOOTH",
"459 562 LINE SMOOTH",
"459 571 OFFCURVE",
"452 572 OFFCURVE",
"443 571 CURVE SMOOTH",
"424 570 OFFCURVE",
"398 570 OFFCURVE",
"379 571 CURVE SMOOTH",
"367 572 OFFCURVE",
"358 568 OFFCURVE",
"358 559 CURVE SMOOTH",
"358 520 OFFCURVE",
"364 396 OFFCURVE",
"364 280 CURVE SMOOTH",
"364 214 OFFCURVE",
"363 150 OFFCURVE",
"361 102 CURVE",
"327 81 OFFCURVE",
"272 57 OFFCURVE",
"221 57 CURVE SMOOTH",
"156 57 OFFCURVE",
"142 71 OFFCURVE",
"119 119 CURVE SMOOTH",
"100 161 OFFCURVE",
"107 286 OFFCURVE",
"107 309 CURVE SMOOTH",
"108 358 OFFCURVE",
"113 522 OFFCURVE",
"113 550 CURVE SMOOTH",
"113 564 OFFCURVE",
"105 567 OFFCURVE",
"96 567 CURVE SMOOTH",
"81 567 OFFCURVE",
"64 570 OFFCURVE",
"55 567 CURVE SMOOTH",
"46 565 OFFCURVE",
"40 562 OFFCURVE",
"40 544 CURVE SMOOTH",
"40 522 OFFCURVE",
"40 414 OFFCURVE",
"40 376 CURVE SMOOTH",
"40 344 OFFCURVE",
"40 229 OFFCURVE",
"40 202 CURVE SMOOTH",
"40 174 OFFCURVE",
"46 92 OFFCURVE",
"73 59 CURVE",
"109 9 OFFCURVE",
"147 -6 OFFCURVE",
"206 -6 CURVE SMOOTH",
"278 -6 OFFCURVE",
"319 18 OFFCURVE",
"359 38 CURVE",
"359 31 OFFCURVE",
"358 26 OFFCURVE",
"358 24 CURVE SMOOTH",
"358 8 OFFCURVE",
"353 -10 OFFCURVE",
"374 -8 CURVE SMOOTH",
"395 -7 OFFCURVE",
"449 -9 OFFCURVE",
"449 -9 CURVE",
"463 -9 OFFCURVE",
"467 -2 OFFCURVE"
);
}
);
width = 509;
}
);
unicode = 0075;
},
{
glyphname = v;
lastChange = "2016-11-10 19:31:44 +0000";
layers = (
{
layerId = "FC508690-ADF2-4DBF-B34D-60B2640A846D";
paths = (
{
closed = 1;
nodes = (
"253 281 CURVE",
"242 232 LINE",
"223 314 LINE SMOOTH",
"212 357 OFFCURVE",
"202 406 OFFCURVE",
"199 429 CURVE SMOOTH",
"188 498 OFFCURVE",
"182 542 OFFCURVE",
"176 558 CURVE",
"172 574 OFFCURVE",
"170 586 OFFCURVE",
"147 583 CURVE",
"123 583 OFFCURVE",
"66 580 OFFCURVE",
"48 580 CURVE SMOOTH",
"31 580 OFFCURVE",
"10 588 OFFCURVE",
"10 576 CURVE SMOOTH",
"10 573 OFFCURVE",
"11 571 OFFCURVE",
"12 568 CURVE SMOOTH",
"18 544 OFFCURVE",
"76 307 OFFCURVE",
"90 258 CURVE SMOOTH",
"104 209 OFFCURVE",
"149 47 OFFCURVE",
"154 26 CURVE",
"157 7 OFFCURVE",
"159 -5 OFFCURVE",
"179 -5 CURVE SMOOTH",
"199 -5 OFFCURVE",
"299 2 OFFCURVE",
"313 2 CURVE SMOOTH",
"320 2 OFFCURVE",
"324 1 OFFCURVE",
"328 1 CURVE SMOOTH",
"334 1 OFFCURVE",
"339 3 OFFCURVE",
"342 15 CURVE SMOOTH",
"349 34 OFFCURVE",
"372 196 OFFCURVE",
"389 261 CURVE",
"409 325 OFFCURVE",
"433 444 OFFCURVE",
"441 478 CURVE",
"449 511 OFFCURVE",
"457 543 OFFCURVE",
"463 559 CURVE SMOOTH",
"464 564 OFFCURVE",
"465 568 OFFCURVE",
"465 572 CURVE SMOOTH",
"465 577 OFFCURVE",
"462 580 OFFCURVE",
"449 582 CURVE SMOOTH",
"427 584 OFFCURVE",
"357 584 OFFCURVE",
"343 584 CURVE SMOOTH",
"326 584 OFFCURVE",
"309 590 OFFCURVE",
"312 554 CURVE SMOOTH",
"314 521 OFFCURVE",
"270 391 OFFCURVE",
"268 355 CURVE",
"265 338 OFFCURVE",
"260 307 OFFCURVE"
);
}
);
width = 473;
}
);
unicode = 0076;
},
{
glyphname = w;
lastChange = "2016-11-10 19:31:56 +0000";
layers = (
{
anchors = (
{
name = bottom;
position = "{338, 0}";
},
{
name = top;
position = "{349, 602}";
}
);
layerId = "FC508690-ADF2-4DBF-B34D-60B2640A846D";
paths = (
{
closed = 1;
nodes = (
"243 311 LINE",
"239 300 LINE",
"221 360 LINE SMOOTH",
"214 384 OFFCURVE",
"212 384 OFFCURVE",
"200 424 CURVE SMOOTH",
"181 487 OFFCURVE",
"163 536 OFFCURVE",
"157 558 CURVE",
"153 576 OFFCURVE",
"152 586 OFFCURVE",
"139 582 CURVE SMOOTH",
"130 581 LINE SMOOTH",
"124 580 OFFCURVE",
"50 580 OFFCURVE",
"42 580 CURVE SMOOTH",
"16 580 LINE SMOOTH",
"13 580 OFFCURVE",
"10 580 OFFCURVE",
"10 575 CURVE SMOOTH",
"10 572 OFFCURVE",
"13 567 OFFCURVE",
"15 558 CURVE SMOOTH",
"22 538 OFFCURVE",
"46 468 OFFCURVE",
"63 430 CURVE SMOOTH",
"77 400 OFFCURVE",
"122 260 OFFCURVE",
"130 240 CURVE",
"143 209 OFFCURVE",
"155 165 OFFCURVE",
"165 142 CURVE SMOOTH",
"174 119 OFFCURVE",
"209 26 OFFCURVE",
"213 19 CURVE",
"216 9 OFFCURVE",
"225 -13 OFFCURVE",
"234 -13 CURVE SMOOTH",
"240 -13 OFFCURVE",
"245 4 OFFCURVE",
"248 17 CURVE SMOOTH",
"251 25 OFFCURVE",
"287 134 OFFCURVE",
"299 168 CURVE",
"314 205 OFFCURVE",
"317 224 OFFCURVE",
"323 237 CURVE SMOOTH",
"334 272 LINE",
"346 241 LINE SMOOTH",
"353 224 OFFCURVE",
"360 205 OFFCURVE",
"363 192 CURVE",
"370 173 OFFCURVE",
"392 109 OFFCURVE",
"399 93 CURVE SMOOTH",
"406 75 OFFCURVE",
"427 13 OFFCURVE",
"434 5 CURVE",
"440 -8 OFFCURVE",
"439 -13 OFFCURVE",
"448 -13 CURVE SMOOTH",
"454 -13 OFFCURVE",
"457 1 OFFCURVE",
"460 13 CURVE",
"464 22 OFFCURVE",
"502 168 OFFCURVE",
"513 196 CURVE SMOOTH",
"522 219 OFFCURVE",
"522 231 OFFCURVE",
"528 245 CURVE SMOOTH",
"531 252 OFFCURVE",
"552 322 OFFCURVE",
"558 351 CURVE",
"568 380 OFFCURVE",
"594 486 OFFCURVE",
"602 512 CURVE SMOOTH",
"612 538 OFFCURVE",
"614 556 OFFCURVE",
"620 570 CURVE",
"621 575 OFFCURVE",
"622 578 OFFCURVE",
"622 581 CURVE SMOOTH",
"622 586 OFFCURVE",
"619 588 OFFCURVE",
"612 588 CURVE",
"609 589 OFFCURVE",
"605 589 OFFCURVE",
"601 589 CURVE SMOOTH",
"591 589 OFFCURVE",
"560 587 OFFCURVE",
"553 586 CURVE",
"544 586 OFFCURVE",
"542 578 OFFCURVE",
"533 556 CURVE SMOOTH",
"524 534 OFFCURVE",
"510 488 OFFCURVE",
"503 459 CURVE",
"494 426 OFFCURVE",
"492 401 OFFCURVE",
"486 383 CURVE",
"476 347 OFFCURVE",
"475 345 OFFCURVE",
"474 342 CURVE",
"459 376 LINE",
"433 433 LINE",
"416 485 OFFCURVE",
"391 534 OFFCURVE",
"372 574 CURVE SMOOTH",
"367 585 OFFCURVE",
"364 588 OFFCURVE",
"355 588 CURVE SMOOTH",
"345 588 OFFCURVE",
"329 549 OFFCURVE",
"323 532 CURVE",
"316 512 OFFCURVE",
"295 452 OFFCURVE",
"286 427 CURVE SMOOTH",
"277 402 OFFCURVE",
"270 379 OFFCURVE",
"263 364 CURVE"
);
}
);
width = 632;
}
);
leftKerningGroup = w;
rightKerningGroup = w;
unicode = 0077;
},
{
glyphname = x;
lastChange = "2016-11-10 19:32:25 +0000";
layers = (
{
layerId = "FC508690-ADF2-4DBF-B34D-60B2640A846D";
paths = (
{
closed = 1;
nodes = (
"321 442 CURVE",
"276 369 LINE SMOOTH",
"270 358 OFFCURVE",
"267 344 OFFCURVE",
"258 344 CURVE",
"249 358 OFFCURVE",
"241 371 OFFCURVE",
"233 384 CURVE SMOOTH",
"219 407 OFFCURVE",
"202 436 OFFCURVE",
"189 458 CURVE SMOOTH",
"164 501 OFFCURVE",
"149 523 OFFCURVE",
"136 545 CURVE",
"120 567 OFFCURVE",
"114 586 OFFCURVE",
"100 587 CURVE SMOOTH",
"87 587 OFFCURVE",
"62 585 OFFCURVE",
"50 585 CURVE SMOOTH",
"43 586 OFFCURVE",
"39 584 OFFCURVE",
"39 578 CURVE SMOOTH",
"39 574 OFFCURVE",
"40 570 OFFCURVE",
"44 563 CURVE SMOOTH",
"52 549 OFFCURVE",
"123 441 OFFCURVE",
"137 416 CURVE SMOOTH",
"150 389 OFFCURVE",
"196 312 OFFCURVE",
"203 298 CURVE SMOOTH",
"206 291 OFFCURVE",
"208 286 OFFCURVE",
"208 278 CURVE SMOOTH",
"208 272 OFFCURVE",
"206 264 OFFCURVE",
"199 253 CURVE SMOOTH",
"183 233 OFFCURVE",
"150 178 OFFCURVE",
"128 149 CURVE",
"108 121 OFFCURVE",
"54 48 OFFCURVE",
"44 32 CURVE SMOOTH",
"38 21 OFFCURVE",
"32 14 OFFCURVE",
"32 8 CURVE SMOOTH",
"32 5 OFFCURVE",
"34 2 OFFCURVE",
"39 1 CURVE SMOOTH",
"48 -2 OFFCURVE",
"67 -4 OFFCURVE",
"77 -4 CURVE SMOOTH",
"82 -4 OFFCURVE",
"87 -3 OFFCURVE",
"91 -2 CURVE SMOOTH",
"100 2 OFFCURVE",
"116 29 OFFCURVE",
"131 48 CURVE SMOOTH",
"147 69 OFFCURVE",
"167 116 OFFCURVE",
"187 143 CURVE SMOOTH",
"208 171 OFFCURVE",
"241 214 OFFCURVE",
"241 214 CURVE SMOOTH",
"241 220 OFFCURVE",
"248 224 OFFCURVE",
"252 224 CURVE SMOOTH",
"254 224 OFFCURVE",
"257 221 OFFCURVE",
"261 215 CURVE SMOOTH",
"270 202 OFFCURVE",
"315 126 OFFCURVE",
"327 104 CURVE",
"337 81 OFFCURVE",
"364 50 OFFCURVE",
"376 27 CURVE SMOOTH",
"388 5 OFFCURVE",
"388 -4 OFFCURVE",
"398 -5 CURVE",
"457 -6 LINE SMOOTH",
"466 -6 OFFCURVE",
"472 -5 OFFCURVE",
"472 0 CURVE SMOOTH",
"472 2 OFFCURVE",
"471 5 OFFCURVE",
"469 9 CURVE SMOOTH",
"462 21 OFFCURVE",
"426 81 OFFCURVE",
"409 108 CURVE",
"389 134 OFFCURVE",
"366 175 OFFCURVE",
"353 199 CURVE SMOOTH",
"340 221 OFFCURVE",
"318 254 OFFCURVE",
"312 266 CURVE SMOOTH",
"309 273 OFFCURVE",
"306 278 OFFCURVE",
"306 283 CURVE SMOOTH",
"306 287 OFFCURVE",
"308 291 OFFCURVE",
"312 297 CURVE",
"318 310 OFFCURVE",
"376 425 OFFCURVE",
"392 447 CURVE SMOOTH",
"407 469 OFFCURVE",
"434 512 OFFCURVE",
"451 533 CURVE",
"467 555 OFFCURVE",
"473 568 OFFCURVE",
"476 578 CURVE SMOOTH",
"481 590 OFFCURVE",
"464 587 OFFCURVE",
"446 587 CURVE SMOOTH",
"436 587 OFFCURVE",
"423 590 OFFCURVE",
"414 586 CURVE SMOOTH",
"403 580 OFFCURVE",
"393 550 OFFCURVE",
"380 533 CURVE SMOOTH",
"368 516 OFFCURVE",
"332 460 OFFCURVE"
);
}
);
width = 509;
}
);
unicode = 0078;
},
{
glyphname = y;
lastChange = "2016-11-10 19:34:19 +0000";
layers = (
{
anchors = (
{
name = bottom;
position = "{251, 0}";
},
{
name = top;
position = "{253, 602}";
}
);
layerId = "FC508690-ADF2-4DBF-B34D-60B2640A846D";
paths = (
{
closed = 1;
nodes = (
"245 230 LINE",
"239 230 LINE",
"226 306 LINE SMOOTH",
"219 345 OFFCURVE",
"205 425 OFFCURVE",
"202 445 CURVE SMOOTH",
"182 539 OFFCURVE",
"176 564 OFFCURVE",
"176 561 CURVE",
"172 576 OFFCURVE",
"170 586 OFFCURVE",
"146 584 CURVE",
"121 584 OFFCURVE",
"70 581 OFFCURVE",
"51 581 CURVE SMOOTH",
"34 581 OFFCURVE",
"12 588 OFFCURVE",
"12 577 CURVE SMOOTH",
"12 575 OFFCURVE",
"13 573 OFFCURVE",
"14 570 CURVE SMOOTH",
"18 549 OFFCURVE",
"72 336 OFFCURVE",
"84 291 CURVE",
"162 31 LINE",
"135 -67 LINE SMOOTH",
"125 -93 OFFCURVE",
"125 -97 OFFCURVE",
"111 -134 CURVE",
"111 -135 OFFCURVE",
"101 -154 OFFCURVE",
"108 -159 CURVE SMOOTH",
"113 -163 OFFCURVE",
"172 -157 OFFCURVE",
"178 -157 CURVE SMOOTH",
"219 -157 OFFCURVE",
"217 -162 OFFCURVE",
"259 -161 CURVE SMOOTH",
"263 -161 OFFCURVE",
"274 -160 OFFCURVE",
"275 -152 CURVE",
"275 -151 OFFCURVE",
"292 -100 OFFCURVE",
"296 -79 CURVE SMOOTH",
"315 -3 OFFCURVE",
"327 33 OFFCURVE",
"341 94 CURVE SMOOTH",
"353 140 OFFCURVE",
"375 246 OFFCURVE",
"392 294 CURVE",
"414 352 OFFCURVE",
"443 459 OFFCURVE",
"451 489 CURVE SMOOTH",
"462 519 OFFCURVE",
"470 548 OFFCURVE",
"478 562 CURVE",
"479 567 OFFCURVE",
"480 570 OFFCURVE",
"480 574 CURVE SMOOTH",
"480 578 OFFCURVE",
"477 581 OFFCURVE",
"464 583 CURVE",
"441 585 OFFCURVE",
"368 585 OFFCURVE",
"354 585 CURVE SMOOTH",
"336 585 OFFCURVE",
"325 590 OFFCURVE",
"322 558 CURVE SMOOTH",
"319 525 OFFCURVE",
"296 453 OFFCURVE",
"279 388 CURVE SMOOTH",
"275 372 OFFCURVE",
"259 318 OFFCURVE",
"256 294 CURVE SMOOTH"
);
}
);
width = 488;
}
);
rightKerningGroup = y;
unicode = 0079;
},
{
glyphname = z;
lastChange = "2016-11-10 19:35:05 +0000";
layers = (
{
anchors = (
{
name = bottom;
position = "{243, 0}";
},
{
name = top;
position = "{244, 602}";
}
);
layerId = "FC508690-ADF2-4DBF-B34D-60B2640A846D";
paths = (
{
closed = 1;
nodes = (
"275 524 LINE",
"291 523 LINE",
"293 522 OFFCURVE",
"295 522 OFFCURVE",
"298 522 CURVE",
"284 489 LINE SMOOTH",
"275 469 OFFCURVE",
"265 448 OFFCURVE",
"256 434 CURVE SMOOTH",
"238 407 OFFCURVE",
"188 336 OFFCURVE",
"174 310 CURVE SMOOTH",
"159 283 OFFCURVE",
"82 172 OFFCURVE",
"67 151 CURVE",
"52 129 OFFCURVE",
"34 113 OFFCURVE",
"34 100 CURVE SMOOTH",
"34 86 OFFCURVE",
"31 38 OFFCURVE",
"31 27 CURVE SMOOTH",
"31 13 OFFCURVE",
"25 -1 OFFCURVE",
"54 -1 CURVE SMOOTH",
"243 -1 LINE SMOOTH",
"264 -1 OFFCURVE",
"306 -3 OFFCURVE",
"341 -3 CURVE SMOOTH",
"360 -3 OFFCURVE",
"375 -3 OFFCURVE",
"385 -1 CURVE SMOOTH",
"419 5 OFFCURVE",
"434 2 OFFCURVE",
"444 5 CURVE",
"454 5 OFFCURVE",
"454 6 OFFCURVE",
"454 17 CURVE SMOOTH",
"454 19 OFFCURVE",
"454 21 OFFCURVE",
"454 22 CURVE SMOOTH",
"454 37 OFFCURVE",
"456 71 OFFCURVE",
"456 83 CURVE SMOOTH",
"455 96 OFFCURVE",
"458 109 OFFCURVE",
"441 109 CURVE SMOOTH",
"424 109 OFFCURVE",
"344 104 OFFCURVE",
"314 104 CURVE SMOOTH",
"283 104 OFFCURVE",
"262 102 OFFCURVE",
"230 102 CURVE SMOOTH",
"213 102 OFFCURVE",
"191 103 OFFCURVE",
"174 106 CURVE SMOOTH",
"164 107 OFFCURVE",
"153 108 OFFCURVE",
"142 110 CURVE",
"216 220 LINE",
"255 275 OFFCURVE",
"295 338 OFFCURVE",
"310 361 CURVE SMOOTH",
"338 402 OFFCURVE",
"407 513 OFFCURVE",
"416 527 CURVE SMOOTH",
"424 540 OFFCURVE",
"423 563 OFFCURVE",
"423 570 CURVE SMOOTH",
"423 576 OFFCURVE",
"424 583 OFFCURVE",
"413 583 CURVE SMOOTH",
"411 583 OFFCURVE",
"409 582 OFFCURVE",
"407 582 CURVE SMOOTH",
"396 581 OFFCURVE",
"361 581 OFFCURVE",
"330 581 CURVE SMOOTH",
"310 581 OFFCURVE",
"293 581 OFFCURVE",
"285 581 CURVE SMOOTH",
"268 581 OFFCURVE",
"187 584 OFFCURVE",
"156 584 CURVE SMOOTH",
"123 584 OFFCURVE",
"83 581 OFFCURVE",
"58 581 CURVE SMOOTH",
"47 581 OFFCURVE",
"34 585 OFFCURVE",
"35 569 CURVE SMOOTH",
"37 553 OFFCURVE",
"38 543 OFFCURVE",
"38 537 CURVE SMOOTH",
"38 531 OFFCURVE",
"34 527 OFFCURVE",
"46 526 CURVE SMOOTH",
"51 526 OFFCURVE",
"64 526 OFFCURVE",
"78 526 CURVE SMOOTH",
"100 526 OFFCURVE",
"126 526 OFFCURVE",
"133 524 CURVE SMOOTH",
"136 524 OFFCURVE",
"142 524 OFFCURVE",
"146 524 CURVE SMOOTH",
"161 524 OFFCURVE",
"181 525 OFFCURVE",
"194 525 CURVE SMOOTH"
);
}
);
width = 478;
}
);
leftKerningGroup = z;
unicode = 007A;
},
{
glyphname = acute;
lastChange = "2016-11-04 22:54:03 +0000";
layers = (
{
anchors = (
{
name = _top;
position = "{114, 710}";
},
{
name = top;
position = "{114, 900}";
}
);
layerId = "FC508690-ADF2-4DBF-B34D-60B2640A846D";
paths = (
{
closed = 1;
nodes = (
"179 836 OFFCURVE",
"164 834 OFFCURVE",
"152 830 CURVE",
"130 822 LINE",
"88 807 OFFCURVE",
"83 807 OFFCURVE",
"69 799 CURVE",
"59 796 OFFCURVE",
"21 781 OFFCURVE",
"19 774 CURVE SMOOTH",
"18 770 OFFCURVE",
"17 767 OFFCURVE",
"17 764 CURVE SMOOTH",
"17 752 OFFCURVE",
"28 745 OFFCURVE",
"37 742 CURVE",
"45 737 OFFCURVE",
"51 735 OFFCURVE",
"58 735 CURVE SMOOTH",
"67 735 OFFCURVE",
"76 739 OFFCURVE",
"90 744 CURVE",
"125 758 OFFCURVE",
"141 767 OFFCURVE",
"175 777 CURVE SMOOTH",
"185 780 OFFCURVE",
"218 794 OFFCURVE",
"224 811 CURVE",
"228 833 OFFCURVE",
"221 839 OFFCURVE",
"207 839 CURVE SMOOTH",
"202 839 OFFCURVE",
"195 838 OFFCURVE",
"187 837 CURVE SMOOTH"
);
}
);
width = 238;
}
);
unicode = 00B4;
},
{
glyphname = acutecomb;
lastChange = "2016-11-04 22:54:03 +0000";
layers = (
{
anchors = (
{
name = _top;
position = "{113, 692}";
},
{
name = top;
position = "{123, 882}";
}
);
layerId = "FC508690-ADF2-4DBF-B34D-60B2640A846D";
paths = (
{
closed = 1;
nodes = (
"179 836 OFFCURVE",
"164 834 OFFCURVE",
"152 830 CURVE",
"130 822 LINE",
"89 804 OFFCURVE",
"83 807 OFFCURVE",
"69 799 CURVE",
"59 796 OFFCURVE",
"21 781 OFFCURVE",
"19 774 CURVE SMOOTH",
"18 770 OFFCURVE",
"17 767 OFFCURVE",
"17 764 CURVE SMOOTH",
"17 752 OFFCURVE",
"28 745 OFFCURVE",
"37 742 CURVE",
"45 737 OFFCURVE",
"51 735 OFFCURVE",
"58 735 CURVE SMOOTH",
"67 735 OFFCURVE",
"76 739 OFFCURVE",
"90 744 CURVE",
"124 760 OFFCURVE",
"141 765 OFFCURVE",
"175 777 CURVE SMOOTH",
"186 781 OFFCURVE",
"219 794 OFFCURVE",
"224 811 CURVE",
"228 833 OFFCURVE",
"221 839 OFFCURVE",
"207 839 CURVE SMOOTH",
"202 839 OFFCURVE",
"195 838 OFFCURVE",
"187 837 CURVE SMOOTH"
);
}
);
width = 0;
}
);
unicode = 0301;
},
{
glyphname = acute.loclPLK;
lastChange = "2016-11-04 22:54:03 +0000";
layers = (
{
anchors = (
{
name = _top;
position = "{78, 710}";
},
{
name = top;
position = "{78, 900}";
}
);
layerId = "FC508690-ADF2-4DBF-B34D-60B2640A846D";
paths = (
{
closed = 1;
nodes = (
"103 850 CURVE",
"92 840 LINE",
"64 819 OFFCURVE",
"63 817 OFFCURVE",
"58 813 CURVE SMOOTH",
"54 810 OFFCURVE",
"51 808 OFFCURVE",
"48 804 CURVE",
"42 802 OFFCURVE",
"21 781 OFFCURVE",
"21 775 CURVE SMOOTH",
"21 756 OFFCURVE",
"29 746 OFFCURVE",
"34 743 CURVE",
"39 738 OFFCURVE",
"43 736 OFFCURVE",
"46 736 CURVE SMOOTH",
"52 736 OFFCURVE",
"57 741 OFFCURVE",
"65 748 CURVE SMOOTH",
"74 756 OFFCURVE",
"82 761 OFFCURVE",
"89 768 CURVE SMOOTH",
"96 775 OFFCURVE",
"111 788 OFFCURVE",
"122 795 CURVE",
"126 799 OFFCURVE",
"146 816 OFFCURVE",
"146 833 CURVE",
"143 858 OFFCURVE",
"139 859 OFFCURVE",
"122 859 CURVE SMOOTH",
"118 859 OFFCURVE",
"108 855 OFFCURVE"
);
}
);
width = 166;
}
);
},
{
glyphname = baraccent;
lastChange = "2016-11-04 22:54:03 +0000";
layers = (
{
anchors = (
{
name = bottom;
position = "{186, 0}";
},
{
name = top;
position = "{192, 710}";
}
);
layerId = "FC508690-ADF2-4DBF-B34D-60B2640A846D";
paths = (
{
closed = 1;
nodes = (
"356 377 CURVE",
"211 377 LINE SMOOTH",
"150 377 OFFCURVE",
"126 374 OFFCURVE",
"109 374 CURVE SMOOTH",
"32 374 LINE",
"26 375 OFFCURVE",
"21 376 OFFCURVE",
"17 376 CURVE SMOOTH",
"10 376 OFFCURVE",
"6 374 OFFCURVE",
"6 370 CURVE",
"3 363 OFFCURVE",
"10 329 OFFCURVE",
"10 317 CURVE SMOOTH",
"10 306 OFFCURVE",
"5 301 OFFCURVE",
"28 301 CURVE SMOOTH",
"39 301 OFFCURVE",
"64 299 OFFCURVE",
"93 299 CURVE SMOOTH",
"105 299 OFFCURVE",
"117 299 OFFCURVE",
"126 301 CURVE",
"137 301 OFFCURVE",
"158 302 OFFCURVE",
"195 302 CURVE SMOOTH",
"234 302 OFFCURVE",
"253 304 OFFCURVE",
"266 304 CURVE SMOOTH",
"291 304 OFFCURVE",
"331 307 OFFCURVE",
"339 307 CURVE SMOOTH",
"344 307 OFFCURVE",
"350 306 OFFCURVE",
"354 306 CURVE SMOOTH",
"361 306 OFFCURVE",
"365 308 OFFCURVE",
"365 314 CURVE SMOOTH",
"365 360 LINE SMOOTH",
"365 367 OFFCURVE",
"369 377 OFFCURVE"
);
}
);
width = 371;
}
);
},
{
glyphname = baraccentlong;
lastChange = "2016-11-04 22:54:03 +0000";
layers = (
{
anchors = (
{
name = bottom;
position = "{341, 0}";
},
{
name = top;
position = "{347, 710}";
}
);
layerId = "FC508690-ADF2-4DBF-B34D-60B2640A846D";
paths = (
{
closed = 1;
nodes = (
"671 377 CURVE",
"241 377 LINE SMOOTH",
"190 377 OFFCURVE",
"158 376 OFFCURVE",
"143 375 CURVE SMOOTH",
"129 374 OFFCURVE",
"118 374 OFFCURVE",
"109 374 CURVE SMOOTH",
"37 374 LINE",
"31 375 OFFCURVE",
"26 376 OFFCURVE",
"22 376 CURVE SMOOTH",
"15 376 OFFCURVE",
"11 374 OFFCURVE",
"11 370 CURVE",
"8 363 OFFCURVE",
"15 328 OFFCURVE",
"15 316 CURVE SMOOTH",
"15 305 OFFCURVE",
"10 300 OFFCURVE",
"33 300 CURVE SMOOTH",
"44 300 OFFCURVE",
"69 298 OFFCURVE",
"93 298 CURVE SMOOTH",
"105 298 OFFCURVE",
"117 298 OFFCURVE",
"126 300 CURVE",
"137 300 OFFCURVE",
"153 301 OFFCURVE",
"210 301 CURVE",
"239 302 OFFCURVE",
"308 302 OFFCURVE",
"416 302 CURVE SMOOTH",
"522 302 OFFCURVE",
"581 303 OFFCURVE",
"588 303 CURVE SMOOTH",
"613 303 OFFCURVE",
"646 306 OFFCURVE",
"654 306 CURVE SMOOTH",
"659 306 OFFCURVE",
"665 305 OFFCURVE",
"669 305 CURVE SMOOTH",
"676 305 OFFCURVE",
"680 307 OFFCURVE",
"680 313 CURVE SMOOTH",
"680 360 LINE SMOOTH",
"680 367 OFFCURVE",
"684 377 OFFCURVE"
);
}
);
width = 693;
}
);
},
{
glyphname = baraccentmedium;
lastChange = "2016-11-04 22:54:03 +0000";
layers = (
{
anchors = (
{
name = bottom;
position = "{273, 0}";
},
{
name = top;
position = "{279, 710}";
}
);
layerId = "FC508690-ADF2-4DBF-B34D-60B2640A846D";
paths = (
{
closed = 1;
nodes = (
"533 377 CURVE",
"241 377 LINE SMOOTH",
"190 377 OFFCURVE",
"158 376 OFFCURVE",
"143 375 CURVE SMOOTH",
"129 374 OFFCURVE",
"118 374 OFFCURVE",
"109 374 CURVE SMOOTH",
"37 374 LINE",
"31 375 OFFCURVE",
"26 376 OFFCURVE",
"22 376 CURVE SMOOTH",
"15 376 OFFCURVE",
"11 374 OFFCURVE",
"11 370 CURVE",
"8 363 OFFCURVE",
"15 323 OFFCURVE",
"15 311 CURVE SMOOTH",
"15 300 OFFCURVE",
"10 295 OFFCURVE",
"33 295 CURVE SMOOTH",
"44 295 OFFCURVE",
"69 293 OFFCURVE",
"93 293 CURVE SMOOTH",
"105 293 OFFCURVE",
"117 293 OFFCURVE",
"126 295 CURVE",
"137 295 OFFCURVE",
"153 296 OFFCURVE",
"210 296 CURVE",
"239 297 OFFCURVE",
"285 297 OFFCURVE",
"346 297 CURVE SMOOTH",
"407 298 OFFCURVE",
"441 298 OFFCURVE",
"448 298 CURVE SMOOTH",
"473 298 OFFCURVE",
"508 301 OFFCURVE",
"516 301 CURVE SMOOTH",
"521 301 OFFCURVE",
"527 300 OFFCURVE",
"531 300 CURVE SMOOTH",
"538 300 OFFCURVE",
"542 302 OFFCURVE",
"542 308 CURVE SMOOTH",
"542 360 LINE SMOOTH",
"542 367 OFFCURVE",
"546 377 OFFCURVE"
);
}
);
width = 553;
}
);
},
